<svg
  t="1637202397673"
  class="icon"
  viewBox="0 0 1024 1024"
  version="1.1"
  xmlns="http://www.w3.org/2000/svg"
  p-id="13783"
  width="32"
  height="32"
>
  <path
    d="M874.123636 149.876364c-47.010909-47.476364-101.469091-83.781818-162.909091-109.847273C647.912727 13.498182 581.352727 0 512 0 442.181818 0 376.087273 13.498182 312.785455 40.029091c-61.44 26.065455-115.432727 62.836364-162.909091 109.847273-47.010909 47.476364-83.781818 101.469091-109.381819 162.909091C13.498182 376.087273 0 442.647273 0 512s13.498182 135.912727 40.029091 199.214545c26.065455 60.974545 62.370909 115.432727 109.847273 162.909091 47.010909 47.010909 101.469091 83.316364 162.443636 109.381819C376.087273 1010.501818 442.181818 1024 512 1024c69.352727 0 135.912727-13.498182 199.214545-40.494545 61.44-25.6 115.898182-62.370909 162.909091-109.381819 47.476364-47.476364 83.781818-101.934545 109.381819-162.909091 26.996364-63.301818 40.494545-129.861818 40.494545-199.214545s-13.498182-135.912727-40.494545-199.214545c-25.6-61.44-62.370909-115.432727-109.381819-162.909091m-362.123636-55.854546c55.854545 0 109.381818 10.705455 160.581818 31.650909 50.734545 20.945455 95.883636 51.2 135.447273 91.229091 39.563636 39.563636 70.283636 84.712727 91.229091 135.447273 20.945455 50.734545 31.650909 104.261818 31.650909 160.116364s-10.705455 109.381818-31.650909 160.581818c-20.945455 50.734545-51.2 95.883636-91.229091 135.447272-39.563636 39.563636-84.712727 69.818182-135.447273 91.229091-51.2 20.945455-104.727273 31.650909-160.581818 31.650909s-108.916364-10.705455-159.650909-31.650909c-51.2-21.410909-96.349091-51.665455-135.447273-91.229091-39.563636-39.563636-70.283636-84.712727-91.229091-135.912727-20.945455-51.2-31.650909-104.261818-31.650909-160.116363s10.705455-109.381818 31.650909-160.116364c20.945455-51.2 51.2-96.349091 90.763637-135.912727s84.712727-69.818182 135.447272-91.229091c51.2-20.945455 104.261818-31.185455 160.116364-31.185455z"
    fill="#C2B8B9"
    p-id="13784"
  ></path>
  <path
    d="M672.581818 125.672727c-51.2-20.945455-104.727273-31.650909-160.581818-31.650909S403.083636 104.727273 352.349091 125.672727c-51.2 21.410909-96.349091 51.665455-135.447273 91.229091C176.872727 256 146.618182 301.149091 125.672727 351.883636c-20.945455 51.2-31.650909 104.261818-31.650909 160.116364s10.705455 109.381818 31.650909 160.116364c21.410909 50.734545 51.665455 95.883636 91.229091 135.912727 39.563636 39.098182 84.712727 69.818182 135.447273 91.229091C403.083636 920.203636 456.145455 930.909091 512 930.909091c55.854545 0 109.381818-10.705455 160.581818-31.650909 50.734545-20.945455 95.883636-51.665455 135.447273-91.229091 39.563636-39.563636 70.283636-84.712727 91.229091-135.447273 20.945455-51.2 31.650909-104.727273 31.650909-160.581818s-10.705455-109.381818-31.650909-160.116364c-20.945455-50.734545-51.2-95.883636-91.229091-135.447272-39.563636-39.563636-84.712727-69.818182-135.447273-90.763637M512 112.174545c53.527273 0 104.727273 10.24 153.134545 30.254546 48.872727 20.014545 92.16 48.872727 129.861819 86.574545 37.701818 37.701818 66.56 80.989091 86.574545 129.396364 20.48 48.872727 30.254545 100.072727 30.254546 153.134545 0 53.527273-10.24 104.727273-30.254546 153.134546-20.014545 48.407273-48.872727 91.694545-86.574545 129.396364-37.701818 38.167273-81.454545 67.025455-129.861819 87.04-48.407273 20.48-99.607273 30.254545-153.134545 30.254545-53.061818 0-104.261818-10.24-152.669091-30.254545-48.872727-20.014545-92.16-49.338182-129.861818-87.04-37.701818-37.701818-66.56-80.523636-86.574546-129.396364-20.48-48.407273-30.254545-99.607273-30.254545-153.134546 0-53.061818 10.24-104.261818 30.254545-153.134545C162.909091 310.458182 192.232727 267.170909 229.934545 229.469091c38.167273-37.701818 81.454545-66.56 129.861819-86.574546 48.407273-20.48 99.607273-30.72 152.203636-30.72z"
    fill="#990000"
    p-id="13785"
  ></path>
  <path
    d="M665.134545 142.894545c-48.407273-20.48-99.607273-30.254545-153.134545-30.254545-53.061818 0-103.796364 10.24-152.669091 30.254545C310.923636 162.909091 267.636364 191.767273 229.934545 229.469091 192.232727 267.170909 162.909091 310.458182 142.894545 359.330909c-20.48 48.872727-30.254545 100.072727-30.254545 153.134546 0 53.527273 10.24 104.727273 30.254545 153.134545 20.014545 48.407273 48.872727 91.694545 86.574546 129.396364 37.701818 37.701818 80.989091 67.025455 129.861818 87.04 48.407273 20.48 99.141818 30.254545 152.669091 30.254545 53.527273 0 104.727273-10.24 153.134545-30.254545 48.872727-20.014545 92.16-48.872727 129.861819-87.04 37.701818-37.701818 66.56-80.523636 86.574545-129.396364 20.48-48.407273 30.254545-99.607273 30.254546-153.134545 0-53.061818-10.24-104.261818-30.254546-153.134546-20.014545-48.407273-48.872727-91.694545-86.574545-129.396364-37.701818-38.167273-80.989091-67.025455-129.861819-87.04z"
    fill="#F02452"
    p-id="13786"
  ></path>
  <path
    d="M610.676364 413.323636c-27.461818-27.461818-60.509091-41.425455-99.141819-41.425454s-71.214545 13.963636-98.676363 41.425454c-26.996364 27.461818-40.494545 60.509091-40.494546 98.676364 0 38.632727 13.498182 71.68 40.96 98.676364 27.461818 26.996364 60.043636 40.494545 98.676364 40.494545 38.632727 0 71.68-13.498182 99.141818-40.494545 26.996364-27.461818 40.494545-60.043636 40.494546-98.676364 0-38.167273-13.498182-71.214545-40.96-98.676364M512 388.189091c33.978182 0 63.301818 12.101818 87.505455 36.305454 24.203636 24.203636 36.305455 53.527273 36.305454 87.505455s-12.101818 63.301818-36.305454 87.505455c-24.203636 24.203636-53.527273 36.305455-87.505455 36.305454-33.978182 0-63.301818-12.101818-87.505455-36.305454-24.203636-24.203636-36.305455-53.527273-36.305454-87.505455s12.101818-63.301818 36.305454-87.505455c24.203636-24.203636 53.061818-36.305455 87.505455-36.305454m51.665455 123.810909c0-13.963636-5.12-26.065455-14.894546-36.305455-10.24-10.24-22.341818-15.36-36.770909-15.36-13.963636 0-26.065455 5.12-36.305455 15.36-10.24 10.24-15.36 22.341818-15.36 36.305455 0 14.429091 5.12 26.530909 15.36 36.770909 10.24 10.24 22.341818 14.894545 36.305455 14.894546 14.429091 0 26.996364-5.12 36.770909-14.894546 9.774545-10.24 14.894545-22.341818 14.894546-36.770909m-26.065455-25.6c6.981818 7.447273 10.705455 15.825455 10.705455 25.6s-3.723636 18.152727-10.705455 25.134545c-6.981818 6.981818-15.825455 10.705455-25.6 10.705455s-18.152727-3.723636-25.134545-10.705455c-6.981818-6.981818-10.705455-15.36-10.705455-25.134545 0-9.774545 3.723636-18.152727 10.705455-25.6 6.981818-6.981818 15.825455-10.705455 25.134545-10.705455 9.774545 0 18.152727 3.723636 25.6 10.705455z"
    fill="#990000"
    p-id="13787"
  ></path>
  <path
    d="M599.505455 424.494545c-24.203636-24.203636-53.527273-36.305455-87.505455-36.305454-33.978182 0-63.301818 12.101818-87.505455 36.305454-24.203636 24.203636-36.305455 53.527273-36.305454 87.505455s12.101818 63.301818 36.305454 87.505455c24.203636 24.203636 53.527273 36.305455 87.505455 36.305454 33.978182 0 63.301818-12.101818 87.505455-36.305454 24.203636-24.203636 36.305455-53.527273 36.305454-87.505455s-12.101818-63.301818-36.305454-87.505455m-50.734546 51.2c10.24 10.24 14.894545 22.341818 14.894546 36.305455 0 14.429091-5.12 26.530909-14.894546 36.770909-10.24 10.24-22.341818 14.894545-36.770909 14.894546-13.963636 0-26.065455-5.12-36.305455-14.894546-10.24-10.24-15.36-22.341818-15.36-36.770909 0-13.963636 5.12-26.065455 15.36-36.305455 10.24-10.24 22.341818-15.36 36.305455-15.36 14.429091 0 26.530909 5.12 36.770909 15.36z"
    fill="#F7D54A"
    p-id="13788"
  ></path>
  <path
    d="M547.84 512c0-9.774545-3.723636-18.152727-10.705455-25.6-6.981818-6.981818-15.825455-10.705455-25.6-10.705455s-18.152727 3.723636-25.134545 10.705455c-6.981818 7.447273-10.705455 15.825455-10.705455 25.6s3.723636 18.152727 10.705455 25.134545c6.981818 6.981818 15.825455 10.705455 25.134545 10.705455 9.774545 0 18.618182-3.723636 25.6-10.705455 7.447273-6.981818 10.705455-15.36 10.705455-25.134545z"
    fill="#FFFFFF"
    p-id="13789"
  ></path>
  <path
    d="M331.403636 598.574545c-0.930909-1.861818-2.327273-3.258182-4.654545-4.18909-1.861818-0.465455-4.189091-0.465455-6.050909 0.465454s-3.723636 2.327273-4.189091 4.189091c-0.465455 1.861818-0.465455 4.189091 0.465454 6.050909 10.24 22.807273 24.203636 42.821818 41.89091 60.509091 17.221818 17.221818 37.236364 31.185455 60.50909 41.890909 0.465455 0.465455 1.861818 0.465455 3.258182 0.465455 3.258182 0 6.050909-1.396364 7.447273-4.654546 0.930909-1.861818 0.930909-4.189091 0.465455-6.050909-0.930909-1.861818-2.327273-3.723636-4.189091-4.189091-20.48-9.309091-39.098182-21.876364-55.854546-38.167273-17.221818-16.756364-29.789091-35.374545-39.098182-56.32m-110.778181 17.687273c-0.930909 1.861818-1.396364 4.189091-0.465455 6.050909 15.36 42.356364 38.632727 79.592727 70.283636 111.243637 31.185455 31.650909 68.421818 54.923636 111.243637 70.283636l2.792727 0.465455c3.723636 0 6.050909-1.861818 7.447273-5.12 0.465455-1.861818 0.465455-4.189091-0.465455-6.05091s-2.327273-3.258182-4.654545-4.18909c-40.029091-13.963636-75.403636-36.305455-105.658182-66.56-29.789091-29.789091-52.130909-65.163636-66.094546-105.192728-0.465455-1.861818-1.861818-3.723636-4.18909-4.189091-1.861818-0.930909-4.189091-0.930909-6.05091-0.465454-1.861818 0.930909-3.258182 1.861818-4.18909 3.723636m51.2-9.309091c-0.930909 1.861818-0.930909 4.189091 0 6.050909 12.567273 31.650909 30.72 59.578182 54.923636 83.781819 24.203636 24.203636 52.130909 42.821818 84.247273 55.38909 0.465455 0.465455 1.396364 0.465455 2.792727 0.465455 3.723636 0 6.050909-1.861818 6.981818-5.12 0.930909-1.861818 0.930909-3.723636 0-6.050909-0.930909-1.861818-2.327273-3.258182-4.654545-3.723636-29.323636-11.636364-55.854545-28.858182-78.661819-51.665455-22.807273-22.807273-40.029091-49.338182-51.665454-78.661818-0.930909-1.861818-2.327273-3.258182-4.189091-4.189091-1.861818-0.465455-3.723636-0.465455-6.050909 0-1.396364 0.465455-2.792727 1.861818-3.723636 3.723636M605.090909 316.509091c-1.861818-0.930909-3.723636-0.930909-6.050909 0-1.861818 0.465455-3.723636 1.861818-4.189091 4.189091-0.930909 2.327273-0.930909 4.189091 0 6.050909 0.465455 1.861818 1.861818 3.723636 4.189091 4.189091 20.945455 9.309091 39.563636 21.876364 55.854545 38.632727 15.825455 15.825455 28.392727 34.443636 38.632728 55.389091 1.396364 3.258182 3.723636 4.654545 6.981818 4.654545 1.396364 0 2.327273-0.465455 2.792727-0.930909 1.861818-0.930909 3.258182-2.327273 4.189091-4.654545 0.465455-1.861818 0.465455-4.189091-0.465454-6.050909-9.774545-21.876364-23.272727-42.356364-41.425455-60.509091-18.152727-16.756364-38.167273-30.72-60.509091-40.96m140.101818 105.192727l2.792728-0.465454c2.327273-0.465455 3.723636-2.327273 4.654545-4.189091 0.930909-1.861818 0.930909-4.189091 0-6.050909-12.567273-32.116364-30.72-60.043636-54.923636-84.247273-25.134545-24.203636-53.061818-42.821818-84.247273-54.923636-1.861818-0.465455-3.723636-0.465455-6.050909 0.465454-1.861818 0.930909-3.258182 2.327273-4.189091 4.189091-0.465455 1.861818-0.465455 4.189091 0.465454 6.050909s2.327273 3.258182 4.189091 3.723636c29.789091 11.636364 56.32 28.858182 78.661819 51.665455 22.807273 22.807273 40.029091 48.872727 51.665454 78.661818 0.930909 3.258182 3.258182 5.12 6.981818 5.12m-132.654545-190.836363c0.930909 1.861818 2.327273 3.258182 4.189091 4.18909 40.029091 13.963636 74.938182 36.305455 105.192727 66.56 30.254545 29.789091 52.596364 64.698182 67.025455 105.192728 1.396364 3.723636 3.723636 5.585455 7.447272 5.585454l2.792728-0.465454c1.861818-0.930909 3.258182-2.327273 4.654545-4.189091 0.930909-1.861818 0.930909-3.723636 0.465455-5.585455-14.894545-42.356364-38.167273-79.592727-70.283637-111.243636-32.581818-32.116364-69.352727-55.854545-111.243636-70.283636-1.861818-0.930909-3.723636-0.930909-6.050909 0.465454-1.861818 0.930909-3.258182 2.327273-3.723637 4.189091-1.396364 1.861818-0.930909 3.723636-0.465454 5.585455z"
    fill="#F8F7F9"
    p-id="13790"
  ></path>
</svg>
