<svg
  t="1631605789230"
  class="icon"
  viewBox="0 0 1024 1024"
  version="1.1"
  xmlns="http://www.w3.org/2000/svg"
  p-id="8044"
  width="32"
  height="32"
>
  <path
    d="M501.6 96.7L284.3 302.8H149.7l-0.5-0.5c-19.6 0-35.6 4.2-47.9 12-15.6 9.6-25.1 25.3-28.8 45.9-0.2 1.1-0.6 2-0.7 3.2-0.3 1.7-0.2 3.7-0.4 5.5-0.4 3.9-0.8 7.7-0.8 11.8v261.8c0 4.2 0.5 8 0.8 11.8 0.2 1.8 0.1 3.8 0.4 5.5 0.2 1.1 0.5 2.1 0.7 3.2 3.7 20.6 13.2 36.3 28.8 45.9 12.3 7.8 28.3 12 47.9 12l0.5-0.5h134.6l78.1 74-0.3 0.3L501.6 927c58.2 54.3 120.4 30.4 120.4-59.9V156.6c0.2-91.3-63.2-113.1-120.4-59.9z m19.6 784.1c-28.4-27.7-67.4-68.5-109.1-110.9-4.1-4.3-8.2-8.5-12.3-12.8l-0.1 0.1c-30.6-30.9-62.3-62.1-92.2-89.2H175.6c-39.2 0-52.5-14.2-52.5-52.2V407.4c0-38.1 13.4-52.2 52.5-52.2h131.8c68.4-65.9 156.9-151.4 208.8-202 26.8-26.2 53.4-41.9 53.4 19.9V853h0.1c0 55.7-23.3 50.6-48.5 27.8zM796 512.5c0-1.2-0.3-2.3-0.3-3.4-0.3-21.8-3.4-43-9.9-62.6-5.2-16-13.1-30.4-22.1-44-1.1-1.7-2-3.5-3.2-5.2l-0.2 0.2c-1.8-2.6-3.3-5.4-5.2-7.9-1.2-1.4-2.5-2.7-3.9-3.9-4-3.3-8.6-5.1-13.2-5.1s-9.2 1.5-13.3 4.8c-1.3 1-2.6 2.3-3.9 3.9-5.4 6.5-8.2 15.2-8.3 24-0.1 8.8 2.5 17.6 7.8 24.1l-0.2 0.2c8.2 10 14.4 21.6 18.7 34.1 4.4 12.7 6.6 26.5 6.6 40.7 0 3.6-0.6 7.1-0.9 10.7-0.3 3.6-0.4 7.3-1 10.8-0.3 1.8-0.9 3.5-1.3 5.2-1.1 5-2.2 10.1-3.9 14.8 0 0.1-0.1 0.3-0.2 0.4-4.4 12.3-10.7 23.7-18.9 33.5l0.1 0.1s0 0.1-0.1 0.1c-5.4 6.5-8.1 15.2-8.1 24.1 0 8.9 2.7 17.6 8.1 24.1 1.3 1.6 2.6 2.9 3.9 3.9 4.1 3.3 8.7 5 13.3 5 4.5 0 9.2-1.7 13.2-5 1.5-1.2 2.8-2.5 3.9-3.9 2-2.5 3.5-5.4 5.4-7.9l0.2 0.2c1.8-2.4 3.2-5.2 4.8-7.7 3.1-4.7 6.3-9.4 9-14.4 3.1-5.8 5.5-12 8-18.2 1.1-2.9 2.7-5.5 3.7-8.5 2.9-8.5 4.8-17.4 6.6-26.4 0.4-1.8 1-3.5 1.3-5.3 0.9-5.5 1-11.3 1.5-17 0.5-5.8 1.5-11.4 1.6-17.3 0-0.4-0.1-0.8-0.1-1.2 0.4 0.1 0.5 0.1 0.5 0z m157.4 2.9c0-0.8-0.1-1.6-0.1-2.4v-0.6c0-3.2-0.3-6.5-0.4-9.7-0.2-6.8-0.3-13.6-0.9-20.4-0.1-0.9-0.2-1.7-0.3-2.5-6.4-70.5-33.9-139.1-82.9-193.4-0.7-0.7-1.3-1.4-2-2-5.4-5-12-7.5-18.7-7.6-6.6-0.1-13.3 2.3-18.8 7.2-0.7 0.6-1.3 1.2-2 1.9-6 6.4-9.1 15-9.2 23.7-0.1 8 2.7 15.8 7.7 22.1l-0.5 0.5c45.1 49.2 67.9 113.4 68.4 177.7 0 0.9 0.1 1.8 0.1 2.7 0 6.2-0.4 12.4-0.8 18.6-0.1 2.1-0.1 4.1-0.3 6.2-0.4 4.9-1.2 9.8-2 14.7-0.5 3.3-0.8 6.7-1.4 10-0.6 3.5-1.6 7-2.4 10.6-1 4.6-2 9.2-3.2 13.7-0.6 2.2-1.4 4.3-2.1 6.5-1.8 5.7-3.5 11.5-5.7 17.1-0.4 1-0.9 2-1.3 3-2.6 6.7-5.5 13.3-8.7 19.8v0.1c-10.9 22-25 42.7-42.3 61.2l0.4 0.4c-5.1 6.3-7.9 14.1-7.9 22.2 0 8.7 3 17.3 8.9 23.8l2 2c5.4 4.9 12.1 7.4 18.7 7.4 6.7 0 13.3-2.5 18.7-7.4 0.7-0.6 1.3-1.3 2-2 35.8-38.8 60.4-85.3 74.1-134.6 0.1-0.2 0.1-0.4 0.2-0.5 1.5-5.3 2.5-10.7 3.7-16 1.1-4.8 2.4-9.6 3.3-14.5 0.5-2.8 0.7-5.6 1.2-8.3 1.2-7.6 2.3-15.1 3-22.8 0.1-1 0.1-2 0.2-3.1 0.7-8.4 1.3-16.8 1.3-25.3z"
    p-id="8045"
    fill="#bfbfbf"
  ></path>
</svg>
