<svg
  t="1631605470744"
  class="icon"
  viewBox="0 0 1024 1024"
  version="1.1"
  xmlns="http://www.w3.org/2000/svg"
  p-id="6216"
  width="32"
  height="32"
>
  <path
    d="M624.597333 149.632l2.645334 361.237333 2.090666 363.434667c0.32 55.466667-65.258667 85.034667-106.624 48.106667L278.101333 703.978667 149.333333 704a64 64 0 0 1-64-64V384a64 64 0 0 1 64-64h121.813334L518.272 102.08c41.173333-36.288 105.92-7.338667 106.325333 47.530667z m-64 0.469333L295.338667 384 149.333333 384v256h153.173334L565.333333 874.666667l-2.090666-363.434667-2.645334-361.130667zM918.634667 404.053333a32 32 0 0 1 0 45.269334l-62.656 62.634666 62.677333 62.784a32 32 0 0 1-42.88 47.424l-2.432-2.197333-62.634667-62.741333-62.741333 62.762666a32 32 0 0 1-45.269333-45.269333l62.805333-62.805333-62.506667-62.613334a32 32 0 0 1 42.88-47.424l2.410667 2.197334 62.464 62.592 62.613333-62.613334a32 32 0 0 1 45.269334 0z"
    fill="#bfbfbf"
    p-id="6217"
  ></path>
</svg>
