<svg
  t="1631863326568"
  class="icon"
  viewBox="0 0 1030 1024"
  version="1.1"
  xmlns="http://www.w3.org/2000/svg"
  p-id="22267"
  width="64"
  height="64"
>
  <path
    d="M299.10498 734.112122m-289.887878 0a289.887878 289.887878 0 1 0 579.775756 0 289.887878 289.887878 0 1 0-579.775756 0Z"
    fill="#C5E3FF"
    p-id="22268"
  ></path>
  <path
    d="M903.877116 443.322571m-126.33441 0a126.33441 126.33441 0 1 0 252.668819 0 126.33441 126.33441 0 1 0-252.668819 0Z"
    fill="#FFDEA4"
    p-id="22269"
  ></path>
  <path
    d="M723.492418 43.280305m-43.280306 0a43.280305 43.280305 0 1 0 86.560611 0 43.280305 43.280305 0 1 0-86.560611 0Z"
    fill="#C5E3FF"
    p-id="22270"
  ></path>
  <path
    d="M401.344683 931.478329a401.29459 401.29459 0 1 1 391.877115-488.306037l-19.586342 4.307994a381.608062 381.608062 0 1 0 8.966638 82.65336c0-10.769983-0.450837-21.690246-1.35251-32.410136l20.037179-1.653067c0.951766 11.321006 1.452695 22.79229 1.452695 34.113296a401.795519 401.795519 0 0 1-401.394775 401.29459z"
    fill="#32426B"
    p-id="22271"
  ></path>
  <path
    d="M401.344683 530.133646m-102.18961 0a102.18961 102.18961 0 1 0 204.379219 0 102.18961 102.18961 0 1 0-204.379219 0Z"
    fill="#5AA3F2"
    p-id="22272"
  ></path>
  <path
    d="M401.344683 642.341845a112.208199 112.208199 0 1 1 112.208198-112.208199 112.358478 112.358478 0 0 1-112.208198 112.208199z m0-204.429312a92.17102 92.17102 0 1 0 92.17102 92.17102 92.271206 92.271206 0 0 0-92.17102-92.120927zM109.387966 243.351531l28.963741-179.227551 19.836807 3.205949-28.963741 179.227551z"
    fill="#32426B"
    p-id="22273"
  ></path>
  <path
    d="M245.455435 35.666177L142.514431 19.285784a21.539967 21.539967 0 0 0-24.645729 17.883182 21.539967 21.539967 0 0 0 17.883181 24.645729l103.141376 16.330301a21.539967 21.539967 0 0 0 24.645729-18.033461A21.539967 21.539967 0 0 0 245.455435 35.666177z"
    fill="#FFC145"
    p-id="22274"
  ></path>
  <path
    d="M242.349672 88.464142a31.859114 31.859114 0 0 1-5.009294-0.400743l-103.141376-16.380393a31.558556 31.558556 0 1 1 10.018589-62.315625l102.991097 16.380393a31.558556 31.558556 0 0 1-5.009295 62.716368zM139.108111 29.003816a11.521378 11.521378 0 0 0-1.753253 22.892476L240.44614 68.276685a11.521378 11.521378 0 1 0 3.606692-22.742197L140.911457 29.154095z"
    fill="#32426B"
    p-id="22275"
  ></path>
  <path
    d="M79.309689 234.860455m-6.353509 40.024045a40.525193 40.525193 0 1 0 12.707017-80.048091 40.525193 40.525193 0 1 0-12.707017 80.048091Z"
    fill="#5AA3F2"
    p-id="22276"
  ></path>
  <path
    d="M79.447412 285.529792a51.194991 51.194991 0 0 1-8.014871-0.651209 50.543782 50.543782 0 1 1 57.807259-42.17826A50.543782 50.543782 0 0 1 79.447412 285.529792z m0-81.000294a30.506604 30.506604 0 0 0-5.009294 60.612465 30.506604 30.506604 0 0 0 35.065062-25.347031 30.456511 30.456511 0 0 0-25.347031-35.065062 30.706976 30.706976 0 0 0-4.859016-0.400744zM682.416202 726.898738l-65.371294-179.483025 222.162215-80.900108 66.523432 182.688974-18.834948 6.862733-59.610606-163.854026-184.542412 67.174641 58.508561 160.69817-18.834948 6.812641z"
    fill="#32426B"
    p-id="22277"
  ></path>
  <path
    d="M828.988162 432.853145l-225.718815 82.152432a21.539967 21.539967 0 0 0-12.873887 27.601213 21.539967 21.539967 0 0 0 27.601214 12.873887l225.718814-82.152431A21.539967 21.539967 0 0 0 856.589375 445.827218a21.539967 21.539967 0 0 0-27.601213-12.974073z"
    fill="#5AA3F2"
    p-id="22278"
  ></path>
  <path
    d="M610.683103 566.75159a31.558556 31.558556 0 0 1-10.820076-61.21358l225.718814-82.152431a31.558556 31.558556 0 1 1 21.59006 59.259955l-225.718814 82.152431a31.358184 31.358184 0 0 1-10.769984 1.953625z m221.711379-124.531064l-225.718814 82.152432a11.521378 11.521378 0 0 0 7.864592 21.640152l225.718814-82.152431a11.521378 11.521378 0 0 0-7.864592-21.640153z"
    fill="#32426B"
    p-id="22279"
  ></path>
  <path
    d="M652.544079 734.097406m-38.081225 13.860432a40.525193 40.525193 0 1 0 76.16245-27.720864 40.525193 40.525193 0 1 0-76.16245 27.720864Z"
    fill="#FFC145"
    p-id="22280"
  ></path>
  <path
    d="M652.560806 784.655905a50.694061 50.694061 0 1 1 17.332159-3.05567 50.343411 50.343411 0 0 1-17.332159 3.05567z m0-81.050387a30.506604 30.506604 0 1 0 28.603072 20.037178 30.506604 30.506604 0 0 0-28.603072-20.037178z"
    fill="#32426B"
    p-id="22281"
  ></path>
  <path
    d="M856.489388 660.146005m-38.081225 13.860432a40.525193 40.525193 0 1 0 76.16245-27.720865 40.525193 40.525193 0 1 0-76.16245 27.720865Z"
    fill="#FFC145"
    p-id="22282"
  ></path>
  <path
    d="M856.589375 710.718716a50.543782 50.543782 0 1 1 47.488113-67.825848 50.593875 50.593875 0 0 1-47.488113 67.825848z m0-81.050386a30.556697 30.556697 0 1 0 12.873887 2.855298 30.556697 30.556697 0 0 0-12.873887-2.855298z"
    fill="#32426B"
    p-id="22283"
  ></path>
</svg>
