<svg
  t="1637220364888"
  class="icon"
  viewBox="0 0 1075 1024"
  version="1.1"
  xmlns="http://www.w3.org/2000/svg"
  p-id="37398"
  width="32"
  height="32"
>
  <path
    d="M724.736 610.2016l226.3552 264.704c22.9376 26.7264 28.16 64.4608 13.4656 96.512a90.1632 90.1632 0 0 1-81.92 52.5824H582.656v-271.0528H492.4928V1024H192.5632a90.1632 90.1632 0 0 1-81.92-52.5824 90.4704 90.4704 0 0 1 13.4656-96.5632l226.4064-264.6016A358.5536 358.5536 0 0 0 537.6 662.528c68.5568 0 132.608-19.0976 187.136-52.3776zM537.6 0a300.9024 300.9024 0 0 1 300.5952 301.1584 300.9024 300.9024 0 0 1-300.5952 301.2096 300.9024 300.9024 0 0 1-300.5952-301.2096A300.9024 300.9024 0 0 1 537.6 0z"
    fill="#3DE5D4"
    p-id="37399"
  ></path>
</svg>
