<svg
  t="1637219345704"
  class="icon"
  viewBox="0 0 1024 1024"
  version="1.1"
  xmlns="http://www.w3.org/2000/svg"
  p-id="18365"
  width="32"
  height="32"
>
  <path d="M496.3 738.3h62.2v121.8h-62.2z" fill="#F8B62D" p-id="18366"></path>
  <path
    d="M558.5 870.4h-62.2c-5.7 0-10.4-4.7-10.4-10.4V738.3c0-5.7 4.7-10.4 10.4-10.4h62.2c5.7 0 10.4 4.7 10.4 10.4V860c0 5.8-4.6 10.4-10.4 10.4z m-51.8-20.8h41.4v-101h-41.4v101z"
    fill="#3E3A39"
    p-id="18367"
  ></path>
  <path
    d="M717.7 874.8H371.1c-10.3 0-18.7 8.4-18.7 18.7 0 10.3 8.4 18.7 18.7 18.7h346.6c10.3 0 18.7-8.4 18.7-18.7 0-10.3-8.4-18.7-18.7-18.7zM807.2 324.8c-0.3 0-0.6-0.1-0.9-0.1H280.2c-15.3 0-27.7 12.4-27.7 27.7v357.4c0 1.8 0.2 3.5 0.5 5.2 2.4 12.8 13.7 22.6 27.2 22.6h128.9c372.5-71.7 404-306.3 398.1-412.8z"
    fill="#FCEE21"
    p-id="18368"
  ></path>
  <path
    d="M806.3 737.7c15.3 0 27.7-12.4 27.7-27.7V352.5c0-15-11.9-27.2-26.8-27.6C813 431.4 781.6 666 409.1 737.7h397.2z"
    fill="#F8B62D"
    p-id="18369"
  ></path>
  <path
    d="M710.3 922.7H344.5c-20.1 0-36.5-16.4-36.5-36.5s16.4-36.5 36.5-36.5h365.8c20.1 0 36.5 16.4 36.5 36.5s-16.4 36.5-36.5 36.5z m-365.8-52.3c-8.7 0-15.7 7-15.7 15.7s7 15.7 15.7 15.7h365.8c8.7 0 15.7-7 15.7-15.7s-7-15.7-15.7-15.7H344.5zM220.7 434.5c-5.7 0-10.4-4.7-10.4-10.4v-22.9c0-5.7 4.7-10.4 10.4-10.4s10.4 4.7 10.4 10.4v22.9c0 5.7-4.6 10.4-10.4 10.4z"
    fill="#3E3A39"
    p-id="18370"
  ></path>
  <path d="M268.7 654.1h565.4" fill="#FCEE21" p-id="18371"></path>
  <path
    d="M834.1 664.5H268.7c-5.7 0-10.4-4.7-10.4-10.4s4.7-10.4 10.4-10.4H834c5.7 0 10.4 4.7 10.4 10.4s-4.6 10.4-10.3 10.4z"
    fill="#3E3A39"
    p-id="18372"
  ></path>
  <path
    d="M156.1 250.1h-12.3v-12.3c0-3.3-2.7-6-6-6s-6 2.7-6 6v12.3h-12.3c-3.3 0-6 2.7-6 6s2.7 6 6 6h12.3v12.3c0 3.3 2.7 6 6 6s6-2.7 6-6V262h12.3c3.3 0 6-2.7 6-6s-2.7-5.9-6-5.9zM953.5 462.8h-12.3v-12.3c0-3.3-2.7-6-6-6s-6 2.7-6 6v12.3h-12.3c-3.3 0-6 2.7-6 6s2.7 6 6 6h12.3v12.3c0 3.3 2.7 6 6 6s6-2.7 6-6v-12.3h12.3c3.3 0 6-2.7 6-6s-2.7-6-6-6z"
    fill="#F7E42F"
    p-id="18373"
  ></path>
  <path
    d="M849.6 182.6h-14.3v-14.3c0-3.8-3.1-6.9-6.9-6.9s-6.9 3.1-6.9 6.9v14.3h-14.3c-3.8 0-6.9 3.1-6.9 6.9s3.1 6.9 6.9 6.9h14.3v14.3c0 3.8 3.1 6.9 6.9 6.9s6.9-3.1 6.9-6.9v-14.3h14.3c3.8 0 6.9-3.1 6.9-6.9s-3.1-6.9-6.9-6.9z"
    fill="#F8B62D"
    p-id="18374"
  ></path>
  <path
    d="M278.8 227.8m-10.4 0a10.4 10.4 0 1 0 20.8 0 10.4 10.4 0 1 0-20.8 0Z"
    fill="#F8B62D"
    p-id="18375"
  ></path>
  <path
    d="M921.4 325.7m-13.9 0a13.9 13.9 0 1 0 27.8 0 13.9 13.9 0 1 0-27.8 0Z"
    fill="#F8B62D"
    p-id="18376"
  ></path>
  <path
    d="M712.2 228.3m-13.9 0a13.9 13.9 0 1 0 27.8 0 13.9 13.9 0 1 0-27.8 0Z"
    fill="#F7E42F"
    p-id="18377"
  ></path>
  <path
    d="M92.7 465.3c-15.5 0-28.2-12.6-28.2-28.2 0-15.5 12.6-28.2 28.2-28.2s28.2 12.6 28.2 28.2-12.7 28.2-28.2 28.2z m0-42.5c-7.9 0-14.3 6.4-14.3 14.3s6.4 14.3 14.3 14.3S107 445 107 437.1s-6.4-14.3-14.3-14.3z"
    fill="#47B7F8"
    p-id="18378"
  ></path>
  <path
    d="M542.8 234.6c-15.5 0-28.2-12.6-28.2-28.2 0-15.5 12.6-28.2 28.2-28.2 15.5 0 28.2 12.6 28.2 28.2s-12.6 28.2-28.2 28.2z m0-42.5c-7.9 0-14.3 6.4-14.3 14.3s6.4 14.3 14.3 14.3 14.3-6.4 14.3-14.3c0.1-7.8-6.4-14.3-14.3-14.3z"
    fill="#F8B62D"
    p-id="18379"
  ></path>
  <path
    d="M380.6 110.4c-1.5-1.5-3.9-1.5-5.4 0-0.7 0.7-1.1 1.7-1.1 2.7 0 1 0.4 2 1.1 2.7l12.3 12.3c0.7 0.7 1.7 1.1 2.7 1.1s2-0.4 2.7-1.1c1.5-1.5 1.5-3.9 0-5.4l-12.3-12.3zM413.1 143c-0.7-0.7-1.7-1.1-2.7-1.1-1 0-2 0.4-2.7 1.1-1.5 1.5-1.5 3.9 0 5.4l12.3 12.3c0.7 0.7 1.7 1.1 2.7 1.1 1 0 2-0.4 2.7-1.1 0.7-0.7 1.1-1.7 1.1-2.7 0-1-0.4-2-1.1-2.7L413.1 143zM410.4 129.3c1 0 2-0.4 2.7-1.1l12.3-12.3c0.7-0.7 1.1-1.7 1.1-2.7 0-1-0.4-2-1.1-2.7-1.5-1.5-3.9-1.5-5.4 0l-12.3 12.3c-1.5 1.5-1.5 3.9 0 5.4 0.7 0.7 1.7 1.1 2.7 1.1zM387.5 143l-12.3 12.3c-0.7 0.7-1.1 1.7-1.1 2.7 0 1 0.4 2 1.1 2.7 0.7 0.7 1.7 1.1 2.7 1.1 1 0 2-0.4 2.7-1.1l12.3-12.3c1.5-1.5 1.5-3.9 0-5.4-1.4-1.5-4-1.5-5.4 0zM389.9 135.6c0-2.1-1.7-3.8-3.8-3.8h-17.4c-2.1 0-3.8 1.7-3.8 3.8s1.7 3.8 3.8 3.8H386c2.2 0 3.9-1.7 3.9-3.8zM432 131.7h-17.4c-2.1 0-3.8 1.7-3.8 3.8s1.7 3.8 3.8 3.8H432c2.1 0 3.8-1.7 3.8-3.8s-1.7-3.8-3.8-3.8zM400.3 100c-2.1 0-3.8 1.7-3.8 3.8v17.4c0 2.1 1.7 3.8 3.8 3.8s3.8-1.7 3.8-3.8v-17.4c0.1-2-1.7-3.8-3.8-3.8zM400.3 146c-2.1 0-3.8 1.7-3.8 3.8v17.4c0 2.1 1.7 3.8 3.8 3.8s3.8-1.7 3.8-3.8v-17.4c0.1-2.1-1.7-3.8-3.8-3.8z"
    fill="#FAEE00"
    p-id="18380"
  ></path>
  <path
    d="M876.2 924h-24.8c-5.7 0-10.4-4.7-10.4-10.4s4.7-10.4 10.4-10.4h24.8c5.7 0 10.4 4.7 10.4 10.4s-4.7 10.4-10.4 10.4zM214.4 924h-31.7c-5.7 0-10.4-4.7-10.4-10.4s4.7-10.4 10.4-10.4h31.7c5.7 0 10.4 4.7 10.4 10.4s-4.7 10.4-10.4 10.4zM820.8 924H249.3c-5.7 0-10.4-4.7-10.4-10.4s4.7-10.4 10.4-10.4h571.4c5.7 0 10.4 4.7 10.4 10.4 0.1 5.7-4.6 10.4-10.3 10.4z"
    fill="#3E3A39"
    p-id="18381"
  ></path>
  <path
    d="M289.2 394.1c-5.7 0-10.4-4.7-10.4-10.4v-9.6c0-5.7 4.7-10.4 10.4-10.4s10.4 4.7 10.4 10.4v9.6c0 5.8-4.7 10.4-10.4 10.4zM289.2 489.4c-5.7 0-10.4-4.7-10.4-10.4v-59.5c0-5.7 4.7-10.4 10.4-10.4s10.4 4.7 10.4 10.4V479c0 5.8-4.7 10.4-10.4 10.4z"
    fill="#FFFFFF"
    p-id="18382"
  ></path>
  <path
    d="M806.3 748.1H248.5c-21 0-38.1-17.1-38.1-38.1V458.7c0-5.7 4.7-10.4 10.4-10.4s10.4 4.7 10.4 10.4v251.2c0 9.6 7.8 17.3 17.3 17.3h557.9c9.6 0 17.3-7.8 17.3-17.3v-380c0-9.6-7.8-17.3-17.3-17.3H248.5c-9.6 0-17.3 7.8-17.3 17.3v36.6c0 5.7-4.7 10.4-10.4 10.4s-10.4-4.7-10.4-10.4v-36.6c0-21 17.1-38.1 38.1-38.1h557.9c21 0 38.1 17.1 38.1 38.1v380c0 21-17.1 38.2-38.2 38.2z"
    fill="#3E3A39"
    p-id="18383"
  ></path>
</svg>
