<svg
  t="1637202662333"
  class="icon"
  viewBox="0 0 1024 1024"
  version="1.1"
  xmlns="http://www.w3.org/2000/svg"
  p-id="21454"
  width="200"
  height="200"
>
  <path
    d="M366.943801 543.945489l-4.152216-4.147096c0-2.764731 0.921577-5.073793 2.764731-6.916946l-1.382366-4.152216c13.833893-34.123943 25.824632-88.307543 35.972218-162.55592 10.142465-74.238137 21.672416-127.50528 34.584731-159.786069 62.718426 19.368474 108.827988 35.511429 138.338928 48.423745l2.769851-4.152216c23.981478 9.220889 35.972217 25.824632 35.972217 49.80099 0 40.585221-32.741578 86.699904-98.224735 138.344047l-146.643359 105.141681zM252.115323 797.118015l-1.382365-1.382366-1.382365-2.76985 4.147095-19.368474c0.921577-2.764731 0-5.529461-2.76473-8.299312v-4.147095c0.921577-2.76985 1.843154-4.613004 2.76473-5.539701v6.916946c0.921577 2.764731 1.382365 4.613004 1.382366 5.534581 0 2.764731-0.460788 7.377735-1.382366 13.833893v12.451527l-1.382365 2.764731z m11.765465 119.615557l6.220644-85.030825 2.76473 24.903055v12.451527c-3.686307 18.441777-5.068673 32.27567-4.147096 41.501678-1.843154 2.764731-3.686307 5.068673-5.534581 6.911827l0.696303-0.737262z m3.404714 14.325401l0.460789-1.61788c0.834539-2.355141 2.078668-4.495247 3.737506-6.430558l1.382365-2.764731v-2.76985l-1.382365 1.382365-1.382365 1.382365-0.087038-0.168955-1.295328-2.595775c2.764731-15.677047 5.068673-30.437636 6.911827-44.271529l1.387485 4.147096c-1.843154 2.76985-2.764731 6.000489-2.764731 9.686797 0.921577 3.686307 2.303942 6.456158 4.147096 8.304431l1.382366-8.304431-1.20317 66.292096 0.486388-8.795939c0.440309-6.123366 1.105892-12.175054 1.99163-18.149945l1.495002-8.908576 4.147096-5.534581c0 3.686307 0.921577 12.912316 2.764731 27.667785 1.848274 11.069162 2.76985 19.829262 2.76985 26.28542 0 4.607884-0.691183 11.529951-2.073548 20.75084-1.382365 9.226008-2.073548 16.142955-2.073548 20.750839 0 4.613004 1.382365 10.147585 4.147096 16.603743 5.534581-75.625622 11.529951-141.339172 17.986109-197.140652 6.456158-55.79636 15.216258-101.680648 26.28542-137.652865 11.990739-59.948575 19.368474-105.141681 22.133204-135.574197 36.893794-24.903055 69.169464-38.736948 96.84237-41.501678l-17.986109 9.681677h4.152216l1.382365 4.147096-29.050151 15.221378c14.75547-2.764731 25.824632-9.220889 33.202367-19.368474 11.990739-0.921577 34.354338-6.456158 67.095916-16.603743 32.741578-10.142465 50.497293-15.216258 53.262023-15.216258h4.147096l1.382365 4.147096v-4.147096l5.539701 2.76473 1.382365-2.76473h15.216258c8.299312-6.451038 19.829262-9.220889 34.584732-8.299312 19.368474-8.299312 37.354582-14.294681 53.958326-17.986109l4.147096 4.147096c2.764731-3.686307 12.681922-9.912071 29.746453-18.672171 17.059412-8.7601 28.824876-16.834137 35.275915-24.211872 15.677047-35.04552 30.437636-55.79636 44.271529-62.257638-3.686307-11.058922-3.225519-18.902566 1.382365-23.515569l-1.382365-11.064043h4.147096c-1.843154-40.580101-12.912316-79.777838-33.202367-117.593208-28.589362-50.727687-69.630252-91.307788-123.12267-121.745424-23.981478-13.833893-77.473895-36.888674-160.482372-69.169464-19.363354 1.843154-33.202367 6.451038-41.501678 13.833893-17.5202-23.054781-31.359213-34.123943-41.501678-33.202367h-8.299312l-4.152216 5.529461-11.069162-5.529461-9.681677 5.529461c-12.912316-4.607884-22.599113-6.451038-29.05527-5.529461-2.764731 1.843154-9.215769 2.764731-19.363354 2.764731h-6.922067c-25.819512 2.764731-42.884044 19.368474-51.183355 49.806109-25.824632 82.08178-40.580101 184.45873-44.271529 307.120612-7.377735 71.939314-13.833893 127.280005-19.368474 166.016953C188.941229 702.113679 184.328225 824.7858 184.328225 893.955264c0 54.419114 0.460788 90.386211 1.382365 107.911532l8.299312-113.446113c3.691427 41.506798 5.073793 72.866011 4.152215 94.077639 5.529461-37.815371 8.299312-67.32631 8.299312-88.543058l6.911827 29.019432 4.157335-59.451948c0 4.915077 0.363511 13.480622 1.095653 25.686395l0.286712 4.746121v29.055271l-1.382365 81.620991 6.916947-96.842369-2.764731 102.37695c4.607884-93.150942 9.681677-153.560306 15.216258-181.233211 0 37.600336-0.645104 71.70892-1.940431 102.325752l-0.358391 7.766845 0.511987-6.205284c4.362131-53.825209 8.498987-85.793687 12.405449-95.895193l0.450548-1.075173-2.76473-2.764731 1.382365-2.764731c0.921577-0.921577 2.303942-1.382365 4.147096-1.382365l-2.764731-26.29054 5.529461-2.764731v37.354583c-2.764731 7.372615-4.147096 25.824632-4.147095 55.335571l2.76473-1.382365c-0.921577 3.686307-1.843154 5.99025-2.76473 6.911826l4.147095 5.539701-4.147095 13.833893h1.382365v-2.764731h2.76473c1.843154 5.529461 3.230639 10.603254 4.152216 15.216258l-1.382365 33.202367 5.529461-76.09153v58.110541l2.047949-27.903299c0.614385 0.230394 1.18269 1.20829 1.710037 2.938806l0.39423 1.443804c0.266233 1.710037 0.511987 3.368875 0.737261 4.966275l0.599025 4.464528zM788.473061 846.652771l0.332791 0.527347c10.198784 16.429668 26.367338 35.711104 48.505663 57.844308l-48.843574-58.371655z m0 0l-2.099148-3.522471a108.449118 108.449118 0 0 1-5.785455-11.427553c-0.921577-1.843154 0-2.764731 2.764731-2.764731h2.769851c15.677047 21.211628 31.359213 40.580101 47.036259 58.100302l-35.967097-49.80099 2.76473-1.382366 4.147096 1.382366-16.598623-20.750839c-20.290051-32.28079-37.349463-61.33606-51.183355-87.160693l-58.110542-67.787098a4826.897085 4826.897085 0 0 1-65.022368-77.473896c-25.819512-30.432516-51.644144-50.261778-77.463656-59.487786l-12.456647 6.916946-6.911826 17.986108-15.221378-5.529461v8.294192l-4.147096 4.152216v1.382365c-3.691427 0-5.770095 0.460788-6.230884 1.382365l-0.691182 1.382366h-1.382366l-4.147096-1.382366 5.529462 6.922067-10.895087-1.361886 0.220154 0.496627c0.343031 0.921577 0.921577 2.764731 1.725397 5.529462l0.650224 2.252743-2.764731-2.764731v-2.76985l-1.382365-1.382365-1.382365 2.76473c-11.069162 9.220889-19.373594 18.907685-24.908175 29.055271H444.417696c-2.76985 11.985619-4.152216 18.441777-4.152215 19.363354 0 31.359213 9.681677 58.110541 29.05015 80.243746 50.727687 47.957836 89.464634 83.003357 116.210843 105.136561 45.193106 43.349952 104.220104 101.455373 177.080996 174.316265v-8.299312l11.064042 8.294192c-22.133204-23.976358-36.427886-43.344832-42.884044-58.100302l6.911827 6.916946c-5.529461-9.220889-8.294192-13.373104-8.294192-12.451527 0-0.921577 0.460788-1.382365 1.382365-1.382365h4.147096l9.686797 17.986108c-0.921577-6.456158-0.921577-9.686797 0-9.686797l21.595618 24.549784c-5.017474-6.143846-11.299556-14.3254-18.830887-24.549784-11.064042-14.75547-20.750839-25.363843-29.050151-31.820001 2.764731-6.451038 4.607884-10.603254 5.529461-12.446408 2.76985-0.921577 4.613004 0 5.539701 2.764731l6.911827 1.382365 2.76985 2.764731 1.382365 4.152216c-0.501747 3.020724 0.77822 6.451038 3.839904 10.290941l0.266233 0.322552-0.194555-1.909712c-0.614385-5.918571-0.972776-8.662823-1.095652-8.232753l-0.051199 0.281593v-0.752621h1.382365l35.905659 44.19985-4.679562-6.082407c-27.88794-36.479084-45.321102-65.119645-52.289248-85.911444l-1.070053-3.389355 22.138324 31.814882-2.76473-19.368474c19.363354 16.603743 34.123943 31.359213 44.266409 44.271529l-29.050151-41.501678 4.147096-2.764731c11.990739 13.828773 20.750839 24.437147 26.28542 31.814881l-6.911827-11.064042 13.828773 11.064042-17.479241-37.44674-7.423814-6.819669 4.152216-6.922066 14.796429 17.714756z"
    fill="#061161"
    p-id="21455"
  ></path>
</svg>
