<svg
  t="1637994829646"
  class="icon"
  viewBox="0 0 1024 1024"
  version="1.1"
  xmlns="http://www.w3.org/2000/svg"
  p-id="8271"
  width="16"
  height="16"
>
  <path d="M273.9 763.9h150v50h-150z" fill="#01D89C" p-id="8272"></path>
  <path
    d="M668.648759 517.077365a183.7 183.7 0 1 0 70.103225-360.649828 183.7 183.7 0 1 0-70.103225 360.649828Z"
    fill="#FF6BF4"
    p-id="8273"
  ></path>
  <path
    d="M831.6 284.5c-1.6 0-3-0.9-3.7-2.4-18.6-43.8-57.6-75.4-104.3-84.4-2.2-0.4-3.6-2.5-3.2-4.7 0.4-2.2 2.5-3.6 4.7-3.2 49.3 9.6 90.4 42.9 110.1 89.2 0.9 2-0.1 4.4-2.1 5.2-0.4 0.2-1 0.3-1.5 0.3z"
    fill="#FFFFFF"
    p-id="8274"
  ></path>
  <path
    d="M631.948694 491.348222a123 123 0 1 0 46.939012-241.480287 123 123 0 1 0-46.939012 241.480287Z"
    fill="#D01AC3"
    p-id="8275"
  ></path>
  <path
    d="M524.1 725.7c12.7-48.5 4.3-99.1-21.2-140.2l66.2-142.1L392 360.8l-65.9 141.3c-48.1 6.6-92.8 32.5-122 73.6-1.3 1.7-2.5 3.5-3.4 5.5-6.3 13.6-0.5 29.7 13.1 36l272.3 127s0.1 0 0.1 0.1c13.6 6.3 29.7 0.5 36-13.1 0.9-1.8 1.5-3.7 1.9-5.5z"
    fill="#FFC715"
    p-id="8276"
  ></path>
  <path
    d="M600.9 438.7c-2.6 0-5.3-0.6-7.8-1.7L345.6 321.5c-9.3-4.3-13.3-15.4-9-24.7l27.2-58.3c2.1-4.5 5.8-7.9 10.5-9.6 4.7-1.7 9.7-1.5 14.2 0.6L636 345c9.3 4.3 13.3 15.4 9 24.7L617.8 428c-3.2 6.7-9.9 10.7-16.9 10.7z m-4.4-9c5.3 2.5 11.6 0.2 14-5.1l27.2-58.3c1.2-2.5 1.3-5.4 0.3-8.1-1-2.7-2.9-4.8-5.4-6L385.1 236.8c-2.5-1.2-5.4-1.3-8.1-0.3-2.7 1-4.8 2.9-6 5.4l-27.2 58.3c-2.5 5.3-0.2 11.6 5.1 14l247.6 115.5z"
    fill=""
    p-id="8277"
  ></path>
  <path
    d="M488 724.3c-4.5 0-8.9-1-13.1-2.9h-0.1l-272.3-127c-15.5-7.3-22.3-25.8-15-41.3 1-2.2 2.3-4.3 3.8-6.2 28.8-40.3 73.3-67.5 122.5-74.8l65-139.4c0.9-2 3.3-2.9 5.3-1.9l177.1 82.6c1 0.4 1.7 1.3 2.1 2.3s0.3 2.1-0.1 3.1l-65.3 140.1c25.5 42.4 33 93.8 20.5 141.4-0.5 2.1-1.2 4.2-2.1 6.2-3.5 7.5-9.7 13.2-17.6 16.1-3.5 1-7.1 1.7-10.7 1.7zM478 714s0.1 0 0.1 0.1c0 0 0.1 0.1 0.2 0.1 5.5 2.6 11.8 2.9 17.6 0.7 5.8-2.1 10.4-6.4 13-11.9 0.7-1.5 1.2-3.1 1.6-4.7v-0.1c12.1-46.2 4.6-96.2-20.7-137.1-0.7-1.1-0.8-2.6-0.2-3.8l64.6-138.4-169.9-79.2-64.2 137.7c-0.6 1.2-1.7 2.1-3.1 2.3-47.9 6.5-91.4 32.8-119.3 71.9 0 0.1-0.1 0.1-0.1 0.2-1.2 1.4-2.1 3-2.9 4.7-5.4 11.5-0.4 25.3 11.2 30.7L478 714z"
    fill=""
    p-id="8278"
  ></path>
  <path
    d="M241.8 869.7c-0.6 0-1.1-0.1-1.7-0.4-1.7-0.8-2.6-2.6-2.2-4.4L286.4 630c0.2-1.2 1-2.2 2.1-2.8 1.1-0.6 2.4-0.6 3.5-0.1L392.2 674c1.1 0.5 1.9 1.5 2.2 2.7 0.3 1.2 0 2.4-0.8 3.4L244.9 868.2c-0.7 1-1.9 1.5-3.1 1.5z m51.4-233.1L249.1 850l135.1-170.9-91-42.5z"
    fill=""
    p-id="8279"
  ></path>
  <path
    d="M399.1 413.7c-4.2-1.9-6.1-7-4.2-11.2l0.8-1.7c1.9-4.2 7-6.1 11.2-4.2 4.2 1.9 6.1 7 4.2 11.2l-0.8 1.7c-2 4.2-7 6.1-11.2 4.2zM355.8 508.1c-4.2-1.9-6.1-7-4.2-11.2l30.6-66.8c1.9-4.2 7-6.1 11.2-4.2 4.2 1.9 6.1 7 4.2 11.2L367 503.9c-1.9 4.2-7 6.1-11.2 4.2z"
    fill="#FFFFFF"
    p-id="8280"
  ></path>
  <path
    d="M635.997 846.69l24.28-95.67 95.67 24.281-24.28 95.67z"
    fill="#5D93FF"
    p-id="8281"
  ></path>
  <path
    d="M581.5 713.4l42.5 0.1c4.4 0 8-3.6 8-8s-3.6-8-8-8l-42.5-0.1c-4.4 0-8 3.6-8 8s3.6 8 8 8zM581.5 757.7l77.1 0.1c4.4 0 8-3.6 8-8s-3.6-8-8-8l-77.1-0.1c-4.4 0-8 3.6-8 8s3.6 8 8 8zM581.5 802l102.4 0.2c4.4 0 8-3.6 8-8s-3.6-8-8-8l-102.3-0.2c-4.4 0-8 3.6-8 8-0.1 4.4 3.5 8 7.9 8z"
    fill=""
    p-id="8282"
  ></path>
</svg>
