<svg
  t="1637221010745"
  class="icon"
  viewBox="0 0 1024 1024"
  version="1.1"
  xmlns="http://www.w3.org/2000/svg"
  p-id="2538"
  width="32"
  height="32"
>
  <path
    d="M396.54799117 185.30045937c80.41354636 28.38177436 121.80437445 120.622541 121.80437446 120.62254104l2.36366689 67.40449259s-61.49532543 27.19994092-72.13626936-53.2180484c-10.64538688-80.41354636-57.94538218-106.43165386-57.94538212-106.43165384s-74.4999362-56.75910571 5.91361013-28.37733139z"
    fill="#99C838"
    p-id="2539"
  ></path>
  <path
    d="M388.27071414 208.52837366s18.32730419 5.3315794 36.65905141 39.45813057c18.32730419 34.12655117 40.96874475-20.26000173 6.46454002-42.65707821-34.50420473-22.39707648-37.73425322-22.39707648-37.7342532-22.39707651l-5.38933823 25.59602415z"
    fill="#78BC2E"
    p-id="2540"
  ></path>
  <path
    d="M339.78444247 171.10957222m-102.88171054 0a102.88171055 102.88171055 0 1 0 205.76342108 0 102.88171055 102.88171055 0 1 0-205.76342108 0Z"
    fill="#99C838"
    p-id="2541"
  ></path>
  <path
    d="M339.78444247 171.10957222m-40.20899466 0a40.20899466 40.20899466 0 1 0 80.41798934 0 40.20899466 40.20899466 0 1 0-80.41798934 0Z"
    fill="#78BC2E"
    p-id="2542"
  ></path>
  <path
    d="M523.08414235 795.5041651s-55.58171526 96.96810038-36.65905138 125.34987475c18.91822094 28.38621733 63.85454932-63.85454932 67.40449261-65.04082576 3.5499433-1.18183344 40.20899466-3.5499433 37.84532783-8.27727701s-4.72733375 76.86804606 10.64538683 80.41798934c15.37272061 3.5455003 43.75449498-81.59537979 40.20899468-132.44976132-3.5499433-50.84993855-5.91361017-126.53170819-5.91361016-126.5317082l-137.17709503 4.72733372-22.4726072 29.5636078 46.11816182 92.24076668z"
    fill="#99C838"
    p-id="2543"
  ></path>
  <path
    d="M494.70236801 716.27245216s-43.75893794 74.50437918 9.45911043 83.95904667c-20.10005436-2.36366689-34.29538452 26.01366452-3.54994326 21.28633076 0 0 37.8453278 9.45911045 33.11355106-49.66810513M616.50229946 687.89067779s68.59076905 42.57266154 34.29538453 86.32715652c27.19994092 31.93171765 9.46355342 34.29538452-9.45911046 33.10910812"
    fill="#99C838"
    p-id="2544"
  ></path>
  <path
    d="M806.63530696 552.87731537c-1.40842558-25.97812063-15.79480401-47.2466795-34.36647226-53.64901773a37.52543302 37.52543302 0 0 0 7.26427697-3.21671958c21.42850623-12.41813703 26.56459437-43.60787654 11.47178167-69.64819893-10.27661931-17.72305854-27.26658565-28.49284892-43.83002569-29.65691044 5.04278551-17.61642693-6.33125055-41.53300354-28.8127437-57.6210444-18.93599284-13.54665468-40.54666135-17.79414626-55.89272405-12.57808443a30.52329211 30.52329211 0 0 0-0.43096936-3.33223712c-4.10531615-21.2730018-29.14596741-34.33537137-55.91938196-29.16373932-10.65871584 2.05710107-19.94899295 6.71779005-27.06220846 12.89353621-8.51275509-13.36004939-27.22659881-20.61544035-46.94011366-16.80780407-8.91262358 1.71943436-16.7722602 5.47375485-23.01020812 10.49432542-9.71236046-6.73111899-23.24124321-9.65904468-37.30328387-6.94438215-14.36860651 2.7724213-26.02255046 10.81866322-32.44710367 20.99309391-11.71170277-5.30047853-26.01810747-7.13098746-40.75992451-4.28747846-25.12951091 4.84729428-44.0877187 21.82393168-48.94834193 41.47080179a56.98569787 56.98569787 0 0 0-10.45878158-0.95968427c-29.06599371 0-52.62713171 21.70841413-52.62713167 48.48627168 0 8.69047444 2.49695634 16.83890496 6.83775056 23.88547572-13.83989153 4.25193458-27.09330934 12.72470284-37.63206463 25.12506794-26.38243209 31.04756405-25.80928729 74.89536167 1.27513607 97.91889873 1.49284223 1.27069309 3.04788622 2.43475459 4.6340311 3.52328539a47.09561806 47.09561806 0 0 0-15.23943114 9.12144379c-22.48593613 20.12671225-21.47737903 57.92761023 2.2303774 84.41667384 8.85486477 9.89007978 19.62021218 16.7989181 30.81208597 20.53546669 0.83528076 13.61329939 6.30903564 27.4931778 16.55455403 38.93830157 19.31808939 21.57068165 49.04608756 27.44874796 71.28765961 15.71038731 13.48889588 18.71384371 36.69903821 28.15518222 59.02502698 21.89946239a52.00511413 52.00511413 0 0 0 25.74708554-16.63452772c13.57775558 11.84499223 32.04279221 16.92332161 49.93468406 11.90719399a51.65411843 51.65411843 0 0 0 17.41204978-8.69047439c11.59174222 5.87362333 25.03620829 7.64193051 38.16966556 3.9586977a51.67633337 51.67633337 0 0 0 16.83001895-8.25061915 52.11618867 52.11618867 0 0 0 31.65625273 1.15961852c11.20520272-3.14118889 20.53546668-9.79233417 27.29324357-18.53612441 11.76057556 6.18907507 25.50716448 8.10844366 38.93385856 4.34523722 17.42093569-4.88728112 30.32780082-18.22955857 36.01037592-34.77966962 9.33470692 3.69211876 19.50913763 4.52739952 29.42143234 1.74609224 25.37831795-7.11765851 39.94241569-35.29505566 34.19763889-64.41436516 21.17969916-5.53151363 36.25473995-30.41666049 34.681924-59.3582507z"
    fill="#EFEA3A"
    p-id="2545"
  ></path>
  <path
    d="M420.20243181 525.88175165m-70.95443589 0a70.95443588 70.95443588 0 1 0 141.90887176 0 70.95443588 70.95443588 0 1 0-141.90887176 0Z"
    fill="#040000"
    p-id="2546"
  ></path>
  <path
    d="M376.63563985 512.90094601a17.82969013 21.8772475 41.026 1 0 28.7205149-33.00890669 17.82969013 21.8772475 41.026 1 0-28.7205149 33.00890669Z"
    fill="#FFFFFF"
    p-id="2547"
  ></path>
  <path
    d="M378.80716072 555.44091646s42.57266154 41.39082809 86.33159949 1.18183347c10.64538688-18.91822094-9.46355342-8.27727703-9.46355343-8.27727701s-27.19549793 24.83183106-73.31810279-4.73177675c-13.00905375 1.18627641-3.5499433 11.82722031-3.54994327 11.82722029z"
    fill="#42382F"
    p-id="2548"
  ></path>
  <path
    d="M594.03857823 523.51364183s36.65905138-41.39082809 112.34082101-35.47721794c-37.84088485-5.91361017-68.59076905-27.19994092-112.34082101 35.47721794z"
    fill="#7F4F21"
    p-id="2549"
  ></path>
</svg>
