<svg
  t="1631934995010"
  class="icon"
  viewBox="0 0 3139 1024"
  version="1.1"
  xmlns="http://www.w3.org/2000/svg"
  p-id="3166"
  width="128"
  height="128"
>
  <path
    d="M609.745455 188.509091l76.8-76.8S572.509091-11.636364 381.672727 4.654545 88.436364 151.272727 39.563636 265.309091s-41.890909 358.4 209.454546 491.054545c172.218182 90.763636 472.436364 0 521.309091-216.436363 0 0 30.254545-90.763636 9.309091-179.2H416.581818v107.054545H674.909091s-6.981818 132.654545-123.345455 186.181818S288.581818 684.218182 216.436364 605.090909s-95.418182-162.909091-79.127273-272.290909S279.272727 114.036364 388.654545 111.709091c109.381818-2.327273 167.563636 25.6 221.09091 76.8z"
    fill="#4C81EF"
    p-id="3167"
  ></path>
  <path
    d="M1077.527273 388.654545c83.781818 0 151.272727 67.490909 151.272727 151.272728s-67.490909 151.272727-151.272727 151.272727-151.272727-67.490909-151.272728-151.272727 67.490909-151.272727 151.272728-151.272728m0-104.727272c-141.963636 0-256 114.036364-256 256s114.036364 256 256 256 256-114.036364 256-256-114.036364-256-256-256z"
    fill="#E21737"
    p-id="3168"
  ></path>
  <path
    d="M1629.090909 388.654545c83.781818 0 151.272727 67.490909 151.272727 151.272728s-67.490909 151.272727-151.272727 151.272727-151.272727-67.490909-151.272727-151.272727 67.490909-151.272727 151.272727-151.272728m0-104.727272c-141.963636 0-256 114.036364-256 256s114.036364 256 256 256 256-114.036364 256-256-116.363636-256-256-256z"
    fill="#F5C329"
    p-id="3169"
  ></path>
  <path
    d="M2315.636364 302.545455v44.218181s-79.127273-97.745455-200.145455-51.2-162.909091 132.654545-179.2 211.781819c-18.618182 97.745455 48.872727 258.327273 188.509091 281.6 137.309091 20.945455 190.836364-51.2 190.836364-51.2 4.654545 72.145455-4.654545 97.745455-16.290909 121.018181-11.636364 23.272727-32.581818 65.163636-121.018182 65.163637-88.436364 2.327273-125.672727-88.436364-125.672728-88.436364L1954.909091 872.727273s13.963636 37.236364 72.145454 93.090909c55.854545 55.854545 190.836364 79.127273 290.909091 20.945454s102.4-211.781818 102.4-211.781818V302.545455h-104.727272z m-123.345455 393.30909c-88.436364 0-130.327273-65.163636-139.636364-95.418181-6.981818-25.6-18.618182-86.109091 6.981819-137.309091 37.236364-74.472727 123.345455-83.781818 153.6-74.472728 32.581818 9.309091 109.381818 48.872727 107.054545 146.618182-2.327273 93.090909-41.890909 160.581818-128 160.581818z"
    fill="#4F80ED"
    p-id="3170"
  ></path>
  <path
    d="M2497.163636 30.254545h104.727273v744.727273h-104.727273z"
    fill="#23BF5A"
    p-id="3171"
  ></path>
  <path
    d="M2899.781818 695.854545c-93.090909 0-118.690909-79.127273-118.690909-79.127272l342.109091-141.963637s-41.890909-151.272727-174.545455-181.527272-223.418182 44.218182-262.981818 118.690909-37.236364 200.145455 16.290909 283.927272c55.854545 81.454545 167.563636 104.727273 223.418182 97.745455 58.181818-6.981818 128-27.927273 188.509091-109.381818l-86.109091-58.181818c2.327273-2.327273-34.909091 69.818182-128 69.818181z m-20.945454-311.854545c79.127273-13.963636 114.036364 53.527273 114.036363 53.527273l-230.4 95.418182c0-48.872727 23.272727-132.654545 116.363637-148.945455z"
    fill="#E11837"
    p-id="3172"
  ></path>
</svg>
