<svg
  t="1638074521772"
  class="icon"
  viewBox="0 0 1024 1024"
  version="1.1"
  xmlns="http://www.w3.org/2000/svg"
  p-id="39051"
  width="16"
  height="16"
>
  <path
    d="M0 686.081993c0 183.79946 148.999562 332.799022 332.799022 332.799022s332.799022-148.999562 332.799022-332.799022-148.999562-332.799022-332.799022-332.799021S0 502.282534 0 686.081993z"
    fill="#AFE4F8"
    p-id="39052"
  ></path>
  <path
    d="M883.197404 1024h-639.998119a141.055585 141.055585 0 0 1-140.799586-140.799586V140.802596A141.055585 141.055585 0 0 1 243.199285 0.00301h516.348482a89.087738 89.087738 0 0 1 63.231814 25.599925l189.699443 189.694442A38.399887 38.399887 0 0 1 1023.99699 243.202295v639.998119A141.055585 141.055585 0 0 1 883.197404 1024z m-639.998119-947.197216a63.999812 63.999812 0 0 0-63.999812 63.999812v742.397818a63.999812 63.999812 0 0 0 63.999812 63.999812h639.998119a63.999812 63.999812 0 0 0 63.999812-63.999812V259.076248L767.997743 79.877775a12.799962 12.799962 0 0 0-8.449976-3.074991z"
    fill="#434260"
    p-id="39053"
  ></path>
  <path
    d="M441.754701 641.101126H299.177121V412.227798h137.106597V454.201675h-83.557755v50.91285h77.754772v41.816877h-77.754772v52.349846h89.027738z m27.188921-8.777975v-51.07685a102.956697 102.956697 0 0 0 31.333907 17.475949 104.221694 104.221694 0 0 0 34.1519 5.824983 78.555769 78.555769 0 0 0 17.655948-1.755995 42.280876 42.280876 0 0 0 12.599963-4.867986 21.637936 21.637936 0 0 0 7.542978-7.341978 17.788948 17.788948 0 0 0 2.486993-9.176973 19.340943 19.340943 0 0 0-3.978989-11.969965 42.208876 42.208876 0 0 0-10.857968-9.732971 114.860662 114.860662 0 0 0-16.329952-8.618975q-9.449972-4.149988-20.39194-8.458975-27.851918-11.171967-41.529878-27.29192t-13.67796-38.943885q0-17.874947 7.459979-30.72291a61.958818 61.958818 0 0 1 20.30894-21.146938 92.946727 92.946727 0 0 1 29.758912-12.209964 158.575534 158.575534 0 0 1 35.809895-3.909988 223.589343 223.589343 0 0 1 32.911903 2.153993 133.471608 133.471608 0 0 1 26.442923 6.622981v47.720859a80.873762 80.873762 0 0 0-13.013962-7.021979 105.749689 105.749689 0 0 0-14.505957-5.026985 114.416664 114.416664 0 0 0-14.837957-2.952991 109.01868 109.01868 0 0 0-14.008959-0.957998 75.777777 75.777777 0 0 0-16.578951 1.675995 43.513872 43.513872 0 0 0-12.599963 4.707987 23.96393 23.96393 0 0 0-7.957976 7.261978 16.742951 16.742951 0 0 0-2.817992 9.499972 17.652948 17.652948 0 0 0 3.149991 10.29397 35.476896 35.476896 0 0 0 8.952973 8.618975 95.888718 95.888718 0 0 0 14.091959 7.979976q8.288976 3.909989 18.733945 8.059977a212.141376 212.141376 0 0 1 25.613924 12.209964 90.669733 90.669733 0 0 1 19.479943 14.599957 56.699833 56.699833 0 0 1 12.433964 18.593945q4.309987 10.453969 4.309987 24.338929 0 19.151944-7.542978 32.159905A59.927824 59.927824 0 0 1 603.066227 630.001158a90.779733 90.779733 0 0 1-30.090911 11.570966 180.39947 180.39947 0 0 1-36.224894 3.51099 209.017386 209.017386 0 0 1-37.21889-3.191991 115.430661 115.430661 0 0 1-30.58791-9.572972z m358.098947-67.351802a81.146761 81.146761 0 0 1-6.133982 31.599907 76.899774 76.899774 0 0 1-17.07595 25.456926 79.233767 79.233767 0 0 1-26.028923 16.91795 86.649745 86.649745 0 0 1-32.991903 6.144982q-20.059941 0-35.892895-7.181979a71.999788 71.999788 0 0 1-26.774921-20.827939q-10.938968-13.65096-16.745951-33.440902t-5.799983-44.848868q0-29.525913 7.542978-53.546842t21.551937-41.09988a96.199717 96.199717 0 0 1 33.8999-26.413922q19.904941-9.328973 44.768868-9.328972 27.520919 0 42.772875 6.223981v42.134876a80.815762 80.815762 0 0 0-39.457884-9.899971 56.943833 56.943833 0 0 0-24.03893 4.947986 52.873845 52.873845 0 0 0-18.484945 14.044959 67.121803 67.121803 0 0 0-12.099965 21.944935 94.342723 94.342723 0 0 0-4.724986 28.648916h0.994997q16.90995-22.499934 49.899853-22.499934a67.204802 67.204802 0 0 1 26.691922 5.106985 57.82483 57.82483 0 0 1 20.39194 14.443958 65.648807 65.648807 0 0 1 13.099962 22.423934 86.413746 86.413746 0 0 1 4.638986 29.043914z m-51.225849 3.186991q0-36.867892-31.333908-36.867892a31.766907 31.766907 0 0 0-12.930962 2.553993 28.699916 28.699916 0 0 0-9.946971 7.181979 32.463905 32.463905 0 0 0-6.382981 10.932968 41.499878 41.499878 0 0 0-2.237994 13.964958 52.141847 52.141847 0 0 0 2.320993 15.799954 41.351878 41.351878 0 0 0 6.548981 12.847962 32.041906 32.041906 0 0 0 10.029971 8.699975 26.378922 26.378922 0 0 0 12.930962 3.19199 28.899915 28.899915 0 0 0 12.848962-2.792991 28.549916 28.549916 0 0 0 9.781971-7.820977 35.430896 35.430896 0 0 0 6.216982-12.129965 53.399843 53.399843 0 0 0 2.153994-15.561954z"
    fill="#434260"
    p-id="39054"
  ></path>
</svg>
