<svg
  t="1637215579691"
  class="icon"
  viewBox="0 0 1024 1024"
  version="1.1"
  xmlns="http://www.w3.org/2000/svg"
  p-id="16758"
  width="32"
  height="32"
>
  <path
    d="M518.51122773 394.23516692V231.10484266L130.64926933 505.81081812l387.8619584 274.77041174V618.90236479c155.23193707 0.06443627 299.15362667 7.89948053 420.83707306 224.9216672 0.00109227-137.86028907-22.74281387-445.73250347-420.83707306-449.58886507z"
    fill="#98C4D8"
    p-id="16759"
  ></path>
  <path
    d="M486.16409706 361.88803626V198.75661972L98.30213759 473.46259412 486.16409706 748.23300692V586.55414186c155.23193707 0.06443627 299.15362667 7.89948053 420.83707307 224.9216672 0-137.86028907-22.74390613-445.73250347-420.83707307-449.5877728z"
    fill="#cdcdcd"
    p-id="16760"
  ></path>
  <path
    d="M310.40286933 407.90417279a29.10237013 61.84267413 55.515 1 0 101.95067093-70.02946453 29.10237013 61.84267413 55.515 1 0-101.95067093 70.02946453Z"
    fill="#FEFEFE"
    p-id="16761"
  ></path>
  <path
    d="M247.91124799 509.67718186a19.40194453 33.95258347 55.515 1 0 55.97249387-38.4472576 19.40194453 33.95258347 55.515 1 0-55.97249387 38.4472576Z"
    fill="#FEFEFE"
    p-id="16762"
  ></path>
</svg>
