<svg
  t="1632297539484"
  class="icon"
  viewBox="0 0 1024 1024"
  version="1.1"
  xmlns="http://www.w3.org/2000/svg"
  p-id="6676"
  width="128"
  height="128"
>
  <path
    d="M526.03904 297.472l-0.256 0.96256 0.256 0.08192 376.86272-143.29856-434.81088-79.67744v205.0048z"
    fill="#16DB9E"
    p-id="6677"
  ></path>
  <path
    d="M468.09088 75.54048L120.24832 178.944l347.84256 101.60128z"
    fill="#00AA89"
    p-id="6678"
  ></path>
  <path
    d="M526.03904 298.51648v677.49888L902.90176 832.7168V440.064L641.9968 557.59872z"
    fill="#16DB9E"
    p-id="6679"
  ></path>
  <path
    d="M525.78304 298.43456l-72.20224 255.3856-333.33248-107.65312v390.48192l405.79072 135.7312V298.51648z"
    fill="#00AA89"
    p-id="6680"
  ></path>
  <path
    d="M525.78304 298.43456l0.256-0.96256-57.94816-16.92672-347.84256-101.60128L33.28 418.07872l86.96832 28.08832 333.33248 107.65312zM902.90176 155.21792L526.03904 298.51648l115.95776 259.08224 260.90496-117.53472 101.46816-45.71136z"
    fill="#8AFFCF"
    p-id="6681"
  ></path>
</svg>
