<svg
  t="1637995686315"
  class="icon"
  viewBox="0 0 1024 1024"
  version="1.1"
  xmlns="http://www.w3.org/2000/svg"
  p-id="20024"
  width="16"
  height="16"
>
  <path
    d="M533.333333 480H256c-46.933333 0-85.333333-38.4-85.333333-85.333333v-170.666667c0-46.933333 38.4-85.333333 85.333333-85.333333h234.666667c46.933333 0 85.333333 38.4 85.333333 85.333333v213.333333c0 23.466667-19.2 42.666667-42.666667 42.666667z"
    fill="#2953FF"
    p-id="20025"
  ></path>
  <path
    d="M768 480h-85.333333c-23.466667 0-42.666667-19.2-42.666667-42.666667v-213.333333c0-46.933333 38.4-85.333333 85.333333-85.333333h42.666667c46.933333 0 85.333333 38.4 85.333333 85.333333v170.666667c0 46.933333-38.4 85.333333-85.333333 85.333333z"
    fill="#FF354A"
    p-id="20026"
  ></path>
  <path
    d="M768 885.333333H533.333333c-46.933333 0-85.333333-38.4-85.333333-85.333333v-213.333333c0-23.466667 19.2-42.666667 42.666667-42.666667h277.333333c46.933333 0 85.333333 38.4 85.333333 85.333333v170.666667c0 46.933333-38.4 85.333333-85.333333 85.333333z"
    fill="#2953FF"
    p-id="20027"
  ></path>
  <path
    d="M298.666667 885.333333h-42.666667c-46.933333 0-85.333333-38.4-85.333333-85.333333v-170.666667c0-46.933333 38.4-85.333333 85.333333-85.333333h85.333333c23.466667 0 42.666667 19.2 42.666667 42.666667v213.333333c0 46.933333-38.4 85.333333-85.333333 85.333333z"
    fill="#93A8FF"
    p-id="20028"
  ></path>
</svg>
