<svg
  t="1638016383841"
  class="icon"
  viewBox="0 0 1024 1024"
  version="1.1"
  xmlns="http://www.w3.org/2000/svg"
  p-id="25994"
  width="16"
  height="16"
>
  <path
    d="M118.153255 16.619164h734.636904v990.162784H118.153255z"
    fill="#1EB9B0"
    p-id="25995"
  ></path>
  <path
    d="M881.199946 128.411736h-31.940735v-95.822205c0-17.642265-14.29847-31.940735-31.940735-31.940735H114.622307c-17.642265 0-31.940735 14.29847-31.940735 31.940735v958.222049c0 17.642265 14.29847 31.940735 31.940735 31.940735h702.696169c17.642265 0 31.940735-14.29847 31.940735-31.940735v-574.933229h31.940735c17.642265 0 31.940735-14.29847 31.940735-31.940735v-223.585145c0-17.642265-14.29847-31.940735-31.940735-31.940735z m-63.88147 0h-383.28882c-17.642265 0-31.940735 14.29847-31.940735 31.940735v223.585145c0 17.642265 14.29847 31.940735 31.940735 31.940735h383.28882v574.933229H114.622307v-958.222049h702.696169v95.822205z m-127.76294 511.051759h-447.170289v31.940735h447.170289v-31.940735z m0-95.822204h-447.170289v31.940735h447.170289v-31.940735z m0 191.644409h-447.170289v31.940735h447.170289v-31.940735z m-207.614777 95.822205h-239.555512v31.940735h239.555512v-31.940735z m0 0"
    fill="#2B3139"
    p-id="25996"
  ></path>
  <path
    d="M434.029656 160.352471h447.17029v223.585145h-447.17029z"
    fill="#FFFFFF"
    p-id="25997"
  ></path>
  <path
    d="M529.10325 215.163271h49.969783l16.282289 67.025636h0.324398l16.282288-67.025636h49.957306v113.963544h-33.18842V256.024954h-0.324398l-19.813237 73.101861h-26.17643l-19.788284-73.101861h-0.336875v73.101861h-33.18842zM677.116117 215.163271h57.618091c37.992007 0 51.392143 28.097865 51.392144 56.819573 0 34.947656-18.490691 57.143971-58.241934 57.143971h-50.768301v-113.963544z"
    fill="#2B3139"
    p-id="25998"
  ></path>
  <path
    d="M712.238449 299.906034h13.712057c21.85944 0 25.065991-17.717126 25.065991-28.409787 0-7.174189-2.233356-27.112194-27.611268-27.112194h-11.154303v55.521981z"
    fill="#FFFFFF"
    p-id="25999"
  ></path>
</svg>
