<svg
  t="1640680061412"
  class="icon"
  viewBox="0 0 1024 1024"
  version="1.1"
  xmlns="http://www.w3.org/2000/svg"
  p-id="6497"
  width="16"
  height="16"
>
  <path
    d="M510.67676445 3.14026667c-282.112 0-510.80988445 228.69674667-510.80988445 510.80874666s228.69674667 510.80874667 510.80988445 510.80874667S1021.48551111 796.06101333 1021.48551111 513.94901333 792.78876445 3.14026667 510.67676445 3.14026667z m-222.0032 572.80967111c-12.8 11.20028445-27.20085333 16.80042667-44.80113778 16.80042667-17.60142222 0-32.00113778-6.4-43.20142222-17.60028445-12.8-11.20028445-18.40014222-25.6-18.40014223-43.20142222 0-17.60028445 5.60014222-32 18.40014223-43.20142223 11.20028445-11.20028445 25.6-16.80042667 43.20142222-16.80042666 17.60142222 0 32.79985778 5.60014222 44.80113778 16.80156444 11.20028445 11.20028445 17.60028445 25.6 17.60028444 43.20142222-0.00113778 17.60028445-6.40113778 32.79985778-17.60142222 44.00014223z m267.20369777 0c-12.8 11.20028445-27.19971555 16.80042667-44.8 16.80042667-17.60142222 0-32.00113778-6.4-43.20142222-17.60028445-12.8-11.20028445-18.40128-25.6-18.40128-43.20142222 0-17.60028445 5.60128-32 18.40128-43.20142223 11.20028445-11.20028445 25.6-16.80042667 43.20142222-16.80042666 17.60028445 0 32.79985778 5.60014222 44.8 16.80156444 11.20142222 11.20028445 17.60142222 25.6 17.60142223 43.20142222-0.00113778 17.60028445-6.40113778 32.79985778-17.60142223 44.00014223z m265.60512 0c-12.00014222 11.20028445-26.39985778 16.80042667-44.00128 16.80042667s-32-6.4-44.00128-17.60028445c-12.00014222-11.20028445-17.60028445-25.6-17.60028444-43.20142222 0-17.60028445 5.60014222-32 17.60142222-43.20142223 12.00014222-11.20028445 26.39985778-16.80042667 44.00014222-16.80042666s32.80099555 5.60014222 44.80113778 16.80156444c11.20028445 11.20028445 17.60142222 25.6 17.60142222 43.20142222-0.00227555 17.60028445-6.40227555 32.79985778-18.40128 44.00014223z"
    fill="#dc3f36"
    p-id="6498"
  ></path>
</svg>
