<svg
  t="1637221256817"
  class="icon"
  viewBox="0 0 1024 1024"
  version="1.1"
  xmlns="http://www.w3.org/2000/svg"
  p-id="40348"
  width="32"
  height="32"
>
  <path
    d="M449.1 596.3h114.2v68.5H449.1zM173.7 180.8l-98.7 49c-7.8 3.9-12.7 11.8-12.7 20.5v402.5h68.5V282.1c0-8.7 4.9-16.6 12.6-20.5l56.5-28.5c19.4-9.8 21.7-36.6 4.3-49.6-8.9-6.5-20.7-7.6-30.5-2.7zM847.9 180.8l98.7 49c7.8 3.9 12.7 11.8 12.7 20.5v402.5h-68.5V282.1c0-8.7-4.9-16.6-12.6-20.5l-56.5-28.5c-19.4-9.8-21.7-36.6-4.3-49.6 8.9-6.5 20.6-7.6 30.5-2.7z"
    fill="#FDDB33"
    p-id="40349"
  ></path>
  <path
    d="M267.8 630.5m-205.5 0a205.5 205.5 0 1 0 411 0 205.5 205.5 0 1 0-411 0Z"
    fill="#263FEC"
    p-id="40350"
  ></path>
  <path
    d="M243.8 426.4C141.6 438.3 62.3 525.2 62.3 630.5c0 105.4 79.3 192.2 181.5 204.1 103.1-11 183.5-98 183.5-204.1 0-106-80.4-193-183.5-204.1z"
    fill="#3FABFB"
    p-id="40351"
  ></path>
  <path
    d="M406.2 540.1c-30.3-61.6-90.7-105.8-162-113.6-0.9 0.1-1.8 0.2-2.8 0.3-5.2 0.7-10.4 1.5-15.4 2.5-0.6 0.1-1.2 0.2-1.8 0.4-5.2 1.1-10.4 2.5-15.4 4-1.7 0.5-3.4 1.1-5.2 1.6-3.8 1.3-7.6 2.6-11.4 4.1-1.5 0.6-3.1 1.2-4.6 1.8-4.9 2.1-9.6 4.3-14.3 6.7-1.4 0.7-2.8 1.6-4.2 2.3-3.4 1.9-6.8 3.8-10 5.9-1.7 1.1-3.4 2.1-5.1 3.2-3.4 2.2-6.6 4.6-9.9 7-1.3 1-2.6 1.9-3.8 2.9-3.8 3-7.5 6.2-11 9.4-1.6 1.4-3.1 3-4.7 4.4-2.4 2.3-4.7 4.7-7 7.1-1.5 1.6-3 3.2-4.4 4.8-3.2 3.7-6.4 7.5-9.3 11.4-1.2 1.6-2.4 3.3-3.6 5-1.9 2.7-3.8 5.4-5.6 8.2-1.3 2-2.5 4-3.8 6.1-1.7 2.9-3.3 5.8-4.9 8.8-1 1.8-2 3.6-2.9 5.4h323.1z"
    fill="#2784FA"
    p-id="40352"
  ></path>
  <path
    d="M187.9 675.1l-23.3-23.3c-0.8-0.8-0.8-2.2 0-3l76.4-76.4c0.8-0.8 2.2-0.8 3 0l23.3 23.3c0.8 0.8 0.8 2.2 0 3l-76.4 76.4c-0.9 0.8-2.2 0.8-3 0zM284.9 675.1l-23.3-23.3c-0.8-0.8-0.8-2.2 0-3l76.4-76.4c0.8-0.8 2.2-0.8 3 0l23.3 23.3c0.8 0.8 0.8 2.2 0 3l-76.4 76.4c-0.8 0.8-2.1 0.8-3 0z"
    fill="#C0E3F4"
    p-id="40353"
  ></path>
  <path
    d="M753.8 630.5m-205.5 0a205.5 205.5 0 1 0 411 0 205.5 205.5 0 1 0-411 0Z"
    fill="#263FEC"
    p-id="40354"
  ></path>
  <path
    d="M729.8 426.4c-102.2 11.9-181.5 98.7-181.5 204.1 0 105.4 79.3 192.2 181.5 204.1 103.1-11 183.5-98 183.5-204.1 0-106-80.4-193-183.5-204.1z"
    fill="#3FABFB"
    p-id="40355"
  ></path>
  <path
    d="M892.2 540.1c-30.3-61.6-90.7-105.8-162-113.6-0.9 0.1-1.8 0.2-2.8 0.3-5.2 0.7-10.4 1.5-15.4 2.5-0.6 0.1-1.2 0.2-1.8 0.4-5.2 1.1-10.4 2.5-15.4 4-1.7 0.5-3.4 1.1-5.2 1.6-3.8 1.3-7.6 2.6-11.4 4.1-1.5 0.6-3.1 1.2-4.6 1.8-4.9 2.1-9.6 4.3-14.3 6.7-1.4 0.7-2.8 1.6-4.2 2.3-3.4 1.9-6.8 3.8-10 5.9-1.7 1.1-3.4 2.1-5.1 3.2-3.4 2.2-6.6 4.6-9.9 7-1.3 1-2.6 1.9-3.8 2.9-3.8 3-7.5 6.2-11 9.4-1.6 1.4-3.1 3-4.7 4.4-2.4 2.3-4.7 4.7-7 7.1-1.5 1.6-3 3.2-4.4 4.8-3.2 3.7-6.4 7.5-9.3 11.4-1.2 1.6-2.4 3.3-3.6 5-1.9 2.7-3.8 5.4-5.6 8.2-1.3 2-2.5 4-3.8 6.1-1.7 2.9-3.3 5.8-4.9 8.8-1 1.8-2 3.6-2.9 5.4h323.1z"
    fill="#2784FA"
    p-id="40356"
  ></path>
  <path
    d="M673.9 675.1l-23.3-23.3c-0.8-0.8-0.8-2.2 0-3l76.4-76.4c0.8-0.8 2.2-0.8 3 0l23.3 23.3c0.8 0.8 0.8 2.2 0 3l-76.4 76.4c-0.8 0.8-2.2 0.8-3 0zM770.9 675.1l-23.3-23.3c-0.8-0.8-0.8-2.2 0-3l76.4-76.4c0.8-0.8 2.2-0.8 3 0l23.3 23.3c0.8 0.8 0.8 2.2 0 3l-76.4 76.4c-0.8 0.8-2.1 0.8-3 0z"
    fill="#C0E3F4"
    p-id="40357"
  ></path>
</svg>
