<svg
  t="1637202288455"
  class="icon"
  viewBox="0 0 1024 1024"
  version="1.1"
  xmlns="http://www.w3.org/2000/svg"
  p-id="5657"
  width="32"
  height="32"
>
  <path
    d="M386.005333 998.4c-0.384-56.917333-0.682667-102.997333-0.853333-138.24-176.298667 38.314667-213.504-84.906667-213.504-84.906667-28.8-73.045333-70.357333-92.501333-70.357333-92.501333-57.557333-39.296 4.394667-38.528 4.394666-38.528 63.573333 4.48 96.981333 65.237333 96.981334 65.237333 56.576 96.725333 148.352 68.864 184.448 52.608 5.76-40.96 22.186667-68.821333 40.277333-84.650666-140.757333-15.957333-288.64-70.272-288.64-312.874667 0-69.12 24.661333-125.653333 65.194667-169.941333-6.485333-16-28.245333-80.384 6.186666-167.552 0 0 53.205333-16.981333 174.250667 64.896a608.170667 608.170667 0 0 1 158.72-21.290667c53.76 0.256 107.989333 7.253333 158.592 21.333333C822.613333 10.026667 875.776 27.008 875.776 27.008c34.56 87.168 12.842667 151.552 6.314667 167.552C922.752 238.933333 947.2 295.424 947.2 364.544c0 243.2-148.138667 296.746667-289.28 312.405333 22.698667 19.541333 43.008 58.154667 43.008 117.248 0 56.448-0.298667 124.458667-0.810667 204.117334l-314.112 0.085333z"
    fill="#3E75C3"
    p-id="5658"
  ></path>
</svg>
