<svg
  t="1638074007311"
  class="icon"
  viewBox="0 0 1024 1024"
  version="1.1"
  xmlns="http://www.w3.org/2000/svg"
  p-id="32807"
  width="16"
  height="16"
>
  <path
    d="M137.4 746.48m-81 0a81 81 0 1 0 162 0 81 81 0 1 0-162 0Z"
    fill="#FFAFAF"
    p-id="32808"
  ></path>
  <path
    d="M794.4 467.48m-81 0a81 81 0 1 0 162 0 81 81 0 1 0-162 0Z"
    fill="#FFAFAF"
    p-id="32809"
  ></path>
  <path
    d="M676.05 738.83m-196.65 0a196.65 196.65 0 1 0 393.3 0 196.65 196.65 0 1 0-393.3 0Z"
    fill="#FFAFAF"
    p-id="32810"
  ></path>
  <path
    d="M334.5 376.58m-269.1 0a269.1 269.1 0 1 0 538.2 0 269.1 269.1 0 1 0-538.2 0Z"
    fill="#FFAFAF"
    p-id="32811"
  ></path>
  <path
    d="M146.4 357.43m12 0l669 0q12 0 12 12l0 329.05q0 12-12 12l-669 0q-12 0-12-12l0-329.05q0-12 12-12Z"
    fill="#72C1E8"
    p-id="32812"
  ></path>
  <path
    d="M827.4 706.9H161.82c-1.11 0-2.26 0.09-3.37 0-5-0.42-6.42-4.23-6.42-8.45V374.32c0-4.4 0.8-8.74 6.37-9.22 0.92-0.07 1.88 0 2.8 0h654.86c3.72 0 7.6-0.31 11.32 0 8.89 0.74 6.4 14.25 6.4 20.41v300.55c0 5.94 2.55 20.35-6.38 20.84-7.2 0.39-7.24 11.64 0 11.25 10.51-0.57 17.49-8.42 17.63-18.77V386.62c0-9.52 1.86-21.44-6.1-28.41-5.78-5.06-12.81-4.36-19.82-4.36H160.92c-11.3 0-20 7-20.14 18.91-0.12 9.77 0 19.54 0 29.31v296c0 11.58 7.37 20 19.26 20.07 18.29 0.14 36.58 0 54.87 0H827.4c7.24 0.01 7.25-11.24 0-11.24z"
    fill="#141E3D"
    p-id="32813"
  ></path>
  <path
    d="M321.83 594.67h-50.39c-4.85 0-8.82-3.47-8.82-7.72l12.5-371.47c0-4.23 4-7.72 8.8-7.72h25.42c4.85 0 8.82 3.47 8.81 7.72L330.64 587c0 4.2-3.96 7.67-8.81 7.67z"
    fill="#F1DDD5"
    p-id="32814"
  ></path>
  <path
    d="M356.53 679.93L330.87 591h-68.18l-31.93 87.2s-86.08-23.33-108.25 85 81 116.92 97.55 116.06-2.73-92.74 23.61-136.17a415.58 415.58 0 0 1 50.53-67.22 418.84 418.84 0 0 1 46.54 68.31c24.38 44.56 1.07 135.49 17.52 137.08s120-2.4 102.63-111.6-104.36-89.73-104.36-89.73zM205.42 782.8c-6.66 33.11-26.41 57.06-44.13 53.5s-26.68-33.28-20-66.39 26.41-57.07 44.13-53.51 26.65 33.29 20 66.4z m93.73-145.9A13.56 13.56 0 1 1 310 621.06a13.55 13.55 0 0 1-10.85 15.84zM418.89 841c-17.86 2.76-36.53-22.05-41.7-55.42s5.11-62.67 23-65.44 36.52 22 41.69 55.42-5.14 62.64-22.99 65.44z"
    fill="#4A484A"
    p-id="32815"
  ></path>
  <path
    d="M321.83 589.05h-45.28c-2.73 0-7.65 0.87-8.29-2.56-0.31-1.68 0.13-3.84 0.19-5.53l2.39-71 3.86-114.73 3.79-112.87 2.15-64c0-1-0.23-2.68 0.31-3.59 1.35-2.3 7-1.41 9.14-1.41H304c3.11 0 7.85-0.91 8.54 2.89a42.92 42.92 0 0 1 0.21 6.22l2.45 72.89 3.9 115.81 3.75 111.61 2.07 61.8c0.08 2.38 0.42 4.2-3.1 4.45-7.18 0.51-7.23 11.76 0 11.25 8.1-0.58 14.39-5.86 14.4-14.25 0-2.24-0.15-4.49-0.22-6.72L335 549l-3.57-106.18-4.15-123.42-3-88.73c-0.17-5-0.17-10.09-0.51-15.11a13.74 13.74 0 0 0-7.56-11.8c-3.61-1.83-7.52-1.64-11.42-1.64h-14.7c-3.38 0-7.17-0.36-10.44 0.6-10.6 3.11-10.15 12.67-10.45 21.33l-1.05 31.27-3.6 107.19-4.15 123.22-2.93 87.27c-0.16 4.6-0.62 9.32-0.47 13.93 0.35 10.57 9.92 13.36 18.65 13.36h46.18c7.24 0.01 7.25-11.24 0-11.24z"
    fill="#141E3D"
    p-id="32816"
  ></path>
  <path
    d="M362 678.43l-22.41-77.65-3.26-11.3a5.74 5.74 0 0 0-5.42-4.13h-68.22a5.81 5.81 0 0 0-5.43 4.13l-27.92 76.29-4 10.94 6.92-3.93c-21.18-5.7-46.18-1.76-65 8.92-19.43 11-32.73 29.52-41.12 49.86-10.39 25.18-15.73 55-10.13 82 7.65 36.89 38.78 59.81 74 67.91 9.56 2.2 21.32 4.89 31.22 3.32 6.89-1.08 9.48-8 10.57-14.12 1.71-9.6 1.7-19.5 1.86-29.22 0.42-25.41 0-51.62 7-76.29 4.14-14.72 12.61-27.12 21.2-39.62a408.37 408.37 0 0 1 27.89-36.17q4.19-4.82 8.55-9.48h-8c7.43 8.74 14.35 17.9 20.92 27.3 9.81 14.05 20.29 29 27.15 44.74 10.27 23.63 9.2 51.74 8.56 76.94-0.28 11.09-0.9 22.2-0.59 33.28 0.18 6.79 0.13 16 5 21.36 3.33 3.7 8.1 3.64 12.69 3.64A125.14 125.14 0 0 0 380 886c34-4.36 67.42-21 81.24-54.1 10.14-24.28 8.33-52 2.46-77.09-5.34-22.87-15.72-45.73-33.93-61.21-19.47-16.55-48-24.57-73.3-19.37l-1.44 0.27c-7.07 1.57-4.08 12.42 3 10.85 0.42-0.09 0.84-0.17 1.27-0.24l1.53-0.25c1-0.16 0.32 0-0.32 0 0.46 0 0.91-0.12 1.37-0.16a101.26 101.26 0 0 1 13.38-0.47 79 79 0 0 1 37.54 10.85c17 10.25 28.46 27.34 35.1 45.77 8.6 23.85 12.89 52 6.31 76.9-8.72 32.9-37.95 50.69-69.82 56.26a117 117 0 0 1-16.17 1.72c-2.09 0.08-4.19 0.11-6.29 0.06-0.73 0-1.45-0.07-2.18-0.09-0.3 0-0.6 0-0.91-0.06-0.7 0 1.17 0.55-0.07-0.07 1.12 0.56 0.82 0.37 0.76 0.22-0.56-1.38 0 0.19-0.36-0.71a20.48 20.48 0 0 1-0.59-2 45.88 45.88 0 0 1-1-9.71c-0.39-10.51 0.18-21.06 0.47-31.57 0.68-24.76 1.3-50.77-5.95-74.73-4.39-14.52-12.89-27.58-21-40.27q-11.55-18.13-24.86-35.06-3.94-5-8.05-9.87c-1.93-2.27-6-2.07-8 0a410.63 410.63 0 0 0-49.36 65c-13.25 21.38-16.41 46.56-17.68 71.24-0.62 12-0.67 24-0.9 35.94-0.16 8.4 0 17.35-1.78 25.42-0.18 0.78-1.11 3.78-0.81 3-0.18 0.45-0.59 0.9-0.72 1.35 0.06-0.22 0 0 0.11 0-0.53-0.11 1.09-0.16 0.52-0.21a20.74 20.74 0 0 0-2.23 0 103.07 103.07 0 0 1-13.14-1c0.47 0.06-2.45-0.38-3.31-0.52-1.62-0.27-3.24-0.57-4.84-0.9-3.27-0.68-6.51-1.46-9.72-2.38a107.72 107.72 0 0 1-20.3-7.91c-14.77-7.68-27-19.14-34.1-34.35-9.94-21.37-7.89-46.52-2.5-68.78 5.45-22.49 15.35-44.91 33.68-59.83 11.29-9.19 26.07-14.64 39.84-15.91a92.41 92.41 0 0 1 16.55 0c1.05 0.09 2.09 0.21 3.14 0.33h0.17c0.5 0.07 1 0.14 1.5 0.23 1.22 0.21 2.42 0.44 3.64 0.68 0.43 0.08 0.86 0.19 1.28 0.31a5.77 5.77 0 0 0 6.92-3.93l27.93-76.29 4-10.94-5.42 4.13h68.18l-5.43-4.13 22.41 77.65 3.26 11.3c2.03 7 12.92 4.04 10.92-2.94z"
    fill="#141E3D"
    p-id="32817"
  ></path>
  <path
    d="M200 781.3c-3.52 16.9-11.12 39.13-27.64 47.71-15 7.81-23.54-9.39-26.13-21.59-4.39-20.69-0.07-44.41 9.77-63 5.31-10 19-29.49 32.68-20.75 6.89 4.41 10 13.32 11.64 20.89 2.69 12 2 24.71-0.32 36.7-1.36 7.08 9.48 10.11 10.85 3 4-21 5.16-51.13-12.25-67-15.76-14.41-35.19-2.94-45.9 11.39-15.5 20.73-21.78 49.93-18.39 75.36 2.31 17.31 12.14 40.63 33.47 38.06 11-1.33 19.82-9.41 26.22-18 8.69-11.61 13.91-25.67 16.85-39.78 1.47-7.06-9.38-10.08-10.85-2.99zM297.66 631.48c-10.12 1.39-12.22-14.39-2.05-15.8 10.36-1.44 11.75 13.45 2.05 15.8-7 1.7-4.06 12.55 3 10.85a19.45 19.45 0 0 0 14.73-22.77c-2.13-10.27-12.6-16.82-22.76-14.73a19.36 19.36 0 0 0-14.74 22.76c2.33 10.75 12.42 16.16 22.77 14.74 7.13-0.98 4.09-11.83-3-10.85zM418.89 835.34c-16.26 2.09-26.7-18.56-31.19-31.09-7-19.53-9.48-43.57-1.56-63.24 2.39-6 6.37-12.6 12.76-14.82 5.9-2.06 11.91 1 16.32 4.84 14.89 13 21 35.89 22.14 54.88 0.71 11.43-0.14 23.43-4.46 34.16-2.85 7.09-7.55 14-15.51 15.47-7.11 1.3-4.1 12.14 3 10.85 21.71-4 27.79-32.24 28.39-50.54 0.78-24.19-5.87-52.4-23.07-70.33-6.12-6.39-14.54-11.63-23.69-11.22-8.9 0.39-16.12 5.76-21.11 12.82-14 19.79-12.61 49.32-6.7 71.6 5.09 19.2 19.9 51 44.69 47.87 7.1-0.91 7.16-12.17-0.01-11.25z"
    fill="#141E3D"
    p-id="32818"
  ></path>
  <path
    d="M454.92 382.13a113.1 113.1 0 0 0 67.83 26.68 0.33 0.33 0 0 1 0.41-0.18l0.85 0.25c1.45 0.06 2.92 0.09 4.39 0.1l17.73 6.35 26.53 63.4h40.6l-23.54-187C583 238.37 531.1 202.16 479 215.61c-20.5 5.29-39.46 17.91-51.71 43.2-20.51 42.37-8.56 93.19 27.63 123.32z m9.92-93.86a46.94 46.94 0 0 1 58.21-31.91 47 47 0 1 1-58.22 31.92z"
    fill="#FF6E6E"
    p-id="32819"
  ></path>
  <path
    d="M630 478.73l26.53-63.41 17.7-6.32c1.48 0 2.95-0.05 4.39-0.1l0.85-0.25a0.33 0.33 0 0 1 0.42 0.18 113 113 0 0 0 67.9-26.68C784 352 795.92 301.2 775.39 258.82c-12.25-25.3-31.21-37.92-51.72-43.21-52.07-13.44-104 22.75-110.7 76.11l-23.58 187z m49.66-222.38a46.95 46.95 0 1 1-31.95 58.21 47 47 0 0 1 31.93-58.21z"
    fill="#FF6E6E"
    p-id="32820"
  ></path>
  <path
    d="M450.94 386.11a123.62 123.62 0 0 0 35.72 21 113.36 113.36 0 0 0 19.79 5.46c5.65 1 14.16 3.37 19.55 0.92l-4.33 0.57c2 0.59 4.16 0.24 6 0.61a45.64 45.64 0 0 1 5.87 2.11l11.13 4-3.92-3.93 26.52 63.4c1 2.33 2.72 4.13 5.43 4.13H630c2.74 0 4.45-1.8 5.43-4.13l26.52-63.41-3.95 3.91 11.13-4a53.29 53.29 0 0 1 5.67-2c1.89-0.43 4.07-0.06 6.17-0.68l-4.34-0.57c4.79 2.07 11.25 0.39 16.31-0.37a115 115 0 0 0 19.2-4.62 118.31 118.31 0 0 0 32-16.37 114 114 0 0 0 40.07-51.91c15.38-40.62 4.36-92.78-32.55-118.2-34.33-23.63-82.12-17.73-112.66 9.12a95.75 95.75 0 0 0-30.27 52c-1.76 8.54-2.49 17.39-3.58 26L595.71 384H607l-7.05-55.95c-2.64-21-3.43-43.81-11.89-63.43-14.38-33.32-47.81-56.19-84.09-57.42-18-0.6-36.68 4.1-51.73 14-16.77 11.08-28.37 28.21-34.86 47.05-14.46 42 0 89.4 33.6 117.81 5.5 4.64 13.5-3.27 8-8-27.51-23.23-41.65-60-33.87-95.62 4-18.1 13-35.56 27.41-47.54 12.92-10.76 30-16.18 46.7-16.55 33.49-0.74 64.62 19.59 78.34 50 7.79 17.27 8.42 37.69 10.76 56.26l7.39 59.39c0.91 7.22 10.34 7.23 11.25 0l10.31-81.72c2-15.58 4.92-30.38 13.37-44a85.07 85.07 0 0 1 59.52-39.08c24.69-3.56 51 4.5 67.78 23.24 18.26 20.35 25.25 50.34 20.35 77a101.32 101.32 0 0 1-43.94 65.85A109.11 109.11 0 0 1 691.58 402c-1.68 0.27-3.37 0.5-5.06 0.68-1 0.11-2.29 0.08-3.31 0.3 0 0-2.56 0.61-1.28 0.45 0.9-0.11-0.56-0.22-1-0.23h-3c-1.08 0-2.57 0-3.75 0.16-2.93 0.31-5.79 1.73-8.54 2.72-5.35 1.91-12.59 2.93-15 8.57l-6.65 15.89-18.12 43.56-1.31 3.14 5.42-4.13h-57.32l5.42 4.13-20.86-49.86c-2.09-5-4.36-15.2-9.75-17.53-4.23-1.83-8.77-3.14-13.1-4.69a43.7 43.7 0 0 0-4.41-1.58 25.64 25.64 0 0 0-4.88-0.25c-0.77 0-0.66-0.39-1.92-0.33l-1.49 0.2q-2.37 1.24-0.58-0.1a108.83 108.83 0 0 1-62.19-25c-5.53-4.55-13.53 3.36-7.96 8.01z"
    fill="#141E3D"
    p-id="32821"
  ></path>
  <path
    d="M681.13 261.77c16.6-4.57 34.79 1.1 45 15.24a41.36 41.36 0 1 1-45-15.24c6.9-2.12 4-13-3-10.85a53.35 53.35 0 0 0-37.85 47.37c-1.45 21.59 11.44 42.48 31.17 51.16 19.92 8.76 43.9 4.31 59.07-11.43a53.21 53.21 0 0 0 9.16-60.32c-11.18-22.56-37.6-33.37-61.55-26.78-6.96 1.92-4 12.78 3 10.85zM470.26 289.76c5.6-16.11 18.95-28.4 36.54-29.57a41.88 41.88 0 0 1 40.33 23.25c7.82 15.89 4.09 35.59-8.61 47.81a41.32 41.32 0 0 1-68.26-41.49c1.93-7-8.92-10-10.85-3a52.57 52.57 0 0 0 80.89 57.54c18-13 26.46-36.46 20-57.88A53.25 53.25 0 0 0 513.53 249a52.16 52.16 0 0 0-34 9.57c-9.95 7.15-16.12 16.78-20.1 28.22-2.43 6.84 8.46 9.78 10.83 2.97z"
    fill="#141E3D"
    p-id="32822"
  ></path>
  <path
    d="M578.23 467.56h50.39c4.85 0 8.82 3.47 8.82 7.72l-12.5 371.48c0 4.23-4 7.72-8.8 7.72h-25.42c-4.85 0-8.82-3.48-8.81-7.72l-12.49-371.47c0-4.29 3.96-7.73 8.81-7.73z"
    fill="#F1DDD5"
    p-id="32823"
  ></path>
  <path
    d="M578.23 473.19h45.28c2.73 0 7.65-0.88 8.29 2.56 0.31 1.68-0.13 3.84-0.19 5.53l-2.39 71L625.36 667l-3.79 112.86-2.16 64c0 1 0.24 2.69-0.3 3.6-1.35 2.3-7 1.4-9.14 1.4h-13.92c-3.11 0-7.85 0.92-8.54-2.88a43 43 0 0 1-0.21-6.22l-2.45-72.89L581 651l-3.75-111.6-2.08-61.8c-0.08-2.38-0.41-4.2 3.11-4.45 7.18-0.51 7.23-11.77 0-11.25-8.1 0.58-14.4 5.85-14.4 14.25 0 2.24 0.15 4.48 0.22 6.72l1 30.31 3.57 106.18 4.15 123.42 3 88.73c0.17 5 0.17 10.1 0.51 15.12a13.74 13.74 0 0 0 7.56 11.8c3.6 1.83 7.52 1.63 11.42 1.63H610c3.37 0 7.17 0.37 10.44-0.59 10.6-3.12 10.15-12.67 10.45-21.33l1-31.28 3.6-107.19 4.15-123.2 2.93-87.28c0.16-4.61 0.62-9.32 0.47-13.93-0.35-10.57-9.92-13.36-18.65-13.36h-46.16c-7.23 0.04-7.23 11.29 0 11.29z"
    fill="#141E3D"
    p-id="32824"
  ></path>
  <path
    d="M951.55 477.81H722.4v124.28a8.6 8.6 0 0 0 8.57 8.57h220.58a23 23 0 0 0 23-23v-86.85a23 23 0 0 0-23-23z"
    fill="#72C1E8"
    p-id="32825"
  ></path>
  <path
    d="M906.83 536.83m-27.68 0a27.68 27.68 0 1 0 55.36 0 27.68 27.68 0 1 0-55.36 0Z"
    fill="#465051"
    p-id="32826"
  ></path>
  <path
    d="M951.55 474.23H722.4a5.71 5.71 0 0 0-5.62 5.63v106.87c0 5.57-0.18 11.17 0 16.74 0.28 8.62 6.23 14.59 14.85 14.86 11.06 0.35 22.19 0 33.25 0h179.79c2.75 0 5.53 0.12 8.28 0 15.41-0.92 26.88-13.53 27.22-28.76 0.39-17.53 0-35.1 0-52.63v-28.63c0-9.08-1-17.62-7.49-24.74a29.31 29.31 0 0 0-21.13-9.34c-7.24-0.22-7.23 11 0 11.25 11.29 0.34 17.37 9.29 17.37 19.77v80.89c0 9.23-3.34 18.11-13.41 20.49-3 0.71-6.33 0.45-9.4 0.45H735.6c-3 0-6.79 0.81-7.57-3-0.71-3.39 0-7.7 0-11.13V479.86l-5.63 5.62h229.15c7.24 0 7.25-11.25 0-11.25z"
    fill="#141E3D"
    p-id="32827"
  ></path>
  <path
    d="M928.88 538.87a22.06 22.06 0 1 1-22-22c12.26 0 21.75 10 22 22 0.18 7.23 11.43 7.26 11.25 0a33.87 33.87 0 0 0-22-31.28 33.29 33.29 0 1 0-5.11 64c15.78-2.81 26.67-17 27.06-32.69 0.23-7.27-11.02-7.27-11.2-0.03z"
    fill="#141E3D"
    p-id="32828"
  ></path>
  <path
    d="M798.53 150.78c-24.75-5.72-35.34-28.72-38.28-36.56a1 1 0 0 0-1.8 0c-2.93 7.84-13.53 30.84-38.27 36.56h-0.09a1 1 0 0 0-0.23 1.8c10.48 4.92 36.92 19.95 39.32 47.18h0.35c2.37-27.4 28.76-42.3 39.27-47.18a1 1 0 0 0-0.27-1.8z"
    fill="#FFCD2C"
    p-id="32829"
  ></path>
  <path
    d="M800 145.35c-13.29-3-23.58-12.37-30.23-23.95-2.1-3.66-3.14-9.05-6.15-11.72a6.51 6.51 0 0 0-9.22 0.56c-1.63 1.87-2 3.89-2.85 5.82-5.24 11.23-13.44 21.32-24.89 26.6-4.79 2.22-17.76 4.31-11.81 12.74 2.51 3.57 8.87 5.47 12.53 7.8 13 8.27 24.44 20.66 26.09 36.57 0.32 3 2.33 5.63 5.63 5.63h0.35c3.27 0 5.31-2.59 5.62-5.63 1.39-13.5 9.89-24.71 20.42-32.74a85.25 85.25 0 0 1 12.69-7.92c2-1.05 4.1-1.78 5.48-3.71 2.47-3.46 0.79-7.22-2.32-9.48-5.87-4.26-11.49 5.5-5.68 9.71l0.65 0.48-2.78-4.86 0.09 0.74 1.65-4c-0.73 0.84-3.36 1.68-4.54 2.32q-3.24 1.77-6.33 3.78a86.37 86.37 0 0 0-13.19 10.46c-9.78 9.57-16 21.54-17.39 35.2l5.63-5.62h-0.35l5.62 5.62c-1.42-13.65-7.64-25.52-17.41-35.1A86.94 86.94 0 0 0 734 154c-2-1.29-4-2.5-6-3.63-1.21-0.66-3.86-1.5-4.63-2.39l1.65 4 0.09-0.74-2.78 4.86c-1.09 0.17-0.82 0.07 0.83-0.28 0.94-0.24 1.87-0.52 2.78-0.82 1.34-0.45 2.64-1 3.94-1.5a52.22 52.22 0 0 0 8.39-4.37 58.56 58.56 0 0 0 12.89-11.44 72.92 72.92 0 0 0 8.36-12.24c0.89-1.65 1.71-3.34 2.48-5.06 0.38-0.86 0.75-1.72 1.1-2.58 0.57-1.45 1.61-1.92-0.08-0.18l-4 1.65h0.73l-4-1.65c-1.69-1.74-0.65-1.27-0.08 0.18 0.35 0.86 0.72 1.73 1.1 2.58 0.77 1.72 1.59 3.41 2.48 5.06a72.92 72.92 0 0 0 8.36 12.24c7.54 9 18 15.9 29.49 18.5 7 1.6 10.01-9.19 2.9-10.84z"
    fill="#141E3D"
    p-id="32830"
  ></path>
  <path
    d="M126.67 472.48c-24.74-5.71-35.34-28.72-38.28-36.55a1 1 0 0 0-1.79 0c-2.94 7.83-13.54 30.84-38.28 36.55h-0.09a1 1 0 0 0-0.23 1.82c10.48 4.92 36.93 19.94 39.32 47.18h0.35c2.37-27.41 28.76-42.31 39.28-47.19a1 1 0 0 0-0.28-1.81z"
    fill="#FFCD2C"
    p-id="32831"
  ></path>
  <path
    d="M128.18 467.06c-13.29-3-23.57-12.37-30.22-24-2.1-3.66-3.15-9.05-6.16-11.71a6.51 6.51 0 0 0-9.22 0.55c-1.62 1.87-2 3.89-2.85 5.82-5.24 11.28-13.44 21.36-24.88 26.65-4.8 2.21-17.76 4.3-11.82 12.74 2.52 3.57 8.88 5.47 12.54 7.8 13 8.27 24.43 20.66 26.09 36.57 0.31 3 2.32 5.62 5.62 5.62h0.35c3.27 0 5.32-2.59 5.63-5.62 1.38-13.51 9.89-24.71 20.42-32.75a86.51 86.51 0 0 1 12.68-7.92c2-1.05 4.1-1.78 5.48-3.71 2.48-3.46 0.79-7.22-2.32-9.48-5.86-4.26-11.48 5.5-5.68 9.72l0.65 0.47-2.78-4.81 0.09 0.74 1.65-4c-0.73 0.84-3.35 1.67-4.53 2.31a96.311 96.311 0 0 0-6.34 3.78 87.61 87.61 0 0 0-13.19 10.46c-9.78 9.58-16 21.55-17.38 35.21l5.62-5.63h-0.35l5.63 5.63c-1.42-13.66-7.64-25.53-17.42-35.11a87.54 87.54 0 0 0-13.4-10.63q-3-1.92-6-3.62c-1.21-0.67-3.86-1.51-4.62-2.4l1.64 4 0.1-0.74-2.79 4.85q-1.64 0.26 0.84-0.27a46.5 46.5 0 0 0 2.78-0.83c1.33-0.44 2.63-0.95 3.93-1.5a51.34 51.34 0 0 0 8.39-4.36 58.82 58.82 0 0 0 12.89-11.44 73.75 73.75 0 0 0 8.36-12.24q1.34-2.49 2.48-5.07c0.38-0.85 0.75-1.71 1.1-2.58 0.58-1.45 1.61-1.92-0.08-0.18l-4 1.65h0.73l-4-1.65c-1.68-1.74-0.65-1.27-0.07 0.18 0.34 0.86 0.72 1.73 1.09 2.58 0.77 1.72 1.59 3.41 2.49 5.07a73.88 73.88 0 0 0 8.35 12.24c7.55 9 18 15.89 29.49 18.49 7.05 1.56 10.06-9.29 2.99-10.88z"
    fill="#141E3D"
    p-id="32832"
  ></path>
</svg>
