<svg
  t="1632291189182"
  class="icon"
  viewBox="0 0 1031 1024"
  version="1.1"
  xmlns="http://www.w3.org/2000/svg"
  p-id="20717"
  width="32"
  height="32"
>
  <path
    d="M884.796928 0a146.3296 146.3296 0 0 1 145.92 135.3728l0.3584 10.9056v731.136a146.3296 146.3296 0 0 1-135.3728 145.92l-10.9056 0.4096H154.172928a49.1008 49.1008 0 0 1-48.4864-41.984l-0.512-7.2704v-49.1008c0-17.92 12.9024-32.8704 29.952-35.9936l6.6048-0.5632h45.056c54.2208 0 98.0992-44.032 98.0992-98.4064 0-51.1488-38.912-93.184-88.576-97.9456l-9.472-0.4608H141.731328a36.608 36.608 0 0 1-35.9936-30.0032l-0.6144-6.5536v-8.8576c0-17.92 12.9536-32.8704 30.0032-35.9424l6.6048-0.6144h45.056c54.2208 0 98.0992-44.032 98.0992-98.304 0-51.2-38.912-93.184-88.576-97.9456l-9.472-0.4608H141.731328a36.608 36.608 0 0 1-35.9936-30.0032l-0.6144-6.5536v-8.8576c0-17.92 12.9536-32.8704 30.0032-35.9424l6.6048-0.6144h45.056c54.2208 0 98.0992-44.032 98.0992-98.4064 0-51.0976-38.912-93.184-88.576-97.9456l-9.472-0.4608H141.731328a36.608 36.608 0 0 1-35.9936-30.0032l-0.6144-6.5536V49.152a49.152 49.152 0 0 1 41.7792-48.64L154.172928 0h730.624zM186.787328 741.2224a49.152 49.152 0 0 1 7.2192 97.792l-7.2192 0.512H56.073728a49.152 49.152 0 0 1-7.2192-97.792l7.2192-0.512h130.7648z m426.9056-424.704l-2.56 6.4-35.1232 111.0016H458.659328a46.3872 46.3872 0 0 0-34.2016 77.7216l5.5296 5.12 93.5424 73.5744-33.4848 116.1216a46.3872 46.3872 0 0 0 66.0992 53.9136l6.4-4.0448 87.8592-66.2528 93.44 70.5536a46.3872 46.3872 0 0 0 74.0864-41.8816l-1.2288-6.7584-31.8976-123.2896 91.9552-71.8336a46.3872 46.3872 0 0 0-21.7088-82.432l-6.8608-0.512h-113.664l-34.816-110.8992a46.3872 46.3872 0 0 0-85.9648-6.5024z m-426.9056 145.92a49.152 49.152 0 0 1 49.0496 49.2032 49.152 49.152 0 0 1-41.8304 48.64l-7.2192 0.512H56.073728a49.152 49.152 0 1 1-7.2192-97.8432l7.2192-0.512h130.7648z m0-278.6816a49.152 49.152 0 1 1 7.2704 97.792l-7.3216 0.512H56.073728A49.152 49.152 0 0 1 7.075328 232.96a49.152 49.152 0 0 1 41.7792-48.64l7.2192-0.512H186.787328z"
    fill="currentColor"
    p-id="20718"
  ></path>
</svg>
