<svg
  t="1638093765171"
  class="icon"
  viewBox="0 0 1024 1024"
  version="1.1"
  xmlns="http://www.w3.org/2000/svg"
  p-id="8817"
  width="16"
  height="16"
>
  <path
    d="M98 98.85l827.99 0 0 618-827.99 0 0-618Z"
    fill="#01B0F1"
    p-id="8818"
  ></path>
  <path
    d="M907 99.85a18 18 0 0 1 18 18v580a18 18 0 0 1-18 18H117a18 18 0 0 1-18-18v-580a18 18 0 0 1 18-18h790m0-2H117a20.06 20.06 0 0 0-20 20v580a20.06 20.06 0 0 0 20 20h790a20.06 20.06 0 0 0 20-20v-580a20.06 20.06 0 0 0-20-20z"
    fill="#0E6EC5"
    p-id="8819"
  ></path>
  <path
    d="M897 127.85l0 560-770 0 0-560 770 0Z"
    fill="#FFF8B8"
    p-id="8820"
  ></path>
  <path
    d="M256.7 877.15l509.95 0 0 48-509.95 0 0-48Z"
    fill="#01B0F1"
    p-id="8821"
  ></path>
  <path
    d="M742.77 878.15A22.9 22.9 0 0 1 765.65 901v0.24a22.9 22.9 0 0 1-22.88 22.88H280.58a22.9 22.9 0 0 1-22.88-22.88V901a22.9 22.9 0 0 1 22.88-22.88h462.19m0-2H280.58A25 25 0 0 0 255.7 901v0.24a25 25 0 0 0 24.88 24.88h462.19a25 25 0 0 0 24.88-24.88V901a25 25 0 0 0-24.88-24.88z"
    fill="#0E6EC5"
    p-id="8822"
  ></path>
  <path
    d="M791.5 701.16m-130 0a130 130 0 1 0 260 0 130 130 0 1 0-260 0Z"
    fill="#FFBE00"
    p-id="8823"
  ></path>
  <path
    d="M691.6 707h-6.42v10.95a5.52 5.52 0 0 1-1 3.56 3.24 3.24 0 0 1-5 0 5.52 5.52 0 0 1-1-3.52v-29.83a5.24 5.24 0 0 1 1.06-3.69 4.49 4.49 0 0 1 3.37-1.11h9a21.2 21.2 0 0 1 6.13 0.69 8.89 8.89 0 0 1 3.67 2.19 10 10 0 0 1 2.35 3.75 14.6 14.6 0 0 1 0.8 5q0 5.91-3.25 9T691.6 707z m-1.7-17.73h-4.72v11.82h4.72a12.68 12.68 0 0 0 4.14-0.58 4.84 4.84 0 0 0 2.54-1.9 6.16 6.16 0 0 0 0.87-3.46 6.29 6.29 0 0 0-1.35-4.15q-1.51-1.75-6.2-1.75zM719.81 705.5h-2.45v12.43a5.59 5.59 0 0 1-1 3.61 3.13 3.13 0 0 1-2.52 1.16 3.07 3.07 0 0 1-2.59-1.21 5.83 5.83 0 0 1-0.92-3.56v-29.77a5.43 5.43 0 0 1 1-3.67 4.2 4.2 0 0 1 3.28-1.13H726a31.15 31.15 0 0 1 4 0.22 9.31 9.31 0 0 1 3 0.91 8.77 8.77 0 0 1 2.88 2.19 9.78 9.78 0 0 1 1.9 3.31 12.2 12.2 0 0 1 0.65 4 10.37 10.37 0 0 1-2.18 6.91 12.11 12.11 0 0 1-6.62 3.67 13.23 13.23 0 0 1 3.56 3.27 33.24 33.24 0 0 1 3 4.6 35.78 35.78 0 0 1 2.08 4.41 9.5 9.5 0 0 1 0.74 2.71 3 3 0 0 1-0.44 1.52 3.21 3.21 0 0 1-1.19 1.19 3.43 3.43 0 0 1-1.75 0.44 3.14 3.14 0 0 1-2-0.62 5.71 5.71 0 0 1-1.38-1.57q-0.58-1-1.57-2.8l-2.68-5.23a29.1 29.1 0 0 0-2.7-4.38 6.8 6.8 0 0 0-2.42-2.06 7.52 7.52 0 0 0-3.07-0.55z m4-16.25h-6.46v10.63h6.27a15.83 15.83 0 0 0 4.25-0.49 4.89 4.89 0 0 0 2.63-1.66 5.16 5.16 0 0 0 0.91-3.23 5.43 5.43 0 0 0-0.73-2.84 4.56 4.56 0 0 0-2-1.83 13.15 13.15 0 0 0-4.86-0.58zM760.36 682.7a16.91 16.91 0 0 1 9.24 2.44 15.24 15.24 0 0 1 5.84 6.94 26 26 0 0 1 2 10.57 28.69 28.69 0 0 1-1.09 8.15 18.25 18.25 0 0 1-3.25 6.36 14.31 14.31 0 0 1-5.33 4.12 18.94 18.94 0 0 1-14.51 0 14.5 14.5 0 0 1-5.36-4.13 18.29 18.29 0 0 1-3.24-6.41 28.73 28.73 0 0 1-1.1-8.1 27.71 27.71 0 0 1 1.14-8.18 18.08 18.08 0 0 1 3.31-6.33 14.38 14.38 0 0 1 5.28-4 17.24 17.24 0 0 1 7.07-1.43z m10 19.89a20.06 20.06 0 0 0-1.23-7.36 10.05 10.05 0 0 0-3.5-4.71 8.88 8.88 0 0 0-5.23-1.6 8.5 8.5 0 0 0-6.95 3.46 12.82 12.82 0 0 0-2 4.31 21.65 21.65 0 0 0-0.74 5.9 22.18 22.18 0 0 0 0.74 6 12.74 12.74 0 0 0 2.1 4.42 9 9 0 0 0 3.11 2.63 8.56 8.56 0 0 0 3.86 0.87 8.71 8.71 0 0 0 4.94-1.5 10.14 10.14 0 0 0 3.59-4.64 19.81 19.81 0 0 0 1.26-7.77zM803.5 687.45v20.26a42.45 42.45 0 0 1-0.2 4.49 15.53 15.53 0 0 1-0.91 3.75 9.86 9.86 0 0 1-3.89 5 11.78 11.78 0 0 1-6.61 1.78 12.45 12.45 0 0 1-5.86-1.24 9.08 9.08 0 0 1-3.79-4A15.66 15.66 0 0 1 781 714a15.44 15.44 0 0 1-0.47-3.67 4 4 0 0 1 0.92-2.82 3.1 3.1 0 0 1 2.36-1 2.51 2.51 0 0 1 2.1 0.9 6.67 6.67 0 0 1 1.08 2.8 28 28 0 0 0 0.8 3.25 4.87 4.87 0 0 0 1.34 2.09 3.82 3.82 0 0 0 2.69 0.87q4.65 0 4.65-7.63v-21.4a5.7 5.7 0 0 1 0.93-3.56 3.05 3.05 0 0 1 2.6-1.13 3.14 3.14 0 0 1 2.58 1.19 5.6 5.6 0 0 1 0.92 3.56zM833.89 689.41h-15.78v9.5h14.53a3.22 3.22 0 0 1 2.39 0.8 2.9 2.9 0 0 1 0.79 2.12A3 3 0 0 1 835 704a3.15 3.15 0 0 1-2.41 0.83h-14.48v11h16.32a3.33 3.33 0 0 1 2.49 0.86 3.13 3.13 0 0 1 0.84 2.28 3.06 3.06 0 0 1-0.84 2.23 3.33 3.33 0 0 1-2.49 0.86h-19a4.19 4.19 0 0 1-3.29-1.13 5.47 5.47 0 0 1-1-3.67v-29.1a7.2 7.2 0 0 1 0.45-2.76 3 3 0 0 1 1.4-1.56 5.37 5.37 0 0 1 2.44-0.49h18.49a3.34 3.34 0 0 1 2.49 0.83 3 3 0 0 1 0.81 2.18 3 3 0 0 1-0.81 2.2 3.34 3.34 0 0 1-2.52 0.85zM872.79 709.83a11.36 11.36 0 0 1-0.81 4 14.63 14.63 0 0 1-2.56 4.22 13.1 13.1 0 0 1-4.46 3.36 14.56 14.56 0 0 1-6.32 1.29 19.87 19.87 0 0 1-5-0.58 13.16 13.16 0 0 1-4.07-1.81 14.28 14.28 0 0 1-3.36-3.23 19.64 19.64 0 0 1-2.33-4.08 23 23 0 0 1-1.45-4.82 29.23 29.23 0 0 1-0.48-5.44 26.7 26.7 0 0 1 1.21-8.36 18.29 18.29 0 0 1 3.48-6.32 15.21 15.21 0 0 1 5.31-4 15.61 15.61 0 0 1 6.49-1.37 14.81 14.81 0 0 1 7.48 1.87 14 14 0 0 1 5 4.63 9.83 9.83 0 0 1 1.75 5.21 3.62 3.62 0 0 1-0.85 2.37 2.57 2.57 0 0 1-2.05 1 2.65 2.65 0 0 1-2-0.71 10 10 0 0 1-1.5-2.45 11.57 11.57 0 0 0-3.22-4.3 7.27 7.27 0 0 0-4.56-1.42 8 8 0 0 0-6.88 3.67q-2.56 3.67-2.56 10.42a21.43 21.43 0 0 0 1.13 7.51 9.35 9.35 0 0 0 3.22 4.51 8.16 8.16 0 0 0 4.86 1.48 7.9 7.9 0 0 0 5.11-1.68 10.14 10.14 0 0 0 3.15-4.92 8.78 8.78 0 0 1 1.11-2.49 2.39 2.39 0 0 1 2.12-1 2.82 2.82 0 0 1 2.15 1 3.46 3.46 0 0 1 0.89 2.44zM901.54 689.83h-7.64v28.1a5.59 5.59 0 0 1-1 3.6 3.09 3.09 0 0 1-2.5 1.17 3.13 3.13 0 0 1-2.54-1.19 5.55 5.55 0 0 1-1-3.59v-28.1h-7.64a3.6 3.6 0 0 1-2.67-0.88 3.18 3.18 0 0 1-0.87-2.34 3.14 3.14 0 0 1 0.91-2.37 3.66 3.66 0 0 1 2.63-0.87h22.27a3.64 3.64 0 0 1 2.7 0.9 3.2 3.2 0 0 1 0.88 2.35 3.13 3.13 0 0 1-0.9 2.34 3.68 3.68 0 0 1-2.63 0.88z"
    fill="#FFFFFF"
    p-id="8824"
  ></path>
  <path
    d="M248.34 180.3a4.35 4.35 0 0 1 1.61 0.29l27.4 10.41a4.38 4.38 0 0 1 2.53 5.64l-40.59 106.51a4.37 4.37 0 0 1-5.64 2.53l-27.41-10.45a4.37 4.37 0 0 1-2.53-5.64l40.59-106.48a4.35 4.35 0 0 1 4-2.82m0-2.12a6.49 6.49 0 0 0-6 4.18l-40.56 106.49a6.49 6.49 0 0 0 3.75 8.37l27.41 10.45a6.48 6.48 0 0 0 8.37-3.75l40.59-106.48a6.49 6.49 0 0 0-3.75-8.37l-27.41-10.45a6.47 6.47 0 0 0-2.39-0.43z"
    fill="#0E6EC5"
    p-id="8825"
  ></path>
  <path
    d="M245.398285 201.510156l21.079864 8.036973-1.172058 3.074147-21.079864-8.036973 1.172058-3.074147Z"
    fill="#FFBE00"
    p-id="8826"
  ></path>
  <path
    d="M242.226029 209.850109l21.079864 8.036973-1.172058 3.074147-21.079864-8.036973 1.172058-3.074147Z"
    fill="#FFBE00"
    p-id="8827"
  ></path>
  <path
    d="M239.039907 218.19935l21.079864 8.036973-1.172058 3.074147-21.079864-8.036973 1.172058-3.074147Z"
    fill="#FFBE00"
    p-id="8828"
  ></path>
  <path
    d="M289.48 184.08h0.11l23.41 0.35a3.81 3.81 0 0 1 3.75 3.86L315 303.37a3.79 3.79 0 0 1-3.76 3.75h-0.11l-23.41-0.35a3.81 3.81 0 0 1-3.72-3.87l1.74-115.07a3.79 3.79 0 0 1 3.76-3.75m0-2.12a5.92 5.92 0 0 0-5.85 5.83l-1.74 115.07a5.92 5.92 0 0 0 5.83 6l23.41 0.35h0.17a5.92 5.92 0 0 0 5.85-5.83l1.74-115.07a5.92 5.92 0 0 0-5.83-6l-23.46-0.31z"
    fill="#0E6EC5"
    p-id="8829"
  ></path>
  <path
    d="M294.46115 203.747374l13.048496 0.198148-0.049955 3.289621-13.048495-0.198148 0.049954-3.289621Z"
    fill="#FFBE00"
    p-id="8830"
  ></path>
  <path
    d="M294.325578 212.674219l13.048495 0.198148-0.049954 3.289621-13.048496-0.198149 0.049955-3.28962Z"
    fill="#FFBE00"
    p-id="8831"
  ></path>
  <path
    d="M294.179999 221.611055l13.048495 0.198148-0.049954 3.289621-13.048496-0.198148 0.049955-3.289621Z"
    fill="#FFBE00"
    p-id="8832"
  ></path>
  <path
    d="M324.73 184.62h0.11l23.41 0.35a3.81 3.81 0 0 1 3.75 3.86l-1.74 115.07a3.79 3.79 0 0 1-3.76 3.75h-0.11L323 307.3a3.81 3.81 0 0 1-3.75-3.87L321 188.37a3.79 3.79 0 0 1 3.76-3.75m0-2.12a5.92 5.92 0 0 0-5.85 5.83l-1.79 115.07a5.92 5.92 0 0 0 5.83 6l23.41 0.35h0.17a5.92 5.92 0 0 0 5.85-5.83l1.74-115.07a5.92 5.92 0 0 0-5.83-6l-23.41-0.35z"
    fill="#0E6EC5"
    p-id="8833"
  ></path>
  <path
    d="M329.719037 204.282536l13.048496 0.198148-0.049955 3.289621-13.048495-0.198149 0.049954-3.28962Z"
    fill="#FFBE00"
    p-id="8834"
  ></path>
  <path
    d="M329.573458 213.209381l13.048496 0.198148-0.049955 3.289621-13.048495-0.198149 0.049954-3.28962Z"
    fill="#FFBE00"
    p-id="8835"
  ></path>
  <path
    d="M329.447885 222.136377l13.048495 0.198149-0.049954 3.28962-13.048496-0.198148 0.049955-3.289621Z"
    fill="#FFBE00"
    p-id="8836"
  ></path>
  <path
    d="M186.367486 307.593733l180.959137 2.747961-0.057547 3.789563-180.959136-2.747961 0.057546-3.789563Z"
    fill="#0FCE9A"
    p-id="8837"
  ></path>
  <path
    d="M485.18 183a4.35 4.35 0 0 1 1.61 0.29l27.41 10.45a4.37 4.37 0 0 1 2.53 5.64l-40.59 106.46a4.37 4.37 0 0 1-5.64 2.53l-27.41-10.45a4.37 4.37 0 0 1-2.53-5.64l40.59-106.48a4.35 4.35 0 0 1 4-2.82m0-2.12a6.49 6.49 0 0 0-6 4.18l-40.57 106.48a6.49 6.49 0 0 0 3.75 8.37l27.41 10.45a6.48 6.48 0 0 0 8.37-3.75l40.59-106.48a6.49 6.49 0 0 0-3.75-8.37l-27.41-10.45a6.47 6.47 0 0 0-2.39-0.43z"
    fill="#0E6EC5"
    p-id="8838"
  ></path>
  <path
    d="M482.234995 204.198022l21.079864 8.036973-1.172058 3.074147-21.079864-8.036973 1.172058-3.074147Z"
    fill="#FFBE00"
    p-id="8839"
  ></path>
  <path
    d="M479.058755 212.547609l21.079864 8.036973-1.172059 3.074147-21.079864-8.036973 1.172059-3.074147Z"
    fill="#FFBE00"
    p-id="8840"
  ></path>
  <path
    d="M475.876195 220.887506l21.079864 8.036973-1.172058 3.074147-21.079864-8.036973 1.172058-3.074147Z"
    fill="#FFBE00"
    p-id="8841"
  ></path>
  <path
    d="M526.32 186.77h0.11l23.41 0.35a3.81 3.81 0 0 1 3.75 3.86l-1.74 115.07a3.79 3.79 0 0 1-3.76 3.75H548l-23.41-0.35a3.81 3.81 0 0 1-3.75-3.87l1.74-115.07a3.79 3.79 0 0 1 3.76-3.75m0-2.12a5.92 5.92 0 0 0-5.85 5.83l-1.74 115.07a5.92 5.92 0 0 0 5.83 6l23.41 0.35h0.17a5.92 5.92 0 0 0 5.85-5.83L555.7 191a5.92 5.92 0 0 0-5.83-6l-23.41-0.35z"
    fill="#0E6EC5"
    p-id="8842"
  ></path>
  <path
    d="M531.303156 206.443181l13.048496 0.198148-0.049955 3.289621-13.048496-0.198148 0.049955-3.289621Z"
    fill="#FFBE00"
    p-id="8843"
  ></path>
  <path
    d="M531.167568 215.370026l13.048496 0.198148-0.049955 3.289621-13.048495-0.198148 0.049954-3.289621Z"
    fill="#FFBE00"
    p-id="8844"
  ></path>
  <path
    d="M531.032003 224.297023l13.048496 0.198148-0.049955 3.289621-13.048495-0.198149 0.049954-3.28962Z"
    fill="#FFBE00"
    p-id="8845"
  ></path>
  <path
    d="M561.58 187.3h0.11l23.41 0.35a3.81 3.81 0 0 1 3.75 3.86l-1.75 115.08a3.79 3.79 0 0 1-3.76 3.75h-0.11l-23.4-0.34a3.81 3.81 0 0 1-3.75-3.86l1.74-115.07a3.79 3.79 0 0 1 3.76-3.75m0-2.12a5.92 5.92 0 0 0-5.88 5.8L554 306.09a5.92 5.92 0 0 0 5.83 6l23.41 0.35h0.17a5.92 5.92 0 0 0 5.85-5.83L591 191.55a5.92 5.92 0 0 0-5.83-6l-23.41-0.35z"
    fill="#0E6EC5"
    p-id="8846"
  ></path>
  <path
    d="M566.550885 206.97835l13.048495 0.198149-0.049954 3.28962-13.048496-0.198148 0.049955-3.289621Z"
    fill="#FFBE00"
    p-id="8847"
  ></path>
  <path
    d="M566.425311 215.915354l13.048496 0.198148-0.049955 3.289621-13.048496-0.198149 0.049955-3.28962Z"
    fill="#FFBE00"
    p-id="8848"
  ></path>
  <path
    d="M566.279732 224.842198l13.048495 0.198149-0.049954 3.289621-13.048496-0.198149 0.049955-3.289621Z"
    fill="#FFBE00"
    p-id="8849"
  ></path>
  <path
    d="M423.209348 310.289699l180.959136 2.747961-0.057546 3.789563-180.959137-2.74796 0.057547-3.789564Z"
    fill="#0FCE9A"
    p-id="8850"
  ></path>
  <path
    d="M722 185.63a4.35 4.35 0 0 1 1.61 0.29L751 196.36a4.38 4.38 0 0 1 2.53 5.64L713 308.48a4.37 4.37 0 0 1-5.64 2.53l-27.41-10.45a4.37 4.37 0 0 1-2.53-5.64L718 188.44a4.35 4.35 0 0 1 4-2.82m0-2.12a6.49 6.49 0 0 0-6 4.18l-40.58 106.49a6.49 6.49 0 0 0 3.75 8.37L706.58 313a6.48 6.48 0 0 0 8.37-3.75l40.59-106.48a6.49 6.49 0 0 0-3.75-8.37l-27.41-10.45a6.47 6.47 0 0 0-2.39-0.43z"
    fill="#0E6EC5"
    p-id="8851"
  ></path>
  <path
    d="M719.081368 206.861719l21.079864 8.036973-1.172059 3.074147-21.079864-8.036973 1.172059-3.074147Z"
    fill="#FFBE00"
    p-id="8852"
  ></path>
  <path
    d="M715.898808 215.201616l21.079864 8.036973-1.172058 3.074147-21.079864-8.036973 1.172058-3.074147Z"
    fill="#FFBE00"
    p-id="8853"
  ></path>
  <path
    d="M712.71358 223.547706l21.079864 8.036973-1.172059 3.074147-21.079864-8.036973 1.172059-3.074147Z"
    fill="#FFBE00"
    p-id="8854"
  ></path>
  <path
    d="M763.17 189.41h0.11l23.41 0.35a3.81 3.81 0 0 1 3.75 3.86l-1.75 115.08a3.79 3.79 0 0 1-3.76 3.75h-0.11l-23.41-0.35a3.81 3.81 0 0 1-3.75-3.86l1.74-115.07a3.79 3.79 0 0 1 3.76-3.75m0-2.12a5.92 5.92 0 0 0-5.85 5.83l-1.76 115.07a5.92 5.92 0 0 0 5.83 6l23.41 0.35h0.21a5.92 5.92 0 0 0 5.85-5.83l1.74-115.07a5.92 5.92 0 0 0-5.83-6l-23.41-0.35z"
    fill="#0E6EC5"
    p-id="8855"
  ></path>
  <path
    d="M768.145617 209.099l13.048496 0.198149-0.049955 3.28962-13.048495-0.198148 0.049954-3.289621Z"
    fill="#FFBE00"
    p-id="8856"
  ></path>
  <path
    d="M768.010037 218.036004l13.048496 0.198148-0.049955 3.289621-13.048496-0.198149 0.049955-3.28962Z"
    fill="#FFBE00"
    p-id="8857"
  ></path>
  <path
    d="M767.874465 226.962848l13.048495 0.198149-0.049955 3.289621-13.048495-0.198149 0.049955-3.289621Z"
    fill="#FFBE00"
    p-id="8858"
  ></path>
  <path
    d="M798.42 189.95h0.11l23.41 0.35a3.81 3.81 0 0 1 3.75 3.86l-1.74 115.07a3.79 3.79 0 0 1-3.76 3.75h-0.11l-23.41-0.35a3.81 3.81 0 0 1-3.75-3.86l1.74-115.07a3.79 3.79 0 0 1 3.76-3.75m0-2.12a5.92 5.92 0 0 0-5.85 5.83l-1.74 115.07a5.92 5.92 0 0 0 5.83 6l23.41 0.35h0.17a5.92 5.92 0 0 0 5.85-5.83l1.71-115.05a5.92 5.92 0 0 0-5.83-6l-23.41-0.35z"
    fill="#0E6EC5"
    p-id="8859"
  ></path>
  <path
    d="M803.403497 209.634329l13.048495 0.198149-0.049954 3.28962-13.048496-0.198148 0.049955-3.289621Z"
    fill="#FFBE00"
    p-id="8860"
  ></path>
  <path
    d="M803.267909 218.561174l13.048496 0.198148-0.049955 3.289621-13.048496-0.198148 0.049955-3.289621Z"
    fill="#FFBE00"
    p-id="8861"
  ></path>
  <path
    d="M803.132344 227.488171l13.048495 0.198148-0.049954 3.289621-13.048496-0.198149 0.049955-3.28962Z"
    fill="#FFBE00"
    p-id="8862"
  ></path>
  <path
    d="M660.051945 312.945526l180.959137 2.747961-0.057547 3.789563-180.959136-2.74796 0.057546-3.789564Z"
    fill="#0FCE9A"
    p-id="8863"
  ></path>
  <path
    d="M245 402a4.35 4.35 0 0 1 1.61 0.29L274 412.71a4.38 4.38 0 0 1 2.53 5.64l-40.59 106.48a4.37 4.37 0 0 1-5.64 2.53l-27.41-10.45a4.37 4.37 0 0 1-2.53-5.64l40.59-106.48a4.35 4.35 0 0 1 4-2.82m0-2.12a6.49 6.49 0 0 0-6 4.18l-40.57 106.48a6.49 6.49 0 0 0 3.75 8.37l27.41 10.45a6.48 6.48 0 0 0 8.37-3.75l40.59-106.47a6.49 6.49 0 0 0-3.75-8.37l-27.41-10.45a6.47 6.47 0 0 0-2.39-0.43z"
    fill="#0E6EC5"
    p-id="8864"
  ></path>
  <path
    d="M242.029173 423.169638l21.079864 8.036973-1.172059 3.074147-21.079864-8.036973 1.172059-3.074147Z"
    fill="#FFBE00"
    p-id="8865"
  ></path>
  <path
    d="M238.853354 431.518935l21.079864 8.036973-1.172059 3.074147-21.079864-8.036973 1.172059-3.074147Z"
    fill="#FFBE00"
    p-id="8866"
  ></path>
  <path
    d="M235.67086 439.858476l21.079864 8.036973-1.172059 3.074146-21.079864-8.036973 1.172059-3.074146Z"
    fill="#FFBE00"
    p-id="8867"
  ></path>
  <path
    d="M286.12 405.76h0.11l23.41 0.35a3.81 3.81 0 0 1 3.75 3.86L311.65 525a3.79 3.79 0 0 1-3.76 3.75h-0.11l-23.41-0.35a3.81 3.81 0 0 1-3.75-3.86l1.74-115.07a3.79 3.79 0 0 1 3.76-3.75m0-2.12a5.92 5.92 0 0 0-5.85 5.83l-1.74 115.07a5.92 5.92 0 0 0 5.83 6l23.41 0.35h0.17a5.92 5.92 0 0 0 5.85-5.83L315.5 410a5.92 5.92 0 0 0-5.83-6l-23.41-0.35z"
    fill="#0E6EC5"
    p-id="8868"
  ></path>
  <path
    d="M291.095749 425.420795l13.048496 0.198148-0.049955 3.289621-13.048496-0.198148 0.049955-3.289621Z"
    fill="#FFBE00"
    p-id="8869"
  ></path>
  <path
    d="M290.960017 434.35779l13.048495 0.198149-0.049954 3.28962-13.048496-0.198148 0.049955-3.289621Z"
    fill="#FFBE00"
    p-id="8870"
  ></path>
  <path
    d="M290.824444 443.284635l13.048496 0.198149-0.049955 3.28962-13.048495-0.198148 0.049954-3.289621Z"
    fill="#FFBE00"
    p-id="8871"
  ></path>
  <path
    d="M321.38 406.29h0.11l23.41 0.35a3.81 3.81 0 0 1 3.75 3.86l-1.75 115.08a3.79 3.79 0 0 1-3.76 3.75H343l-23.37-0.33a3.81 3.81 0 0 1-3.75-3.86L317.62 410a3.79 3.79 0 0 1 3.76-3.75m0-2.12a5.92 5.92 0 0 0-5.88 5.87l-1.74 115.07a5.92 5.92 0 0 0 5.83 6l23.41 0.35h0.17a5.92 5.92 0 0 0 5.85-5.83l1.74-115.07a5.92 5.92 0 0 0-5.83-6l-23.41-0.35z"
    fill="#0E6EC5"
    p-id="8872"
  ></path>
  <path
    d="M326.343478 425.955964l13.048495 0.198148-0.049954 3.289621-13.048496-0.198148 0.049955-3.289621Z"
    fill="#FFBE00"
    p-id="8873"
  ></path>
  <path
    d="M326.207912 434.892952l13.048496 0.198149-0.049955 3.28962-13.048495-0.198148 0.049954-3.289621Z"
    fill="#FFBE00"
    p-id="8874"
  ></path>
  <path
    d="M326.072325 443.819797l13.048495 0.198148-0.049954 3.289621-13.048496-0.198148 0.049955-3.289621Z"
    fill="#FFBE00"
    p-id="8875"
  ></path>
  <path
    d="M183.00194 529.267313l180.959137 2.747961-0.057547 3.789563-180.959136-2.747961 0.057546-3.789563Z"
    fill="#0FCE9A"
    p-id="8876"
  ></path>
  <path
    d="M481.83 404.66a4.35 4.35 0 0 1 1.61 0.29l27.41 10.45a4.38 4.38 0 0 1 2.53 5.64l-40.6 106.47a4.37 4.37 0 0 1-5.64 2.53l-27.41-10.45a4.37 4.37 0 0 1-2.53-5.64l40.59-106.48a4.35 4.35 0 0 1 4-2.82m0-2.12a6.49 6.49 0 0 0-6 4.18L435.22 513.2a6.49 6.49 0 0 0 3.75 8.37L466.39 532a6.48 6.48 0 0 0 8.37-3.75l40.59-106.48a6.49 6.49 0 0 0-3.75-8.37L484.19 403a6.47 6.47 0 0 0-2.39-0.43z"
    fill="#0E6EC5"
    p-id="8877"
  ></path>
  <path
    d="M478.871598 425.870766l21.079864 8.036973-1.172058 3.074147-21.079864-8.036973 1.172058-3.074147Z"
    fill="#FFBE00"
    p-id="8878"
  ></path>
  <path d="" fill="#FFBE00" p-id="8879"></path>
  <path
    d="M472.512874 442.569841l21.079864 8.036973-1.172059 3.074147-21.079864-8.036973 1.172059-3.074147Z"
    fill="#FFBE00"
    p-id="8880"
  ></path>
  <path
    d="M523 408.44h0.11l23.41 0.35a3.81 3.81 0 0 1 3.75 3.86l-1.74 115.07a3.79 3.79 0 0 1-3.76 3.75h-0.11l-23.41-0.35a3.81 3.81 0 0 1-3.75-3.86l1.74-115.07a3.79 3.79 0 0 1 3.76-3.75m0-2.12a5.92 5.92 0 0 0-5.85 5.83l-1.74 115.07a5.92 5.92 0 0 0 5.83 6l23.41 0.35h0.17a5.92 5.92 0 0 0 5.85-5.83l1.74-115.07a5.92 5.92 0 0 0-5.83-6l-23.41-0.35z"
    fill="#0E6EC5"
    p-id="8881"
  ></path>
  <path
    d="M527.937603 428.11661l13.048495 0.198148-0.049954 3.289621-13.048496-0.198149 0.049955-3.28962Z"
    fill="#FFBE00"
    p-id="8882"
  ></path>
  <path
    d="M527.802023 437.043606l13.048495 0.198149-0.049954 3.28962-13.048496-0.198148 0.049955-3.289621Z"
    fill="#FFBE00"
    p-id="8883"
  ></path>
  <path
    d="M527.66645 445.980458l13.048496 0.198148-0.049955 3.289621-13.048496-0.198149 0.049955-3.28962Z"
    fill="#FFBE00"
    p-id="8884"
  ></path>
  <path
    d="M558.22 409h0.11l23.41 0.35a3.81 3.81 0 0 1 3.75 3.86l-1.74 115.07A3.79 3.79 0 0 1 580 532h-0.11l-23.41-0.35a3.81 3.81 0 0 1-3.75-3.86l1.74-115.07a3.79 3.79 0 0 1 3.76-3.75m0-2.12a5.92 5.92 0 0 0-5.85 5.83l-1.74 115.07a5.92 5.92 0 0 0 5.83 6l23.41 0.35h0.12a5.92 5.92 0 0 0 5.85-5.83l1.74-115.07a5.92 5.92 0 0 0-5.83-6l-23.41-0.35z"
    fill="#0E6EC5"
    p-id="8885"
  ></path>
  <path
    d="M563.195482 428.651923l13.048496 0.198149-0.049955 3.28962-13.048495-0.198148 0.049954-3.289621Z"
    fill="#FFBE00"
    p-id="8886"
  ></path>
  <path
    d="M563.049903 437.578783l13.048496 0.198149-0.049955 3.28962-13.048496-0.198148 0.049955-3.289621Z"
    fill="#FFBE00"
    p-id="8887"
  ></path>
  <path
    d="M562.924329 446.50578l13.048496 0.198148-0.049955 3.289621-13.048495-0.198148 0.049954-3.289621Z"
    fill="#FFBE00"
    p-id="8888"
  ></path>
  <path
    d="M419.843946 531.963121l180.959137 2.74796-0.057547 3.789563-180.959136-2.74796 0.057546-3.789563Z"
    fill="#0FCE9A"
    p-id="8889"
  ></path>
  <path
    d="M718.67 407.3a4.35 4.35 0 0 1 1.61 0.29L747.69 418a4.38 4.38 0 0 1 2.53 5.64l-40.59 106.52a4.37 4.37 0 0 1-5.64 2.53l-27.41-10.45a4.38 4.38 0 0 1-2.58-5.64l40.59-106.48a4.35 4.35 0 0 1 4-2.82m0-2.12a6.49 6.49 0 0 0-6 4.18l-40.52 106.48a6.49 6.49 0 0 0 3.75 8.37l27.41 10.45a6.48 6.48 0 0 0 8.37-3.75l40.59-106.48a6.49 6.49 0 0 0-3.75-8.37L721 405.61a6.47 6.47 0 0 0-2.39-0.43z"
    fill="#0E6EC5"
    p-id="8890"
  ></path>
  <path
    d="M715.712255 428.521201l21.079864 8.036973-1.172059 3.074146-21.079864-8.036972 1.172059-3.074147Z"
    fill="#FFBE00"
    p-id="8891"
  ></path>
  <path
    d="M712.526067 436.870798l21.079864 8.036973-1.172058 3.074147-21.079864-8.036973 1.172058-3.074147Z"
    fill="#FFBE00"
    p-id="8892"
  ></path>
  <path
    d="M709.35353 445.220276l21.079864 8.036973-1.172058 3.074146-21.079864-8.036973 1.172058-3.074146Z"
    fill="#FFBE00"
    p-id="8893"
  ></path>
  <path
    d="M759.81 411.09h0.11l23.41 0.35a3.81 3.81 0 0 1 3.75 3.86l-1.74 115.07a3.79 3.79 0 0 1-3.76 3.75h-0.11l-23.41-0.35a3.81 3.81 0 0 1-3.75-3.86l1.74-115.07a3.79 3.79 0 0 1 3.76-3.75m0-2.12a5.92 5.92 0 0 0-5.85 5.83l-1.76 115.08a5.92 5.92 0 0 0 5.83 6l23.41 0.35h0.17a5.92 5.92 0 0 0 5.85-5.83l1.74-115.07a5.92 5.92 0 0 0-5.83-6L760 409z"
    fill="#0E6EC5"
    p-id="8894"
  ></path>
  <path
    d="M764.780208 430.772588l13.048496 0.198149-0.049955 3.28962-13.048496-0.198148 0.049955-3.289621Z"
    fill="#FFBE00"
    p-id="8895"
  ></path>
  <path
    d="M764.644484 439.709432l13.048495 0.198148-0.049954 3.289621-13.048496-0.198148 0.049955-3.289621Z"
    fill="#FFBE00"
    p-id="8896"
  ></path>
  <path
    d="M764.508903 448.636429l13.048496 0.198148-0.049955 3.289621-13.048495-0.198149 0.049954-3.28962Z"
    fill="#FFBE00"
    p-id="8897"
  ></path>
  <path
    d="M795.06 411.62h0.11l23.41 0.35a3.81 3.81 0 0 1 3.75 3.86l-1.74 115.07a3.79 3.79 0 0 1-3.76 3.75h-0.11l-23.41-0.35a3.81 3.81 0 0 1-3.75-3.86l1.74-115.07a3.79 3.79 0 0 1 3.76-3.75m0-2.12a5.92 5.92 0 0 0-5.85 5.83l-1.74 115.07a5.92 5.92 0 0 0 5.83 6l23.41 0.35h0.17a5.92 5.92 0 0 0 5.85-5.83l1.74-115.07a5.92 5.92 0 0 0-5.83-6l-23.41-0.35z"
    fill="#0E6EC5"
    p-id="8898"
  ></path>
  <path
    d="M800.027952 431.307758l13.048496 0.198148-0.049955 3.289621-13.048496-0.198149 0.049955-3.28962Z"
    fill="#FFBE00"
    p-id="8899"
  ></path>
  <path
    d="M799.902363 440.244746l13.048496 0.198148-0.049955 3.289621-13.048495-0.198148 0.049954-3.289621Z"
    fill="#FFBE00"
    p-id="8900"
  ></path>
  <path
    d="M799.756799 449.171591l13.048496 0.198148-0.049955 3.289621-13.048495-0.198149 0.049954-3.28962Z"
    fill="#FFBE00"
    p-id="8901"
  ></path>
  <path
    d="M656.686399 534.629113l180.959137 2.747961-0.057546 3.789563-180.959137-2.74796 0.057546-3.789564Z"
    fill="#0FCE9A"
    p-id="8902"
  ></path>
</svg>
