<svg
  t="1638075091958"
  class="icon"
  viewBox="0 0 1024 1024"
  version="1.1"
  xmlns="http://www.w3.org/2000/svg"
  p-id="6118"
  width="16"
  height="16"
>
  <path
    d="M770.72 453.92h-1.44c-8.16 0-14.88 5.76-15.84 13.92-0.96 8.64 5.28 16.32 13.92 17.28C823.52 490.88 862.4 535.52 862.4 594.08v12.48c-1.44 64.32-41.28 89.76-43.2 90.72l-1.92 1.44c-0.96 0.96-22.56 18.72-40.32 41.28-7.68 9.6-13.92 19.2-19.68 28.32-3.84 6.24-9.12 13.92-12 18.24-1.44-2.88-3.36-7.2-4.8-10.56-8.64-20.64-23.04-54.72-65.76-54.72h-29.28c-26.88 0-38.4-0.48-54.72-13.92-2.88-2.4-6.24-3.36-10.08-3.36-4.8 0-9.12 1.92-12 5.76-5.28 6.72-4.8 16.32 1.92 22.08 25.44 21.12 47.04 21.12 74.4 21.12h29.28c20.16 0 27.36 13.92 36.48 35.52 6.24 14.88 13.44 31.68 31.68 31.68 5.28 0 10.56-1.44 15.84-4.8 8.16-5.28 14.88-15.36 24-29.76 5.28-8.16 11.52-17.76 17.76-25.92 13.92-17.76 31.2-33.12 35.04-36 8.64-5.76 55.68-39.84 57.12-116.64V594.08c1.92-75.36-48.96-132.96-121.44-140.16z"
    fill="#F69663"
    p-id="6119"
  ></path>
  <path
    d="M522.56 204.32h-174.72c-120.48 0-217.92 102.24-217.92 228.96v23.04c0 145.44 87.36 183.36 87.36 183.36s36.48 30.72 65.28 68.64c28.8 37.44 49.44 81.6 65.28 91.68 5.28 3.36 9.6 4.8 13.44 4.8 35.04 0 27.84-119.04 117.12-119.04h44.16c120.48 0 217.92-102.24 217.92-228.96v-23.04c0.48-127.2-97.44-229.44-217.92-229.44zM435.2 579.68c-79.2 0-143.52-51.84-143.52-115.68 0-8.64 7.2-15.84 15.84-15.84 8.64 0 15.84 6.72 15.84 15.84 0 46.56 50.4 84.48 112.32 84.48s112.32-37.92 112.32-84.48c0-8.64 7.2-15.84 15.84-15.84 8.64 0 15.84 6.72 15.84 15.84C579.2 527.84 514.4 579.68 435.2 579.68z"
    fill="#F69663"
    p-id="6120"
  ></path>
</svg>
