<svg
  t="1638103594826"
  class="icon"
  viewBox="0 0 1024 1024"
  version="1.1"
  xmlns="http://www.w3.org/2000/svg"
  p-id="14981"
  width="128"
  height="128"
>
  <path
    d="M512 512m-512 0a512 512 0 1 0 1024 0 512 512 0 1 0-1024 0Z"
    fill="#FFFFFF"
    p-id="14982"
  ></path>
  <path
    d="M669.696 282.624c18.944 0 33.792 15.36 33.792 33.792V645.12c0 18.944-15.36 33.792-33.792 33.792H238.592c-18.944 0-33.792-15.36-33.792-33.792V316.416c0-18.944 15.36-33.792 33.792-33.792h431.104z"
    fill="#7420ED"
    p-id="14983"
  ></path>
  <path
    d="M499.712 423.936c-2.56-6.144-6.656-8.192-13.312-7.168-3.072 0.512-6.144 1.536-9.728 2.56-20.48 7.168-42.496-15.36-34.304-35.84 1.024-3.072 2.048-6.656 2.56-9.728 0.512-2.56 1.024-5.632-1.536-8.192-6.656-7.168-15.36-8.704-24.064-8.192-7.68 0.512-8.704 7.68-10.24 13.312-1.024 3.072-1.536 6.144-2.56 8.704-2.048 5.12-5.632 9.216-10.24 11.776-13.824 7.68-26.112 5.632-37.888-7.168-10.24-11.264-15.872-11.264-26.624 0-1.024 1.024-2.56 2.56-3.584 4.096-5.12 6.144-4.608 11.264 0.512 16.896 3.072 3.584 6.656 6.656 9.216 10.24 10.752 13.312 4.096 35.84-11.776 41.472-3.584 1.536-8.704 2.56-13.312 4.096-4.608 1.536-8.192 4.096-8.192 9.216-0.512 7.68 1.536 14.336 5.12 20.992 2.048 3.584 5.632 5.12 9.728 4.608 2.56-0.512 5.12-1.536 7.68-2.048 9.216-2.56 17.92-3.072 26.112 2.56 12.288 8.704 15.872 18.944 11.264 34.304-4.608 16.384-2.048 20.48 14.848 24.064 2.048 0.512 3.584 0.512 5.632 1.024 5.12 0.512 8.704-2.048 10.752-6.656 1.536-3.584 2.56-7.68 3.584-11.776 4.608-19.968 33.28-27.648 47.104-11.776 2.56 3.072 5.632 6.144 8.704 8.704 5.12 4.096 9.728 4.096 15.36-1.024 6.144-5.12 13.824-9.728 11.264-19.968-0.512-2.56-3.072-4.608-5.12-6.656l-7.68-7.68c-10.752-13.312-5.12-34.816 10.24-41.984 5.12-2.048 10.24-2.56 15.36-4.608 6.656-2.048 9.216-5.632 8.704-12.288 0-6.144-1.536-11.264-3.584-15.872zM414.208 495.104c-22.016 5.632-44.032-7.168-49.664-29.184-5.632-22.016 7.68-43.52 29.184-49.152 21.504-5.632 43.52 7.68 48.64 29.184 6.144 21.504-6.656 43.52-28.16 49.152z"
    fill="#FFFFFF"
    p-id="14984"
  ></path>
  <path
    d="M603.648 480.256c-1.024-3.072-3.072-5.632-5.12-8.192-3.072-3.584-6.656-4.608-10.752-2.048-3.584 2.048-7.168 4.608-10.752 5.632-12.288 3.584-24.064-7.168-24.064-20.48 0-10.24-2.048-12.8-11.776-13.312-9.728 0-12.8 3.072-12.288 12.8v2.048c0 15.872-15.36 24.576-29.184 17.408-2.048-1.024-4.096-2.56-6.656-3.584-3.072-1.536-6.144-1.024-8.704 1.024-9.216 7.68-8.704 16.896 1.536 22.528 6.144 3.584 10.24 7.68 11.264 14.848 1.024 9.728-3.584 16.384-11.776 20.992-8.704 4.608-9.216 8.192-4.608 16.896 5.12 8.192 8.704 9.216 16.896 4.096 7.168-4.608 13.824-6.144 21.504-1.536 8.192 4.608 10.752 11.776 10.24 20.48 0 3.584-1.024 7.168 2.56 9.216 5.632 3.072 11.264 3.072 17.408 1.024 5.12-2.048 4.096-6.656 4.096-10.752v-4.096c0.512-14.336 15.36-23.04 28.16-16.384 2.56 1.024 4.608 2.56 7.168 4.096 3.072 1.536 5.632 1.024 8.704-1.024 9.728-7.68 8.704-16.896-2.048-23.04-0.512 0-0.512-0.512-1.024-0.512-13.824-7.68-13.824-25.6 0-33.792 1.536-1.024 3.072-2.048 5.12-3.072 4.608-3.072 5.632-6.656 4.096-11.264z m-55.296 57.856c-14.336 4.096-30.208-5.12-33.792-19.968-3.584-14.848 5.12-29.696 19.968-33.792 14.336-4.096 30.208 5.12 33.792 19.968 4.096 14.848-5.12 29.696-19.968 33.792z"
    fill="#B591F9"
    p-id="14985"
  ></path>
  <path
    d="M535.04 741.376H373.76c-7.168 0-7.68-6.656-2.048-13.824l16.384-20.992c3.072-4.096 9.728-7.168 14.336-7.168H506.88c4.608 0 10.752 3.072 14.336 7.168l16.384 20.992c5.12 7.168 4.608 13.824-2.56 13.824z"
    fill="#7420ED"
    p-id="14986"
  ></path>
  <path
    d="M454.144 640.512m-16.896 0a16.896 16.896 0 1 0 33.792 0 16.896 16.896 0 1 0-33.792 0Z"
    fill="#B591F9"
    p-id="14987"
  ></path>
  <path
    d="M805.376 282.624h-62.464c-7.68 0-13.824 6.144-13.824 13.824v396.288c0 7.68 6.144 13.824 13.824 13.824h62.464c7.68 0 13.824-6.144 13.824-13.824V296.448c0-7.68-6.144-13.824-13.824-13.824zM753.664 368.64h40.96v139.264h-40.96V368.64z m20.48 206.336c-11.264 0-20.992-9.216-20.992-20.992 0-11.264 9.216-20.992 20.992-20.992 11.264 0 20.992 9.216 20.992 20.992-0.512 11.264-9.728 20.992-20.992 20.992z"
    fill="#B591F9"
    p-id="14988"
  ></path>
</svg>
