<svg
  t="1632125067401"
  class="icon"
  viewBox="0 0 1024 1024"
  version="1.1"
  xmlns="http://www.w3.org/2000/svg"
  p-id="8801"
  width="32"
  height="32"
>
  <path
    d="M924.22016 625.06496c0-29.1648-9.80608-51.38688-29.0688-64.288 11.70688-6.73408 28.87936-40.07168 28.87936-69.46944-1.15968-48.59008-47.2128-84.62464-116.75264-84.62464l-184.27904 0.03456c31.52128-87.72096 25.57824-206.01856-13.98912-269.15968-23.80672-37.984-52.4864-46.50496-72.3008-46.50496-66.89664 0-69.08032 65.79968-69.08032 88.19328 0 74.82624-10.60736 109.00352-23.79776 140.4544-10.43712 20.34048-74.5024 87.35104-139.8976 87.35104h-122.55488c-47.3344 0-81.6576 40.44288-81.59744 98.02752l31.8208 342.6048c3.82336 52.76544 29.20064 84.68992 80.12928 84.68992 0 0 25.35808 0.23296 44.34048 0.23296 9.69856 0 18.73408-0.06272 24.07552-0.23296 15.69408-0.5056 28.65024-10.77504 40.0512-19.39712 8.064-6.0928 14.51904-11.3472 20.3136-11.3472 2.60096 0 17.472 8.68992 35.70432 16.60032 18.60352 8.08192 48.14336 14.71488 76.35328 14.71488h256.42112c85.92128 0 127.1488-32.89984 127.2-87.72224 0-16.19456-3.68384-25.78944-12.50944-38.35264 34.51648-8.45312 65.10592-30.61248 65.10592-68.832 0-14.14016-6.52416-36.94208-15.47136-42.96704 16.84992-4.41088 50.93504-35.12064 50.90432-70.00576M278.87488 897.89312c-15.35104 0.5056-70.4384 0-70.79936 0-19.71456 0-37.25696-19.02208-41.69984-44.5824l-31.82208-356.1088c0-26.60096 20.99456-55.83104 49.01504-55.83104v0.16512l120.36352 0.37248c2.07232 0 4.09472-0.23552 6.16576-0.33664v435.61344a854.9184 854.9184 0 0 0-14.51008 10.64064c-5.09568 3.83616-13.61024 9.696-16.71296 10.0672m562.11584-226.15552h-4.63232l0.42112 31.78752c3.70304 1.44768 17.53088 5.6896 17.5616 33.30304-0.02944 29.60256-38.10688 41.48736-70.17984 41.48736h0.09984l-0.5504 30.30784c13.00992 2.99776 17.76256 14.61504 17.74336 33.2352 0 32.56192-25.95712 56.03456-93.29664 56.03456H442.7008c-12.66944 0-38.49728-7.58016-53.34784-14.88768-14.0288-6.90048-36.40448-19.79776-44.21888-24.17792V435.80928c66.7456-18.89024 121.83552-77.68576 135.70432-104.82688 15.13984-35.93088 22.73792-73.44128 22.73792-155.81184 0-40.94848 14.73152-46.40128 30.39104-46.40128 13.86112 0 35.84768 15.5904 46.99392 33.37088 32.93312 52.53248 40.6784 165.71264-0.32128 250.4704l-7.07456 29.32992 235.3152-0.06784c40.0576 2.25408 80.33664 18.99264 80.33664 49.16352l-0.27136 9.46176c0.06144 0.36992-1.0496 26.16576-14.42944 37.51424-11.2384 9.52576-20.37376 9.86496-20.37376 9.86496l-0.25088 31.28448s13.57824 1.88544 20.65408 6.83264c10.68928 7.50976 15.51104 21.65504 14.97216 37.10976-0.71296 19.5712-30.31296 48.6336-48.52736 48.6336m0 0z"
    p-id="8802"
    fill="#8a8a8a"
  ></path>
</svg>
