<svg t="1632124772093" class="icon" viewBox="0 0 1024 1024" version="1.1" xmlns="http://www.w3.org/2000/svg" p-id="3790" width="32" height="32"><path d="M512.245 771.106c-185.723 0-355.764-105.742-443.766-275.96a27.798 27.798 0 0 1 0-25.533c88.002-170.218 258.044-275.959 443.766-275.959 185.724 0 355.765 105.742 443.767 275.959a27.804 27.804 0 0 1 0 25.533c-88.001 170.218-258.043 275.96-443.767 275.96zM124.713 482.379c80.153 144.172 227.365 233.129 387.532 233.129 160.169 0 307.381-88.957 387.533-233.129C819.626 338.207 672.414 249.25 512.245 249.25c-160.167 0.001-307.379 88.958-387.532 233.129z" fill="#8a8a8a" p-id="3791"></path><path d="M506.324 642.555c-85.625 0-155.285-69.66-155.285-155.285s69.66-155.285 155.285-155.285 155.285 69.66 155.285 155.285c0.001 85.625-69.66 155.285-155.285 155.285z m0-254.972c-54.968 0-99.688 44.72-99.688 99.688s44.72 99.687 99.688 99.687 99.688-44.72 99.688-99.687c0-54.969-44.719-99.688-99.688-99.688z" fill="#8a8a8a" p-id="3792"></path></svg>