<svg
  t="1639793336810"
  class="icon"
  viewBox="0 0 1411 1024"
  version="1.1"
  xmlns="http://www.w3.org/2000/svg"
  p-id="14151"
  width="16"
  height="16"
>
  <path
    d="M990.782855 8.325203H498.430335A98.736911 98.736911 0 0 0 399.693424 106.396098v694.654959A98.736911 98.736911 0 0 0 498.430335 899.121951h510.168455A98.736911 98.736911 0 0 0 1107.335701 801.051057L1115.660904 133.203252zM774.327571 399.609756a49.95122 49.95122 0 1 1 49.951219-49.951219 49.95122 49.95122 0 0 1-49.951219 49.951219z"
    fill="#ED3737"
    p-id="14152"
  ></path>
  <path
    d="M1407.95879 727.04a23.810081 23.810081 0 1 0-8.325203 32.468293 23.893333 23.893333 0 0 0 8.325203-32.468293z m-143.110244-20.48a23.726829 23.726829 0 1 0-8.325203 32.551545 23.893333 23.893333 0 0 0 8.325203-32.551545z m43.790569 23.393821a15.817886 15.817886 0 1 0 21.728781 5.661138 15.817886 15.817886 0 0 0-21.728781-5.661138zM1257.189359 832.020813a15.817886 15.817886 0 1 0 21.728781 5.661138 15.817886 15.817886 0 0 0-21.728781-5.661138zM71.597164 850.502764a30.553496 30.553496 0 1 0 30.72 30.553496 30.553496 30.553496 0 0 0-30.72-30.553496z m41.043252-71.596748A20.48 20.48 0 1 0 133.28692 799.219512a20.48 20.48 0 0 0-20.646504-20.313496zM15.402042 768.749268a15.401626 15.401626 0 1 0 15.401626 15.401626 15.401626 15.401626 0 0 0-15.401626-15.401626z"
    fill="#FF227D"
    p-id="14153"
  ></path>
  <path
    d="M705.228384 962.893008c-344.330407 0-623.474472 13.653333-623.474472 30.553496S360.897977 1024 705.228384 1024s623.474472-13.653333 623.474471-30.553496-279.144065-30.553496-623.474471-30.553496z"
    fill="#FF227D"
    opacity=".2"
    p-id="14154"
  ></path>
  <path
    d="M632.799115 466.211382h391.284553v66.601626H632.799115zM632.799115 599.414634h391.284553v66.601626H632.799115zM632.799115 732.617886h391.284553v66.601626H632.799115z"
    fill="#0071BC"
    opacity=".44"
    p-id="14155"
  ></path>
  <path
    d="M516.24627 466.211382h66.601626v66.601626h-66.601626zM516.24627 599.414634h66.601626v66.601626h-66.601626z"
    fill="#00FFFF"
    opacity=".44"
    p-id="14156"
  ></path>
  <path
    d="M516.24627 732.617886h66.601626v66.601626h-66.601626z"
    fill="#0071BC"
    opacity=".44"
    p-id="14157"
  ></path>
  <path
    d="M1001.355863 26.141138v108.061138l102.649757-1.831544-102.649757-106.229594z"
    fill="#00FFFF"
    opacity=".34"
    p-id="14158"
  ></path>
</svg>
