<svg
  t="1632297326208"
  class="icon"
  viewBox="0 0 1024 1024"
  version="1.1"
  xmlns="http://www.w3.org/2000/svg"
  p-id="4262"
  width="128"
  height="128"
>
  <path
    d="M0 0h1024v1024H0z"
    fill="#FFFFFF"
    fill-opacity="0"
    p-id="4263"
  ></path>
  <path
    d="M896 853.333333c0 46.933333-38.4 85.333333-85.333333 85.333334H213.333333c-46.933333 0-85.333333-38.4-85.333333-85.333334V170.666667c0-46.933333 38.4-85.333333 85.333333-85.333334h426.666667l256 256v512z"
    fill="#34B37E"
    p-id="4264"
  ></path>
  <path
    d="M640 85.333333l256 256h-170.666667c-46.933333 0-85.333333-38.4-85.333333-85.333333V85.333333z"
    fill="#2A9169"
    p-id="4265"
  ></path>
  <path
    d="M661.333333 452.266667c12.8 0 21.333333 8.533333 21.333334 21.333333v200.533333l25.6-25.6c8.533333-8.533333 21.333333-8.533333 29.866666 0 8.533333 8.533333 8.533333 21.333333 0 29.866667l-59.733333 59.733333c-8.533333 8.533333-21.333333 8.533333-29.866667 0l-59.733333-59.733333c-8.533333-8.533333-8.533333-21.333333 0-29.866667 8.533333-8.533333 21.333333-8.533333 29.866667 0l25.6 25.6v-200.533333c-4.266667-12.8 4.266667-21.333333 17.066666-21.333333z m-320 29.866666l81.066667 192 81.066667-192h46.933333V725.333333H512v-166.4L443.733333 725.333333h-34.133333l-72.533333-166.4V725.333333h-42.666667v-243.2H341.333333z"
    fill="#FFFFFF"
    p-id="4266"
  ></path>
</svg>
