<svg
  t="1632290602874"
  class="icon"
  viewBox="0 0 1024 1024"
  version="1.1"
  xmlns="http://www.w3.org/2000/svg"
  p-id="18198"
  width="32"
  height="32"
>
  <path
    d="M861.97290928 961.93183818H212.95648144C186.45853291 961.93183818 128.69633691 952.23258916 128.69633691 895.30366309v-133.32301348H95.36558398a33.33075292 33.33075292 0 0 1 0-66.66150674h33.33075293v-166.65376641H95.36558398a33.33075292 33.33075292 0 0 1 0-66.66150673h33.33075293V295.35010332H95.36558398a33.33075292 33.33075292 0 0 1 0-66.66150585h33.33075293V128.66300615C128.69633691 94.26566885 161.6937831 62.03483105 214.78967334 62.03483105h636.35074101C912.40233945 62.03483105 961.96516895 108.16459297 961.96516895 165.16018144v696.77939708c-0.09999229 106.29177187-99.99225967 99.99225967-99.99225968 99.99225966z m-133.32301261-833.26883203H228.68859746V228.68859746h33.33075293a33.33075292 33.33075292 0 0 1 0 66.66150586H228.68859746v166.6537664h33.33075293a33.33075292 33.33075292 0 0 1 0 66.66150674H228.68859746v166.65376641h33.33075293a33.33075292 33.33075292 0 0 1 0 66.66150674H228.68859746v133.32301347h499.96129922V128.66300615z m166.65376641 33.33075381s-3.56639062-33.33075292-33.33075381-33.33075381h-66.66150674V895.30366309h66.66150674c20.3984209 0 33.33075292-14.33222402 33.33075381-33.36408457v-699.94581855z m-499.96129922 66.66150674h199.98451934c24.99806513 0 33.33075292 33.33075292 33.33075293 33.33075293v33.33075293H362.01161006v-33.33075293s0.56662295-33.33075292 33.33075381-33.33075293z m233.31527227 166.6537664H362.01161006v-66.66150674h266.64602607v66.66150674z m-166.65376641 33.33075294h66.66150674v166.6537664h-66.66150674v-166.6537664z m-33.33075292 199.98451933l66.66150674 66.66150674 66.66150673-66.66150674v-199.98451933h66.66150586s1.46655352 235.94840244 0 233.31527313l-133.32301259 133.3230126-133.32301348-133.32301259v-233.31527314h66.66150674v199.98451933z"
    fill="currentColor"
    p-id="18199"
  ></path>
</svg>
