<svg
  t="1637220524622"
  class="icon"
  viewBox="0 0 1024 1024"
  version="1.1"
  xmlns="http://www.w3.org/2000/svg"
  p-id="48642"
  width="32"
  height="32"
>
  <path
    d="M925.444033 485.176957c-0.172258-55.811594-35.312891-104.388352-85.956745-120.580605-19.637413-6.373546-40.136115-7.234836-60.634818-6.373546-9.129674 0.344516-14.297415 0.86129-13.263867-12.919351 2.411612-33.934827 2.928386-68.041912 1.378064-102.148997-4.650966-111.967704-83.028359-206.365091-193.445741-235.304437-104.732868-27.389023-216.87283 18.603865-277.163132 111.278672-48.232242 73.898685-41.858696 155.376722-37.896761 239.094113-14.125157 0-26.872249-0.344516-39.619342 0-66.663848 1.72258-119.891572 54.605788-120.236088 121.269636-0.689032 139.873501-0.689032 279.574744 0 419.448245 0.344516 68.041912 53.227724 123.681248 120.92512 124.025765 196.029611 1.205806 392.23148 1.205806 588.261092 0 65.285784-0.344516 117.307702-55.467078 117.652218-120.92512 0.516774-138.839953 0.516774-277.852164 0-416.864375z m-278.368938-126.437377c-44.270308-0.86129-88.712873-0.344516-132.983181-0.344516-45.131598 0-90.435453-0.86129-135.567051 0.344516-17.570317 0.516774-21.015477-5.512256-20.498703-21.532251 1.205806-27.216765 0.172258-54.605788 0.344516-81.822553 0.86129-85.267713 68.041912-152.620594 152.448336-152.965109s152.620594 66.147074 154.343174 151.414787c0.689032 28.939345-0.86129 58.050948 0.344516 86.990293 0.86129 15.330963-4.650966 18.087091-18.431607 17.914833z"
    fill="#2A70B8"
    p-id="48643"
  ></path>
  <path
    d="M554.400288 694.987208c-6.718062 5.16774-8.785158 9.818706-8.612901 17.742575 0.516774 19.981929 0.344516 66.319332 0.172258 86.301261-0.344516 23.082573-13.436124 37.035471-34.279343 36.690955-19.981929-0.344516-32.556763-13.952899-32.901279-36.346439-0.172258-11.713544-0.344516-49.438048 0-61.151592 0.689032-20.326445 0-37.724503-18.431607-54.089014-19.809671-17.914833-20.154187-44.95934-8.6129-69.936751 12.05806-25.666443 33.418053-37.724503 56.328368-39.274825 32.729021 0.344516 58.912238 19.809671 68.041912 46.681919s0.86129 56.15611-21.704508 73.381911z"
    fill="#FFFFFF"
    p-id="48644"
  ></path>
</svg>
