<svg
  t="1637990576868"
  class="icon"
  viewBox="0 0 1024 1024"
  version="1.1"
  xmlns="http://www.w3.org/2000/svg"
  p-id="84679"
  width="16"
  height="16"
>
  <path
    d="M471.720635 0.315452c-2.399486 0.255945-10.07784 1.151753-16.988358 1.759623-98.442896 10.333785-195.414108 51.988855-274.469161 118.214658a672.911745 672.911745 0 0 0-59.315284 59.219305l-0.60787 0.703849C54.850002 258.404125 16.586204 346.161312 2.509222 450.011049c-3.167321 23.035062-3.167321 100.842382 0 123.877444 14.108975 103.88173 52.372773 191.606924 117.83074 269.798162 18.93994 21.435405 38.487749 41.015207 59.219305 59.315284l0.703849 0.60787c78.191238 65.489961 165.948425 103.753758 269.798162 117.83074 23.035062 3.167321 100.842382 3.167321 123.877444 0 103.88173-14.108975 191.606924-52.372773 269.798162-117.83074a672.911745 672.911745 0 0 0 59.315284-59.219305l0.60787-0.703849c65.489961-78.191238 103.753758-165.948425 117.83074-269.798162 3.167321-23.035062 3.167321-100.842382 0-123.877444-14.108975-103.88173-52.372773-191.606924-117.83074-269.798162a672.911745 672.911745 0 0 0-59.219305-59.315284l-0.703849-0.60787C765.801591 55.055717 677.148596 16.28003 574.706557 2.554972c-11.10162-1.503678-27.162177-2.14354-57.043771-2.399485a1300.137283 1300.137283 0 0 0-47.285863 0.127972l1.343712-0.031993z m6.270656 54.388341c0 14.716845 1.023781 46.709987 2.399485 77.039485 0.767835 14.844818 1.63165 36.120257 2.015568 47.221876 1.375705 39.287578 5.534813 142.401473 6.174676 151.551511l0.639863 9.182032-5.662786-0.639863a21.851316 21.851316 0 0 1-6.686566-1.407698l0.159965 0.063986a134.403187 134.403187 0 0 1-1.759622-19.259871v-0.127972c-1.471685-16.060557-5.214882-101.066334-8.606155-186.136097l-1.855603-58.003566-0.767835-27.930012 3.551239-0.511891c1.887595-0.255945 5.022923-0.639863 7.038491-0.767835l3.423266-0.127973v9.821895z m120.518164-3.039349c0.127973 0.127973 0.51189 38.135825 0.895807 84.461894 0.51189 46.454041 1.151753 88.141105 1.503678 92.652138 0.383918 4.639006 0.255945 8.702134-0.383918 8.958079a18.779974 18.779974 0 0 1-6.910518 0l0.127972 0.031993-5.790758-0.51189-0.895808-36.632147-1.375705-50.00528c-1.023781-22.267226-1.887595-97.931006-1.151753-99.818601 0.51189-1.375705 1.887595-1.503678 7.166463-0.639863 3.679211 0.767835 6.654573 1.375705 6.782546 1.503677zM307.275888 93.863398c0.767835 1.151753 6.654573 70.512884 13.981003 161.277426 2.399486 30.841388 4.766978 59.027346 5.150895 62.578585 0.639863 6.430621 0.51189 6.654573-3.551238 9.182032a21.69135 21.69135 0 0 1-4.862958 2.463471l-0.159966 0.063987c-0.383918 0-1.151753-3.295294-1.503677-7.294437-1.759623-16.380488-8.574162-95.435541-13.34114-152.575291a7947.960156 7947.960156 0 0 0-5.662786-66.961645c-0.639863-5.534813-0.51189-6.046704 2.783403-7.806327 3.999143-2.14354 6.302649-2.527458 7.166464-0.895808z m346.613694 25.306575c3.551239 1.279726 3.87117 1.887595 4.639006 9.086052 1.279726 12.573305 0.895808 72.784397-0.51189 72.784397-3.679211 0-11.229593-4.255088-11.80547-6.654573a602.014943 602.014943 0 0 1-0.831821-31.705204l0.063986-8.414196v0.415911c0-40.919228-0.51189-38.519742 8.446189-35.480394z m-232.526152 5.918731c0 3.423266 0.895808 22.139254 1.887596 41.943009l2.65543 55.668066c0.895808 21.915302 1.151753 21.147467-7.294436 21.659357-4.127115 0.127973-4.127115 0.127973-4.38306-6.174677-0.255945-3.551239-0.895808-14.4609-1.631651-24.570732-0.639863-10.07784-2.14354-31.865169-3.167321-48.46961s-2.271513-33.112901-2.65543-36.632147c-0.767835-6.302649-0.639863-6.526601 2.783403-7.806326a25.818465 25.818465 0 0 1 7.774333-1.375705h0.031994c3.999143-0.127973 3.999143-0.127973 3.999142 5.790758z m349.237133 17.244303l4.255087 1.759623 0.895808 16.860386c0.383918 9.182032 0.639863 29.081766 0.383918 44.054556l-0.383918 27.418122-5.278868-2.655431-5.278868-2.527458-0.383918-41.815036c-0.255945-23.035062-0.127973-42.582871 0.127972-43.414693 0.51189-1.887595 0.51189-1.887595 5.662787 0.255945z m-229.902715 16.508461c0.767835 0.767835 2.527458 61.810749 2.655431 92.780111l0.127972 18.652001-5.918731-0.895808a52.532738 52.532738 0 0 1-6.686567-0.959794l0.351925 0.063986a4748.102126 4748.102126 0 0 1-4.127115-102.602005v-9.310004l6.430621 0.767836a31.545237 31.545237 0 0 1 7.390416 1.567664l-0.223952-0.063987z m289.953841 8.894094c1.503678 1.759623 1.759623 29.337711 2.143541 181.433105 0.383918 174.650559 0.383918 179.161592-1.887596 179.161592a8.414196 8.414196 0 0 1-4.415053-1.63165h0.031993c-1.887595-1.375705-2.14354-16.636434-2.783404-165.820452-0.255945-68.145391-0.799829-132.163667-1.63165-196.117957l0.127973 13.693064-0.767836-18.140111 3.679212 2.655431c2.14354 1.503678 4.511033 3.679211 5.534813 4.766978z m-112.903796 25.850458c0.639863 0.51189 1.279726 7.678354 1.375705 15.868598 0.639863 27.80204 0.767835 198.38947 0.127972 198.901361-0.255945 0.255945-2.527458-0.383918-5.022923-1.375705l-4.511033-1.887596V190.962582l3.551239 0.767836c1.887595 0.51189 3.935156 1.279726 4.511033 1.887595z m-347.509503 7.038491c0.383918 3.423266 1.023781 11.10162 1.375705 17.372276l2.015568 31.225306c1.503678 22.139254 1.279726 23.546952-5.918731 23.546952-3.807184 0-4.255088-0.383918-4.766978-4.127115-1.279726-7.422409-5.662786-69.361131-5.022923-70.384911a27.450115 27.450115 0 0 1 10.045846-3.391273h0.127973c0.767835-0.127973 1.759623 2.527458 2.14354 5.790758zM161.995032 232.713632l6.174677 62.066694c2.14354 20.763549 3.935156 38.39177 3.935156 39.159606 0 1.503678-9.693922 6.302649-10.717702 5.278868-3.039348-19.259871-7.710347-59.443257-11.80547-99.786608l-1.407698-17.30829c0-3.039348 9.693922-15.740626 10.973648-14.332927 0.383918 0.255945 1.63165 11.485538 2.911376 24.922657z m493.62218 13.213167l3.679211 2.143541 0.127973 27.226163c0.127973 14.844818 0.383918 31.481251 0.383918 36.888092 0.255945 11.357565-1.151753 13.213167-7.934299 10.845675l-3.871171-1.375705v-10.845675c0-6.046704-0.383918-23.546952-0.895808-39.031632l-0.767835-27.930013h2.911376c2.399486 0.319931 4.575019 1.055774 6.526601 2.175534l-0.09598-0.031993zM217.279181 294.780326l8.318217 90.63657 4.255087 46.582014-4.89495 4.894951-4.766978 4.894951-0.895808-9.949867c-0.51189-5.534813-3.039348-31.225306-5.662786-57.171744s-6.430621-63.570372-8.318217-83.598079l-3.551239-36.248229 4.894951-4.511033c4.38306-4.127115 4.894951-4.255088 5.790758-2.015568 0.51189 1.279726 2.655431 22.139254 4.766978 46.454041z m-94.315781 15.260729c2.783403 24.794685 10.07784 90.764542 16.380488 146.528588s12.189387 109.544516 13.34114 119.622356c1.023781 10.07784 2.783403 25.306575 3.807184 34.008709 1.759623 14.716845 1.759623 15.740626-0.255945 17.244303-3.039348 2.271513-4.255088 2.015568-4.255088-0.639862 0-1.151753-1.151753-10.717702-2.527458-21.019494-2.271513-17.244303-6.046704-46.454041-14.4609-112.071975-1.759623-13.213167-5.150896-39.543523-7.550381-58.515456 5.726772 60.978928 0.191959 19.067912-5.214883-22.875096l-10.525743-99.626642c-2.271513-17.116331-3.679211-32.377059-3.295294-34.00871 0.895808-3.423266 8.318217-15.228735 9.086053-14.4609 0.255945 0.383918 2.783403 20.891521 5.534813 45.814179z m-38.519743 54.260368l7.806327 61.426832c2.399486 18.652001 5.406841 41.943008 6.782546 51.604937l2.399486 17.628221-2.655431 2.271513c-1.503678 1.279726-3.039348 1.759623-3.551239 1.279725s-1.503678-5.534813-2.271513-11.10162c-0.767835-5.534813-5.406841-37.87988-10.461757-71.760616l-8.95808-61.682777 2.911376-8.574162a31.289292 31.289292 0 0 1 3.615225-8.574162l-0.063986 0.127973c0.51189 0 2.399486 12.317359 4.38306 27.29015z m691.179829-16.508461c1.759623 1.759623 2.015568 9.565949 2.015568 67.345563v65.361988h-3.551239c-7.678354 0-7.550381 1.887595-8.062272-69.617076l-0.383917-65.106043h3.999142c2.14354 0 4.894951 0.895808 5.918731 2.015568z m-275.556928 22.523171a245.13145 245.13145 0 0 1 77.80732 24.794685c15.868598 8.190244 23.41898 13.85303 41.047201 30.713416 26.202383 25.05063 42.326926 46.965932 57.427689 77.935293 22.011281 45.078336 30.585443 84.973784 41.431118 191.990842 4.894951 47.957719 11.357565 134.979064 12.701277 170.58743 0.383918 10.333785 1.279726 27.29015 2.015568 37.751907 1.375705 22.139254 3.039348 19.163892-16.508461 28.569875-27.098191 13.085195-53.108615 22.139254-87.501242 30.585443-42.070981 10.333785-69.233158 13.597085-110.792249 13.725058l-30.201525 0.127973 0.255945-14.4609c0-7.934299 0.767835-26.458328 1.503677-40.919228 3.807184-70.128966 3.039348-158.653989-1.887595-207.731468-2.783403-28.185958-8.190244-62.450612-11.229593-70.000993-0.639863-1.63165 2.271513-3.039348 14.716845-7.294437 22.779117-7.934299 42.582871-17.884166 45.558234-22.779116 5.406841-9.310004-4.255088-22.651144-16.636434-22.651145-2.14354 0-8.574162 2.271513-14.4609 4.894951-28.185958 12.957222-84.717839 28.185958-117.350842 31.609224a333.720459 333.720459 0 0 1-83.790038-3.679211l1.983575 0.287938c-13.213167-2.399486-36.888092-11.357565-56.659854-21.531384-22.779117-11.805469-36.76012-27.546095-40.919228-46.198097-2.271513-10.07784-1.63165-30.201526 1.279726-41.55909 3.167321-12.445332 11.933442-30.585443 19.995713-41.175173 35.864312-47.221877 109.928434-88.141105 185.816166-102.474033a286.498582 286.498582 0 0 1 85.805605-0.991787l-1.503677-0.159966z m388.396738 3.935157c4.511033 1.887595 5.022923 2.399486 5.022923 6.654573 0.255945 34.392627-0.51189 112.903796-1.151753 116.19909-0.127973 1.151753-6.654573 1.279726-9.437977 0.255945-1.759623-0.639863-2.015568-7.422409-2.015568-62.962502 0-39.799468 0.51189-62.194667 1.279726-62.194667 0.639863 0 3.551239 0.895808 6.302649 2.015568z m54.964217 69.105185l4.511033 1.887596-0.895808 104.265648c-1.023781 132.835523-1.151753 136.706694-5.918731 148.192231-7.806327 18.779974-7.422409 22.523172-6.654574-59.795181 0.255945-41.175173 0.895808-82.830243 1.151753-92.524165s0.51189-37.016065 0.639863-60.818962c0-28.697848 0.383918-43.030775 1.279726-43.030776 0.767835 0 3.423266 0.895808 5.918731 1.887596z m-757.117693 31.353279c0.767835 10.205812 0.51189 11.229593-3.167321 19.291864l-3.999143 8.574162-1.503678-12.573304c-2.399486-20.123686-2.399486-21.019494 2.399486-24.058843 2.14354-1.503678 4.38306-2.527458 4.766978-2.271513s1.151753 5.278868 1.503678 11.10162z m-77.80732 75.919725c1.151753 10.333785 9.949867 78.831101 14.4609 112.455892 6.782546 51.988855 7.294436 59.411264 4.255088 56.275936a504.531841 504.531841 0 0 1-5.950725-35.672353l-0.351924-3.231307c-19.611796-135.746899-19.483823-134.851091-17.884166-135.874872 3.423266-2.271513 4.511033-1.023781 5.40684 6.046704z m90.63657 57.651641c0.767835 3.167321 4.38306 37.27201 4.38306 41.431118 0 3.551239-4.511033 6.782546-6.526601 4.766978-0.639863-0.639863-2.271513-11.357565-3.551239-23.674925l-3.167321-28.82582-0.767835-6.302649 4.38306 5.022923a27.642074 27.642074 0 0 1 5.08691 7.390416l0.063986 0.159966z m101.610217 47.477822c1.375705 1.279726 2.271513 6.302649 3.423266 19.867741 1.887595 24.570733 2.14354 22.651144-3.039348 22.651144-5.278868 0-5.150896 0.383918-6.910519-21.78733-1.759623-22.523172-1.759623-22.267226 1.63165-22.267226 1.63165 0 3.807184 0.767835 4.894951 1.503678z m99.690629 1.855602c0.255945 1.279726 0.895808 8.830107 1.375705 16.764406 0.383918 7.934299 1.503678 25.818465 2.527458 39.671495 3.551239 50.837102 3.679211 57.299716 1.503678 57.299717-2.399486 0-2.655431-1.887595-5.406841-37.751907a2575.76782 2575.76782 0 0 0-4.99093-63.730338l0.863814 11.741483c-1.151753-13.725058-1.887595-25.178602-1.503677-25.434547 1.375705-1.503678 5.022923-0.383918 5.662786 1.503677z m-236.653268 24.186815c0.767835 1.151753 5.534813 41.431118 11.485538 96.459321 1.759623 16.636434 3.551239 32.601011 3.87117 35.608367l0.639863 5.406841-3.167321-2.015568a6.558594 6.558594 0 0 1-3.295294-5.662786l0.031994-0.543884v0.031994c0-7.934299-5.406841-60.179099-9.56595-92.140248a927.865089 927.865089 0 0 1-4.255088-35.608366c0-2.655431 3.039348-3.679211 4.255088-1.503678z m726.53225 52.660711l-0.895808 52.628717-3.167321 4.639006c-7.166464 10.58973-6.782546 12.573305-6.430622-46.326069l0.255946-54.004423 4.639005-4.766978a24.730698 24.730698 0 0 1 5.438834-4.575019l0.09598-0.063986c0.383918 0 0.383918 23.674925 0 52.500745z m-116.455035 83.438113c0.639863 73.168315 0.51189 78.831101-1.503678 81.102613-1.279726 1.375705-2.399486 2.271513-2.783403 1.887596-0.895808-1.023781-2.14354-160.509591-1.151753-161.405399 0.51189-0.51189 1.759623-0.767835 2.911376-0.639863 1.63165 0.383918 2.015568 9.310004 2.527458 79.055053z m-411.175854-50.10126c0.895808 7.806327 3.999143 45.206309 5.278868 62.83453 0.767835 11.805469 0.767835 12.189387-2.015568 13.085195-1.503678 0.51189-3.295294 0.383918-3.807184-0.255945-0.895808-0.895808-3.679211-28.82582-7.038491-71.888589l-0.895808-10.333785h3.87117c3.679211 0 3.87117 0.255945 4.511033 6.526601zM263.733222 811.885472c0.895808 0.895808 1.503678 3.999143 1.503678 7.166464 0 3.295294 1.503678 20.251659 3.167321 37.879879 4.766978 48.213664 5.150896 54.772258 3.039348 53.492533-3.295294-1.887595-6.174676-4.766978-5.534813-5.534814a89.804748 89.804748 0 0 0-1.343712-14.524886l0.063986 0.51189c-0.895808-7.294436-2.015568-19.163892-2.527458-26.458328s-1.63165-20.635576-2.655431-29.593656c-2.399486-22.011281-2.271513-24.570733 0.51189-24.570732 1.279726 0 2.911376 0.639863 3.807184 1.503677z m59.539236 84.717839c0.383918 2.783403 1.151753 13.085195 1.631651 22.907089 0.895808 18.907947 0.51189 20.251659-4.639006 16.380488-1.503678-1.151753-2.527458-5.918731-3.999143-20.251658-2.655431-25.946438-2.783403-24.922657 2.143541-24.44276 3.679211 0.383918 4.127115 0.895808 4.894951 5.406841zM278.322095 430.655198c-13.085195 5.662786-14.108975 23.41898-1.759623 29.721629 8.95808 4.511033 18.012139 2.399486 22.651144-5.406841a16.732413 16.732413 0 0 0-21.019494-24.282795l0.09598-0.031993z m85.357701 12.061415a19.355851 19.355851 0 0 0-0.095979 32.664997l0.063986 0.031993c11.933442 7.166464 27.418122-2.271513 27.418122-16.636433 0-13.85303-15.868598-23.163034-27.418122-16.124544z"
    p-id="84680"
    fill="#13227a"
  ></path>
</svg>
