<svg
  t="1633949055771"
  class="icon"
  viewBox="0 0 1024 1024"
  version="1.1"
  xmlns="http://www.w3.org/2000/svg"
  p-id="50307"
  width="32"
  height="32"
>
  <path d="M597 767.6H440.9V571.9H587z" fill="#E0CBAF" p-id="50308"></path>
  <path
    d="M696.3 337.4c-1.7-0.1-2.8-1.7-2.4-3.3 5.5-20.4 30.3-129.7-68.5-134.5H397c-98.9 4.8-74 114-68.5 134.5 0.4 1.6-0.7 3.2-2.4 3.3-10.6 0.5-42.3 4.8-34.7 40.7 8.7 41.2 29.9 67.6 47.9 69.7 1.3 0.1 2.3 1.1 2.4 2.4 1.4 17.4 16.4 129.2 163.9 158 1.7 0.4 4.1 0.6 6 0.6 2 0 3.9-0.2 5.7-0.7 147.1-28.9 162.1-140.6 163.5-158 0.1-1.3 1.1-2.3 2.4-2.4 18-2.1 39.2-28.5 47.9-69.7 7.5-35.7-24.2-40.1-34.8-40.6z"
    fill="#F7E8D2"
    p-id="50309"
  ></path>
  <path
    d="M510.3 64c-3.8 4.8-294.7-17.2-191.3 275.8 0 0 14.4-2.7 26.6 23.3 10.4 22.3 11.2-4.3 11.7-19 0 0-2.5-68.3 24-64 26.5 4.3 170.7 5.2 248-60.3 17.7-8.8 37.5-9.5 37.7 53.7 0.2 63.2 11.5 98.4 19.3 98.2s14.5-34.7 26.7-30.9c7.7 3.8 7.4 3.7 7.4 3.7s50.4-149.4-30.7-227C673 104.3 639.1 64 510.3 64z"
    fill="#534741"
    p-id="50310"
  ></path>
  <path
    d="M459.6 511.8c-4.3 0-7.2 4.5-5.5 8.5 6.2 14.1 29.3 20.5 56.9 20.5 27.6 0 50.7-6.5 56.9-20.5 2.1-4.7-0.4-8.5-5.5-8.5H459.6z"
    fill="#F4EEED"
    p-id="50311"
  ></path>
  <path
    d="M802.2 831.5c-13.7-90.8-31.3-115.4-60.8-127.8-21.8-9.2-77.2-26.1-148.3-37.2l-8 14c-32.1 56.3-113.1 56.7-145.7 0.7l-8.6-14.7c-71 11.1-126.2 28-148 37.2-29.5 12.4-47.1 37.1-60.8 127.8C208.1 922.3 512 960 512 960s303.9-37.7 290.2-128.5z"
    fill="#3C69CA"
    p-id="50312"
  ></path>
  <path
    d="M498.9 749.5c0.3 1.3 1.1 2.3 2.2 2.3h20.1c1 0 1.9-0.9 2.2-2.3l6.6-36.3c0.3-1.9-0.7-3.7-2.2-3.7h-33.6c-1.5 0-2.5 1.8-2.2 3.7l6.9 36.3zM551.1 924.9l-28.7-169.7c-0.2-1.4-1.1-2.4-2.2-2.4h-18.6c-1.1 0-2 1-2.2 2.4l-28.6 167.4c-0.2 1 0.1 4.1 0.6 4.8l39 31.7c0.9 1.3 2.4 1.3 3.3-0.1l36.8-31.4c0.6-0.8 0.8-1.8 0.6-2.7z"
    fill="#FFD236"
    p-id="50313"
  ></path>
  <path
    d="M428 659.8l29.6 84.9c1.5 3.6 7.6 4.1 10 0.9l43.5-36.4-71.6-65.7s-3.9-2.8 0-4.8c0 0-15.6 8.1-11.5 21.1zM602.5 659.8l-31.1 84.9c-1.6 3.6-7.9 4.1-10.5 0.9l-45.7-36.4 75.1-65.7s4.1-2.8 0-4.8c0.1 0 16.4 8.1 12.2 21.1z"
    fill="#FFF9F3"
    p-id="50314"
  ></path>
  <path
    d="M667.1 799.4h-60c-4.4 0-8-3.6-8-8v-18c0-4.4 3.6-8 8-8h60c4.4 0 8 3.6 8 8v18c0 4.4-3.6 8-8 8z"
    fill="#FFFFFF"
    opacity=".1"
    p-id="50315"
  ></path>
</svg>
