<svg
  t="1633941566710"
  class="icon"
  viewBox="0 0 1024 1024"
  version="1.1"
  xmlns="http://www.w3.org/2000/svg"
  p-id="9190"
  width="32"
  height="32"
>
  <path
    d="M661.7 850.5v51c0 16.8 14.8 30.3 32.9 30.3h107.1c18.2 0 32.9-13.6 32.9-30.3V560.2H924c7.6 0 11.4-8.2 6-13L595.2 249.1c-13.3-11.8-34.9-11.8-48.2 0L212.3 547.2c-5.4 4.8-1.6 13 6 13h89.3v341.3c0 16.8 14.8 30.3 32.9 30.3h107.1c18.2 0 32.9-13.6 32.9-30.3V734.7c0-8.4 7.4-15.2 16.5-15.2h148.2c9.1 0 16.5 6.8 16.5 15.2v43.8"
    fill="#C5E5FF"
    p-id="9191"
  ></path>
  <path
    d="M792 941H662c-27.1 0-49.1-20.6-49.1-46v-62c0-5 4.1-9.1 9.1-9.1s9.1 4.1 9.1 9.1v62c0 15.3 13.8 27.7 30.9 27.7h130c17 0 30.9-12.4 30.9-27.7V471.4h117.6c0.9 0 1.2-0.3 1.3-0.4L535.2 109.6c-12.5-11.2-33.8-11.2-46.3 0L82.6 471.4c0.2 0 0.5 0.1 0.9 0.1h117.6V895c0 15.3 13.8 27.7 30.9 27.7h130c17 0 30.9-12.4 30.9-27.7V692.4c0-15.2 13.1-27.5 29.1-27.5h180c16.1 0 29.1 12.4 29.1 27.5v53.2c0 5-4.1 9.1-9.1 9.1s-9.1-4.1-9.1-9.1v-53.2c0-5.1-4.9-9.3-10.9-9.3H422c-6 0-10.9 4.2-10.9 9.3V895c0 25.3-22 46-49.1 46H232c-27.1 0-49.1-20.6-49.1-46V489.7H83.5c-8.3 0-15.5-4.8-18.3-12.1-2.7-7-0.8-14.4 4.9-19.5L476.6 96c19.5-17.3 51.2-17.3 70.7 0l406.5 362c5.7 5.1 7.6 12.6 5 19.5-2.8 7.4-10 12.1-18.3 12.1h-99.3V895c-0.1 25.4-22.1 46-49.2 46z"
    fill="#3B94FF"
    p-id="9192"
  ></path>
</svg>
