<svg
  t="1637136841400"
  class="icon"
  viewBox="0 0 1024 1024"
  version="1.1"
  xmlns="http://www.w3.org/2000/svg"
  p-id="4087"
  width="32"
  height="32"
>
  <path
    d="M862.6176 172.1344H633.856c-4.4032-58.7776-53.4528-105.1136-113.3568-105.1136h-16.9984c-59.904 0-108.9536 46.336-113.3568 105.1136H161.3824c-20.0704 0-36.3008 16.2816-36.3008 36.3008s16.2816 36.3008 36.3008 36.3008h701.2352a36.3008 36.3008 0 0 0 0-72.6016zM686.6944 950.3744H337.3056c-98.2528 0-177.92-79.6672-177.92-177.92V316.3136c0-14.9504 12.1344-27.0848 27.0848-27.0848h651.0592c14.9504 0 27.0848 12.1344 27.0848 27.0848v456.1408c0 98.2528-79.616 177.92-177.92 177.92z"
    fill="#F7264E"
    p-id="4088"
  ></path>
  <path
    d="M678.6048 917.3504h-346.112c-83.3024 0-150.8352-67.5328-150.8352-150.8352V329.3184c0-10.5984 8.6016-19.2 19.2-19.2h609.3312c10.5984 0 19.2 8.6016 19.2 19.2v437.1968c0.0512 83.3024-67.4816 150.8352-150.784 150.8352z"
    fill="#F92B5C"
    p-id="4089"
  ></path>
  <path
    d="M642.0992 882.8416H350.8224c-83.3024 0-150.8352-67.5328-150.8352-150.8352V344.9856c0-9.9328 8.0896-18.0224 18.0224-18.0224h556.9024c9.9328 0 18.0224 8.0896 18.0224 18.0224v386.9696c0 83.3536-67.5328 150.8864-150.8352 150.8864z"
    fill="#FC4C66"
    p-id="4090"
  ></path>
  <path
    d="M615.1168 857.5488h-251.392c-83.3024 0-150.8352-67.5328-150.8352-150.8352v-348.672c0-9.5232 7.68-17.2032 17.2032-17.2032h518.656c9.5232 0 17.2032 7.68 17.2032 17.2032v348.672c0 83.3024-67.5328 150.8352-150.8352 150.8352z"
    fill="#FF5F7E"
    p-id="4091"
  ></path>
  <path
    d="M859.8528 182.8864h-260.352c-3.1744-42.24-38.4-75.52-81.408-75.52h-12.1856c-43.008 0-78.2336 33.28-81.408 75.52H164.1472c-14.3872 0-26.0608 11.6736-26.0608 26.112 0 14.3872 11.6736 26.112 26.0608 26.112h695.7568c14.3872 0 26.0608-11.6736 26.0608-26.112 0-14.3872-11.6736-26.112-26.112-26.112z"
    fill="#FC4C66"
    p-id="4092"
  ></path>
  <path
    d="M845.2608 193.8432h-279.04a50.5344 50.5344 0 0 0-50.432-46.7456h-7.5776c-26.6752 0-48.4864 20.6336-50.432 46.7456h-279.04a16.1792 16.1792 0 0 0 0 32.3584h666.5216a16.1792 16.1792 0 0 0 0-32.3584z"
    fill="#FF5F7E"
    p-id="4093"
  ></path>
  <path
    d="M336.9984 519.168c-37.4784 0-67.9424 30.464-67.9424 67.9424v166.3488c0 37.4784 30.464 67.9424 67.9424 67.9424 37.4784 0 67.9424-30.464 67.9424-67.9424v-166.3488c0-37.4272-30.5152-67.9424-67.9424-67.9424zM684.6976 519.168c-37.4784 0-67.9424 30.464-67.9424 67.9424v166.3488c0 37.4784 30.464 67.9424 67.9424 67.9424 37.4784 0 67.9424-30.464 67.9424-67.9424v-166.3488c-0.0512-37.4272-30.5152-67.9424-67.9424-67.9424zM510.8224 412.1088c-37.4784 0-67.9424 30.464-67.9424 67.9424v273.408c0 37.4784 30.464 67.9424 67.9424 67.9424 37.4784 0 67.9424-30.464 67.9424-67.9424v-273.408c0-37.4784-30.464-67.9424-67.9424-67.9424z"
    fill="#F92B5C"
    p-id="4094"
  ></path>
  <path
    d="M336.9984 800.3072c-25.856 0-46.848-20.992-46.848-46.848v-166.3488c0-25.856 20.992-46.848 46.848-46.848 25.856 0 46.848 20.992 46.848 46.848v166.3488c0 25.856-20.992 46.848-46.848 46.848zM684.6976 800.3072c-25.856 0-46.848-20.992-46.848-46.848v-166.3488c0-25.856 20.992-46.848 46.848-46.848 25.856 0 46.848 20.992 46.848 46.848v166.3488c0 25.856-20.992 46.848-46.848 46.848zM510.8224 800.3072c-25.856 0-46.848-20.992-46.848-46.848v-273.408c0-25.856 20.992-46.848 46.848-46.848 25.856 0 46.848 20.992 46.848 46.848v273.408c0 25.856-20.9408 46.848-46.848 46.848z"
    fill="#F9F1E8"
    p-id="4095"
  ></path>
  <path
    d="M336.9984 786.2272a32.768 32.768 0 0 1-32.768-32.768v-166.3488a32.768 32.768 0 1 1 65.536 0v166.3488a32.768 32.768 0 0 1-32.768 32.768zM684.6976 786.2272a32.768 32.768 0 0 1-32.768-32.768v-166.3488a32.768 32.768 0 1 1 65.536 0v166.3488c0 18.0736-14.6944 32.768-32.768 32.768zM510.8224 786.2272a32.768 32.768 0 0 1-32.768-32.768v-273.408a32.768 32.768 0 1 1 65.536 0v273.408c0.0512 18.0736-14.6432 32.768-32.768 32.768z"
    fill="#FFFFFF"
    p-id="4096"
  ></path>
</svg>
