<svg
  t="1638058980111"
  class="icon"
  viewBox="0 0 1024 1024"
  version="1.1"
  xmlns="http://www.w3.org/2000/svg"
  p-id="1228"
  width="16"
  height="16"
>
  <path
    d="M270.08 64.064h-179.2a26.88 26.88 0 0 0-26.88 26.88V270.016a26.88 26.88 0 0 0 26.88 26.944 27.008 27.008 0 0 0 27.008-26.944 27.456 27.456 0 0 0-0.512-4.608V122.176c0-2.496 1.984-4.48 4.416-4.48H267.2c0.96 0.064 1.92 0.256 2.88 0.256a26.944 26.944 0 0 0 0-53.888z"
    fill="#5B4135"
    p-id="1229"
  ></path>
  <path
    d="M847.552 830.784a17.952 17.952 0 0 1-17.952 17.856H190.528a17.856 17.856 0 0 1-17.856-17.856V191.744c0-9.92 8-17.92 17.856-17.92h639.104c9.824 0 17.952 8 17.952 17.92v639.04z"
    fill="#CCB374"
    p-id="1230"
  ></path>
  <path
    d="M753.824 64.064h179.2a26.88 26.88 0 0 1 26.88 26.88v178.688c-0.032 0.128 0.096 0.256 0.096 0.384a26.944 26.944 0 0 1-53.952 0c0-1.536 0.256-3.136 0.448-4.608V122.176a4.448 4.448 0 0 0-4.512-4.48h-145.312c-1.056 0.064-1.888 0.256-2.88 0.256a26.944 26.944 0 0 1 0.032-53.888zM270.08 959.936h-179.2A26.816 26.816 0 0 1 64 933.12v-178.752-0.384a26.944 26.944 0 1 1 53.888 0 27.84 27.84 0 0 1-0.512 4.608v143.168a4.48 4.48 0 0 0 4.416 4.512H267.2c0.96-0.064 1.856-0.256 2.816-0.256a26.912 26.912 0 0 1 0.064 53.92zM753.824 959.936h179.2a26.88 26.88 0 0 0 26.88-26.816v-178.752c0-0.128 0.128-0.256 0.128-0.384a27.008 27.008 0 0 0-27.008-27.04 26.88 26.88 0 0 0-26.944 27.04c0 1.504 0.256 3.136 0.448 4.608v143.168a4.48 4.48 0 0 1-4.512 4.512h-145.312c-1.056-0.064-1.888-0.256-2.88-0.256a26.944 26.944 0 1 0 0 53.92z"
    fill="#5B4135"
    p-id="1231"
  ></path>
</svg>
